<svg width="109" height="153" viewBox="0 0 109 153" fill="none" xmlns="http://www.w3.org/2000/svg">
<g clip-path="url(#clip0_109_45947)">
<path d="M11.5444 58.1106H20.2803C15.7429 54.1698 12.6989 49.3603 11.6938 44.5278C11.6938 44.6141 11.6938 44.6947 11.6938 44.781C11.7225 46.4551 12.6817 48.1119 13.2215 49.7745C13.1584 52.1102 13.4168 54.4114 11.9637 56.609C11.8144 56.8334 11.6191 57.052 11.4181 57.2764V58.1278C11.4583 58.1278 11.4985 58.1163 11.5444 58.1163V58.1106Z" fill="#382017"/>
<path d="M88.8518 58.1108H97.5991V56.638C96.6572 54.5727 96.0312 52.4441 95.8187 50.1659C95.8302 50.1199 95.7727 49.8208 95.698 49.4756C94.1588 52.5707 91.8269 55.5219 88.8518 58.1108Z" fill="#382017"/>
<path d="M107.409 64.4563C107.713 62.9432 107.869 61.3899 107.932 59.9229C108.173 54.193 109.477 48.5148 108.822 42.7504C108.397 38.9937 106.852 35.5592 105.64 32.0326C102.51 22.9314 96.0944 16.2119 88.9839 10.2979C85.1128 7.07624 80.2653 5.02243 75.4523 3.16423C65.539 -0.655739 55.2294 -0.218514 45.0232 0.425817C37.528 0.89756 30.6128 3.92937 24.1284 7.84714C20.7053 9.91245 18.046 12.7947 15.0537 15.326C12.4289 17.5466 10.12 19.9859 8.31657 22.8854C3.13594 31.1754 -0.155078 40.035 0.620293 50.0221C1.10275 56.2525 1.11998 62.529 2.60754 68.6559C2.76262 69.3003 2.80282 69.9216 2.75113 70.5314C5.38739 68.0174 8.97133 67.0509 8.97133 67.0509L8.99431 69.0817C9.03451 69.0702 9.05748 69.0644 9.05748 69.0644L9.40209 101.551C9.40209 101.551 9.39061 101.551 9.37338 101.557L9.40209 104.18C9.40209 104.18 8.74159 104.33 7.77094 104.008C7.85709 104.503 7.88007 105.026 7.8973 105.567C8.02366 109.105 8.71862 112.66 10.5163 115.594C11.5329 117.251 12.6587 118.908 14.0084 120.375L16.8284 116.745C16.6561 116.595 16.4838 116.446 16.3115 116.296C13.0377 113.333 12.7103 109.232 11.6708 105.279C11.2343 103.611 11.5559 102.012 11.4295 100.43V101.154H9.59737V58.4444L11.4295 56.6322V57.2823C11.6306 57.058 11.8258 56.8451 11.9752 56.615C13.4283 54.4174 13.1698 52.1162 13.233 49.7805C12.6931 48.1179 11.734 46.461 11.7052 44.7869C11.7052 44.7006 11.7052 44.6201 11.7052 44.5338C11.0505 41.4099 11.2458 38.2745 12.4289 35.3636C16.5872 25.152 31.3595 21.5392 45.4138 27.2864C48.8599 28.6959 51.9441 30.5368 54.5747 32.6654C57.2052 30.5368 60.2894 28.6959 63.7355 27.2864C77.7956 21.5392 92.5621 25.1578 96.7204 35.3636C98.5411 39.8279 98.0299 44.8099 95.7038 49.4813C95.7785 49.8265 95.8359 50.1256 95.8244 50.1717C96.0369 52.4556 96.6687 54.5842 97.6049 56.6438V56.6265L99.4371 58.4387V101.149L97.6049 105.038V103.668C97.4039 104.635 97.1569 105.59 96.8583 106.545C96.6515 107.201 97.2718 107.828 96.7089 108.38C96.8296 108.852 96.8181 109.272 96.3011 109.519C96.2667 109.652 96.1863 109.726 96.0542 109.749C96.0082 109.87 95.945 109.985 95.8589 110.083C96.4045 110.877 95.9738 111.579 95.6464 112.286C95.1926 114.985 93.2571 116.883 91.9591 119.132L95.2903 119.915C97.2201 118.799 98.007 116.457 99.2016 114.49C101.195 111.205 101.091 107.483 101.608 103.893C101.729 103.076 101.809 102.512 102.688 102.006C106.203 99.9751 106.8 96.3564 107.191 92.7896C107.541 89.5622 108.202 86.3808 108.512 83.1361C108.816 79.926 109.132 76.8424 107.639 73.8278C106.123 70.7673 106.789 67.5686 107.415 64.462L107.409 64.4563ZM99.5405 101.551L99.8851 69.0644C99.8851 69.0644 107.024 71.1642 107.064 77.3774C107.214 103.438 99.5405 101.551 99.5405 101.551Z" fill="#382017"/>
<path d="M54.4828 112.419C54.5632 112.447 54.6436 112.488 54.724 112.534C54.8044 112.488 54.8906 112.447 54.9652 112.419H54.4771H54.4828Z" fill="#382017"/>
<path d="M76.733 110.21C74.4988 109.893 72.2703 109.577 70.0361 109.266C67.6066 108.806 65.1714 108.576 62.7419 109.255C59.9103 109.818 57.3717 108.576 54.7297 107.954C52.0877 108.576 49.5491 109.824 46.7175 109.255C44.288 108.576 41.8528 108.8 39.4233 109.266C37.1891 109.582 34.9606 109.899 32.7264 110.21C31.8821 110.664 31.5432 111.285 31.9855 112.223C32.3875 113.074 32.7436 113.949 33.1227 114.812C35.1903 114.219 37.2408 113.569 39.4405 113.759C39.8828 113.776 40.325 113.794 40.7615 113.811C43.1336 113.753 45.5114 113.627 47.8835 113.661C49.348 113.684 50.7724 113.581 52.1968 113.276C52.886 113.172 53.7992 113.31 54.2128 112.919C54.3908 112.747 54.5631 112.626 54.7239 112.534C54.6435 112.488 54.5574 112.447 54.4827 112.419H54.9709C54.8905 112.447 54.8101 112.488 54.7297 112.534C54.8905 112.626 55.0628 112.752 55.2409 112.919C55.6544 113.31 56.5734 113.172 57.2568 113.276C58.6812 113.581 60.1056 113.679 61.5702 113.661C63.9423 113.627 66.3201 113.753 68.6921 113.811C69.1344 113.794 69.5766 113.776 70.0131 113.759C72.2071 113.569 74.2633 114.225 76.331 114.812C76.71 113.949 77.0661 113.074 77.4682 112.223C77.9104 111.28 77.5716 110.658 76.7273 110.21H76.733Z" fill="#382017"/>
<path d="M5.85263 101.482C5.10598 101.149 4.62927 100.205 4.11235 99.4169C2.67074 97.225 2.47546 94.734 1.86091 92.3177C1.16594 89.5678 1.32102 86.7258 0.689233 83.9759C-0.0746514 80.6565 -0.258443 77.314 1.48758 74.1729C2.13659 73.005 2.64202 71.8027 2.7454 70.5312C1.22912 71.9867 0.0172445 73.9543 1.40057e-05 76.5546C-0.13783 98.5194 5.03706 103.11 7.76522 104.008C7.58717 102.966 7.13343 102.063 5.84689 101.488L5.85263 101.482Z" fill="#382017"/>
<path d="M9.4021 104.18L9.37338 101.557C8.85647 101.649 1.74028 102.501 1.88387 77.3773C1.91833 71.4921 8.31658 69.3002 9.00006 69.0816L8.97708 67.0508C8.97708 67.0508 5.39314 68.0173 2.75688 70.5313C2.64775 71.8027 2.14233 73.0051 1.49905 74.1729C-0.246967 77.3141 -0.0689188 80.6565 0.700709 83.976C1.33249 86.7317 1.17742 89.5679 1.87238 92.3178C2.48119 94.734 2.68221 97.2251 4.12383 99.4169C4.64075 100.205 5.11746 101.143 5.86411 101.482C7.15065 102.063 7.60439 102.961 7.78244 104.002C8.75309 104.324 9.41359 104.175 9.41359 104.175L9.4021 104.18Z" fill="#382017"/>
<path d="M10.5393 59.0484C10.5738 58.5652 10.9471 58.1797 11.4238 58.1222V57.2708C10.9529 57.7943 10.4647 58.3408 10.5393 59.0484Z" fill="#382017"/>
<path d="M11.418 100.424V100.021H11.3721C11.3893 100.153 11.4065 100.291 11.418 100.424Z" fill="#382017"/>
<path d="M10.5279 100.015V59.1231C10.5279 59.1231 10.5279 59.0714 10.5336 59.0484C10.4532 58.335 10.9414 57.7885 11.4181 57.2707V56.6206L9.58594 58.4328V101.143H11.4181V100.418C11.4066 100.28 11.3951 100.148 11.3722 100.015H10.5279Z" fill="#382017"/>
<path d="M10.5393 59.0483C10.5565 59.1806 10.591 59.3244 10.6484 59.474C11.3606 61.2287 10.5163 63.0121 10.8954 64.7437C10.9126 65.0199 10.9528 65.5779 10.9528 65.5779L10.8035 68.5349C10.8035 68.5349 10.3555 78.9881 10.993 84.2002C10.5393 86.5359 10.7978 88.8947 10.7748 91.2419C10.7633 92.0185 10.3211 92.9735 11.2228 93.6121C11.0505 94.6936 11.0562 95.7464 11.4295 96.7244V58.1221C10.9528 58.1796 10.5853 58.565 10.5451 59.0483H10.5393Z" fill="#382017"/>
<path d="M11.1941 99.1351C11.2803 99.4285 11.3377 99.7219 11.3779 100.015H11.4238V97.7659C10.66 97.8522 11.1137 98.8589 11.1941 99.1351Z" fill="#382017"/>
<path d="M11.2171 93.6121C10.3153 92.9736 10.7633 92.0186 10.7691 91.2419C10.7978 88.8947 10.5336 86.536 10.9873 84.2003C10.3498 78.9881 10.7978 68.535 10.7978 68.535L10.9471 65.5779C10.9471 65.5779 10.9126 65.0199 10.8897 64.7438C10.5106 63.0179 11.3549 61.2345 10.6427 59.4741C10.5853 59.3245 10.5508 59.1864 10.5336 59.0483C10.5336 59.0714 10.5278 59.1001 10.5278 59.1231V100.015H11.3721C11.3319 99.7218 11.2745 99.4284 11.1883 99.135C11.1079 98.8588 10.6484 97.8521 11.4181 97.7658V96.7245C11.0505 95.7465 11.039 94.6937 11.2113 93.6121H11.2171Z" fill="#382017"/>
<path d="M97.6566 58.1107C98.0069 58.1107 98.3113 58.289 98.4951 58.5537C98.4262 58.3523 98.3458 58.1567 98.2481 57.9669C98.0184 57.5239 97.8059 57.0809 97.5991 56.6379V58.1107H97.6566Z" fill="#382017"/>
<path d="M98.6732 59.2612V61.6084C98.7766 60.8145 98.8053 60.0149 98.6732 59.2612Z" fill="#382017"/>
<path d="M97.5991 100.015V103.663C97.8518 102.454 98.0414 101.235 98.1677 100.015H97.5991Z" fill="#382017"/>
<path d="M98.6732 70.3127V70.773C98.7077 70.6176 98.6962 70.4681 98.6732 70.3127Z" fill="#382017"/>
<path d="M99.4313 101.149V58.4386L97.5991 56.6265V56.6437C97.8001 57.0925 98.0127 57.5354 98.2481 57.9727C98.3458 58.1625 98.4262 58.3581 98.4951 58.5595C98.6042 58.7205 98.6732 58.9161 98.6732 59.129V59.2671C98.8053 60.0207 98.7765 60.8204 98.6732 61.6143V70.3185C98.6961 70.4738 98.7076 70.6292 98.6732 70.7787V100.021H98.1677C98.0414 101.246 97.8576 102.46 97.5991 103.668V105.038L99.4313 101.149Z" fill="#382017"/>
<path d="M98.2998 92.5709C98.5181 91.3398 98.1448 90.0454 98.6502 88.843C98.6157 82.9175 98.587 76.9862 98.5525 71.0606C98.6157 70.9686 98.6444 70.8708 98.6617 70.7787V70.3185C98.6272 70.0826 98.5583 69.841 98.5928 69.6051C98.5526 69.283 98.5123 68.9665 98.4779 68.6444C98.6157 68.0576 98.6617 67.465 98.6674 66.8725C98.6674 65.883 98.564 64.8934 98.5985 63.9039C98.564 63.4897 98.5296 63.0755 98.4951 62.6613C98.564 62.3161 98.6215 61.9652 98.6674 61.6143V59.267C98.6272 59.0254 98.5698 58.7896 98.4894 58.5594C98.3056 58.289 98.0012 58.1165 97.6508 58.1165H97.5934V100.021H98.162C98.4147 97.5588 98.4319 95.0735 98.2998 92.5767V92.5709Z" fill="#382017"/>
<path d="M98.6732 59.1233C98.6732 58.9104 98.61 58.7148 98.4951 58.5537C98.5755 58.7838 98.6272 59.0197 98.6732 59.2613V59.1233Z" fill="#382017"/>
<path d="M98.5985 63.8982C98.564 64.8877 98.6732 65.8772 98.6674 66.8667V61.6143C98.6215 61.9652 98.564 62.3161 98.4951 62.6613C98.5296 63.0755 98.564 63.4897 98.5985 63.9039V63.8982Z" fill="#382017"/>
<path d="M98.6559 88.843C98.1505 90.0511 98.5238 91.3398 98.3056 92.5709C98.4377 95.0735 98.4204 97.5587 98.1677 100.015H98.6732V70.7729C98.6559 70.865 98.6215 70.9628 98.564 71.0548C98.5985 76.9804 98.6272 82.9117 98.6617 88.8372L98.6559 88.843Z" fill="#382017"/>
<path d="M98.5985 69.5994C98.5698 69.8352 98.633 70.0769 98.6674 70.3127V66.8667C98.6674 67.4593 98.6215 68.0518 98.4779 68.6386C98.5181 68.9608 98.5583 69.2772 98.5928 69.5994H98.5985Z" fill="#382017"/>
<path d="M55.4133 142.927L55.8613 142.858C55.1605 141.81 53.9659 141.12 52.6104 141.12C51.255 141.12 50.0603 141.81 49.3596 142.858L49.8076 142.927V147.655L49.7215 147.678C50.4394 148.467 51.4675 148.967 52.6162 148.967C53.7649 148.967 54.793 148.467 55.5109 147.678L55.4247 147.655V142.927H55.4133Z" fill="#382017"/>
<path d="M49.3595 142.857L30.2395 139.981C28.2752 143.962 28.5566 148.352 30.2395 153L49.7156 147.678C49.0838 146.982 48.6933 146.056 48.6933 145.044C48.6933 144.232 48.9403 143.485 49.3538 142.857H49.3595Z" fill="#382017"/>
<path d="M49.8019 142.926L49.3539 142.857C48.9346 143.484 48.6934 144.232 48.6934 145.044C48.6934 146.062 49.0839 146.982 49.7157 147.678L49.8019 147.655V142.926Z" fill="#382017"/>
<path d="M55.8612 142.857C56.2805 143.485 56.5217 144.232 56.5217 145.044C56.5217 146.062 56.1312 146.982 55.4994 147.678L74.9756 153C76.6584 148.352 76.9398 143.962 74.9756 139.981L55.8555 142.857H55.8612Z" fill="#382017"/>
<path d="M55.8612 142.857L55.4132 142.926V147.655L55.4994 147.678C56.1311 146.982 56.5217 146.056 56.5217 145.044C56.5217 144.232 56.2747 143.484 55.8612 142.857Z" fill="#382017"/>
</g>
<defs>
<clipPath id="clip0_109_45947">
<rect width="109" height="153" fill="white"/>
</clipPath>
</defs>
</svg>
