<svg width="100" height="139" viewBox="0 0 100 139" fill="none" xmlns="http://www.w3.org/2000/svg">
<g clip-path="url(#clip0_109_46003)">
<path d="M41.2292 79.79C44.8634 78.5443 48.3614 77.9149 51.7684 77.9149C53.6829 77.9149 55.5649 78.1161 57.4275 78.5118C57.726 78.5637 58.0116 78.6481 58.3036 78.713C58.388 78.7324 58.4723 78.7519 58.5502 78.7713C59.8417 79.0698 61.1007 79.4331 62.3142 79.9262L62.483 79.9976C62.5544 79.9068 62.6842 79.7056 62.762 79.3163C62.9308 78.5183 62.8139 77.5581 62.4895 77.0845L52.3071 62.1165C51.9047 61.5326 51.2882 61.2277 50.5614 61.2406C49.854 61.2731 49.244 61.6429 48.9 62.2657L40.5348 77.2012C40.0415 78.0836 40.3076 79.6862 40.6451 79.9651L40.8073 79.9068C40.9501 79.8678 41.0799 79.8354 41.2227 79.7965L41.2292 79.79Z" fill="#452315"/>
<path d="M27.3476 115.033C31.1052 116.169 34.986 117.336 38.8668 118.271C40.1713 118.582 41.4757 118.952 42.7607 119.341C46.8362 115.072 53.5855 113.969 58.9525 117.038C60.0623 117.674 61.0552 118.452 61.9053 119.341C63.1903 118.958 64.4882 118.589 65.7927 118.277C69.6735 117.349 73.5544 116.175 77.3119 115.04C79.3432 114.423 81.381 113.813 83.4252 113.229C84.6193 112.892 85.6188 112.367 86.4559 111.659C101.35 81.8727 103.985 51.7163 94.263 21.9426C91.4206 13.2486 84.827 6.6243 76.6305 3.60087V21.0602C76.6305 26.056 72.5679 30.1175 67.5709 30.1175H32.4355C27.4385 30.1175 23.3759 26.056 23.3759 21.0602V3.06885C13.8425 5.98198 6.23657 13.6444 3.67962 23.6814C-4.65317 56.459 1.18108 86.5246 21.0266 113.152C21.098 113.171 21.1629 113.197 21.2343 113.216C23.2786 113.8 25.3098 114.41 27.3476 115.027V115.033ZM35.5831 106.242H33.6167C32.3512 106.242 31.3647 105.152 31.4945 103.893L32.7211 91.8773H36.4786L37.7052 103.893C37.835 105.152 36.8485 106.242 35.5831 106.242ZM73.0936 90.1774H37.6727C37.3158 90.5213 36.8291 90.7419 36.2904 90.7419H32.5978C31.501 90.7419 30.6054 89.8465 30.6054 88.75C30.6054 87.6536 31.501 86.7582 32.5978 86.7582H36.2904C36.7447 86.7582 37.1601 86.9204 37.4975 87.1735H73.0936C73.9243 87.1735 74.5992 87.8482 74.5992 88.6787C74.5992 89.5091 73.9243 90.1839 73.0936 90.1839V90.1774ZM71.4452 42.2307C81.2317 42.2307 88.9025 47.0319 88.9025 53.1566C88.9025 57.0105 85.1839 62.162 80.7774 64.4069C79.1874 65.2179 77.591 65.6201 76.0464 65.6201C74.1969 65.6201 72.4187 65.0427 70.8287 63.8813C66.9673 61.0785 63.398 59.9366 60.5295 59.0153C56.8758 57.8475 53.9879 56.9262 53.9879 53.1566C53.9879 47.0319 61.6522 42.2307 71.4452 42.2307ZM54.0463 60.9487L64.2287 75.9167C65.2346 77.396 65.1697 80.0366 64.1053 81.3537C63.6705 81.8922 63.0994 82.1712 62.4894 82.1712C62.2882 82.1712 62.087 82.1322 61.8794 82.0674C58.6215 83.0211 55.2534 83.5142 51.7944 83.5142C48.3353 83.5142 44.6297 83.0081 40.9371 82.009C40.2232 82.1193 39.5353 81.8792 39.0421 81.2953C38.0427 80.1144 37.8934 77.6749 38.7306 76.1892L47.0958 61.2537C47.7967 60.008 49.0622 59.2294 50.4899 59.1645C51.9371 59.0932 53.2481 59.7679 54.0528 60.9487H54.0463ZM15.5104 53.1566C15.5104 47.0319 23.1747 42.2307 32.9677 42.2307C42.7607 42.2307 50.425 47.0319 50.425 53.1566C50.425 56.9262 47.5371 57.8475 43.8834 59.0153C41.0149 59.9301 37.4456 61.072 33.5842 63.8813C31.9942 65.0362 30.2161 65.6201 28.3665 65.6201C26.8219 65.6201 25.2255 65.2179 23.6355 64.4069C19.2355 62.162 15.5169 57.0105 15.5169 53.1566H15.5104Z" fill="#452315"/>
<path d="M32.7211 91.8706L31.4945 103.886C31.3647 105.145 32.3512 106.235 33.6167 106.235H35.583C36.8485 106.235 37.835 105.145 37.7052 103.886L36.4786 91.8706H32.7211Z" fill="#D3D2D2"/>
<path d="M33.3376 88.6724C33.3376 87.8419 34.0126 87.1672 34.8433 87.1672H37.4975C37.1601 86.9077 36.7447 86.752 36.2905 86.752H32.5978C31.501 86.752 30.6055 87.6473 30.6055 88.7438C30.6055 89.8403 31.501 90.7356 32.5978 90.7356H36.2905C36.8226 90.7356 37.3093 90.5215 37.6728 90.1711H34.8433C34.0126 90.1711 33.3376 89.4964 33.3376 88.6659V88.6724Z" fill="#D3D2D2"/>
<path d="M73.0872 87.167H37.4911C37.9648 87.5303 38.2763 88.1013 38.2763 88.7436C38.2763 89.308 38.0362 89.8141 37.6598 90.1774H73.0807C73.9114 90.1774 74.5863 89.5027 74.5863 88.6722C74.5863 87.8417 73.9114 87.167 73.0807 87.167H73.0872Z" fill="#D3D2D2"/>
<path d="M38.2828 88.7436C38.2828 88.1013 37.9713 87.5303 37.4976 87.167H34.8433C34.0126 87.167 33.3376 87.8417 33.3376 88.6722C33.3376 89.5027 34.0126 90.1774 34.8433 90.1774H37.6728C38.0492 89.8141 38.2893 89.308 38.2893 88.7436H38.2828Z" fill="#D3D2D2"/>
<path d="M25.3812 21.0535C25.3812 24.9398 28.5482 28.106 32.4355 28.106H67.5709C71.4582 28.106 74.6252 24.9463 74.6252 21.0535V2.93236C72.0423 2.18623 69.3296 1.771 66.539 1.771H31.9099C31.0013 1.771 30.0992 1.8229 29.2102 1.90076C27.9382 2.11486 26.6597 2.34194 25.3812 2.59498V21.047V21.0535Z" fill="#452315"/>
<path d="M37.7506 0.726488H65.1177C56.1425 -0.24672 46.9985 -0.24672 37.7506 0.726488Z" fill="#452315"/>
<path d="M66.5326 1.77114C69.3231 1.77114 72.0358 2.18637 74.6187 2.9325V2.12798C71.4777 1.53757 68.3042 1.07692 65.1178 0.726562H37.7507C34.9147 1.02501 32.0657 1.42078 29.2102 1.9009C30.0993 1.81656 31.0014 1.77114 31.9099 1.77114H66.539H66.5326Z" fill="#452315"/>
<path d="M47.9265 135.055C47.2516 134.672 46.6545 134.205 46.1354 133.686C45.2398 133.569 43.8185 133.342 42.0598 132.959C43.0398 134.809 44.5324 136.359 46.4339 137.443C51.9242 140.576 59.0304 138.825 62.2818 133.53C62.3986 133.342 62.4894 133.148 62.5933 132.959C60.841 133.342 59.4198 133.569 58.5242 133.686C55.805 136.392 51.431 137.06 47.9265 135.055Z" fill="#D3D2D2"/>
<path d="M47.6734 120.853C50.3342 119.211 53.8257 119.043 56.7266 120.697C56.8109 120.749 56.8888 120.801 56.9732 120.853C57.6416 120.645 58.3101 120.444 58.9785 120.237C59.4133 120.1 59.8481 119.964 60.2894 119.828C59.6664 119.257 58.9785 118.744 58.2192 118.31C56.3761 117.252 54.3448 116.752 52.3395 116.752C49.4062 116.752 46.5247 117.836 44.3572 119.828C44.7985 119.964 45.2333 120.1 45.6681 120.237C46.3365 120.444 47.005 120.652 47.6734 120.853Z" fill="#D3D2D2"/>
<path d="M85.4241 118.108L85.119 118.251C79.168 121.06 72.1072 123.026 64.7413 124.11C64.8192 124.35 64.9036 124.59 64.9685 124.843C65.5201 127.004 65.4617 129.209 64.8517 131.299C71.8995 129.385 82.283 125.09 87.2736 115.87C87.8707 114.676 88.4158 113.405 88.5845 112.062C87.637 113.975 86.6376 115.896 85.5863 117.81L85.4241 118.108Z" fill="#452315"/>
<path d="M77.6234 116.071C73.8529 117.207 69.9591 118.388 66.0458 119.322C64.923 119.588 63.8003 119.899 62.6841 120.23C63.1384 120.808 63.5342 121.424 63.8782 122.073C71.1532 121.061 78.1296 119.199 83.9184 116.513C84.4571 115.526 84.9762 114.54 85.4889 113.561C84.9373 113.84 84.3532 114.093 83.7172 114.268C81.6795 114.845 79.6482 115.462 77.6234 116.071Z" fill="#452315"/>
<path d="M64.3521 123.065C64.4948 123.409 64.6311 123.753 64.7414 124.11C72.1073 123.026 79.1681 121.061 85.1191 118.251L85.4242 118.108L85.5864 117.81C86.6377 115.896 87.6307 113.982 88.5846 112.062C88.6366 111.672 88.656 111.277 88.6301 110.874C88.6301 110.874 88.6301 110.868 88.6301 110.861C88.2407 111.419 87.7734 111.899 87.2737 112.341C86.443 113.995 85.5799 115.65 84.6713 117.31C78.915 120.029 71.8282 121.982 64.3521 123.065Z" fill="#452315"/>
<path d="M83.9185 116.513C78.1297 119.199 71.1533 121.061 63.8783 122.073C64.0535 122.397 64.2093 122.728 64.352 123.066C71.8282 121.989 78.915 120.036 84.6713 117.311C85.5799 115.65 86.443 113.995 87.2737 112.341C86.7416 112.814 86.151 113.223 85.4955 113.554C84.9828 114.54 84.4637 115.526 83.925 116.506L83.9185 116.513Z" fill="#452315"/>
<path d="M63.5473 125.206C63.4694 124.901 63.372 124.603 63.2682 124.311C62.2818 124.441 61.2888 124.558 60.2959 124.655C61.3083 127.004 61.2175 129.767 59.7703 132.123C59.6989 132.239 59.6145 132.35 59.5366 132.467C60.4711 132.311 61.7172 132.077 63.1644 131.727C63.9626 129.651 64.1054 127.399 63.5473 125.206Z" fill="#452315"/>
<path d="M58.0764 121.645C58.4269 121.943 58.7384 122.267 59.0239 122.611C60.1207 122.514 61.2174 122.404 62.3077 122.274C61.9702 121.716 61.5744 121.19 61.1461 120.697C60.5295 120.885 59.913 121.08 59.3095 121.268C58.9006 121.398 58.4918 121.521 58.0764 121.651V121.645Z" fill="#452315"/>
<path d="M59.7573 123.61C59.965 123.948 60.1402 124.298 60.296 124.661C61.2889 124.564 62.2818 124.447 63.2683 124.318C63.145 123.961 63.0022 123.617 62.8464 123.273C61.821 123.403 60.7957 123.513 59.7638 123.61H59.7573Z" fill="#452315"/>
<path d="M59.0239 122.611C59.29 122.929 59.5431 123.26 59.7573 123.61C60.7891 123.513 61.821 123.403 62.8399 123.273C62.6776 122.929 62.5024 122.598 62.3077 122.274C61.2175 122.404 60.1207 122.52 59.0239 122.611Z" fill="#452315"/>
<path d="M64.9686 124.843C64.9037 124.596 64.8193 124.356 64.7414 124.11C64.4948 124.149 64.2482 124.181 64.0016 124.214C64.7868 126.549 64.8258 129.099 64.0146 131.519C64.2871 131.448 64.5662 131.376 64.8517 131.299C65.4618 129.216 65.5202 127.004 64.9686 124.843Z" fill="#452315"/>
<path d="M61.9119 120.464C62.3597 121.002 62.7555 121.573 63.093 122.17C63.3526 122.138 63.6187 122.105 63.8782 122.066C63.5343 121.417 63.1384 120.801 62.6841 120.224C62.4245 120.301 62.1715 120.379 61.9119 120.457V120.464Z" fill="#452315"/>
<path d="M64.0016 124.214C64.2482 124.181 64.4948 124.149 64.7414 124.11C64.6246 123.753 64.4948 123.403 64.3521 123.065C64.099 123.104 63.8459 123.137 63.5992 123.169C63.755 123.513 63.8913 123.863 64.0081 124.214H64.0016Z" fill="#452315"/>
<path d="M63.5927 123.169C63.8458 123.137 64.0989 123.104 64.3456 123.065C64.2028 122.728 64.047 122.397 63.8718 122.073C63.6122 122.112 63.3461 122.138 63.0865 122.177C63.2683 122.501 63.437 122.832 63.5927 123.169Z" fill="#452315"/>
<path d="M64.0015 124.214C63.7549 124.246 63.5083 124.278 63.2617 124.311C63.3655 124.603 63.4629 124.901 63.5407 125.206C64.1053 127.399 63.9561 129.651 63.1578 131.727C63.4369 131.662 63.716 131.59 64.008 131.513C64.8192 129.099 64.7803 126.543 63.995 124.207L64.0015 124.214Z" fill="#452315"/>
<path d="M62.3078 122.274C62.5674 122.241 62.827 122.209 63.0866 122.177C62.7491 121.58 62.3532 121.009 61.9054 120.47C61.6523 120.548 61.3927 120.626 61.1396 120.704C61.5745 121.197 61.9638 121.722 62.3013 122.28L62.3078 122.274Z" fill="#452315"/>
<path d="M62.8398 123.273C62.9956 123.61 63.1384 123.961 63.2617 124.318C63.5083 124.285 63.7549 124.253 64.0015 124.22C63.8847 123.864 63.7484 123.52 63.5926 123.176C63.3395 123.208 63.0929 123.247 62.8398 123.28V123.273Z" fill="#452315"/>
<path d="M62.8399 123.273C63.093 123.24 63.3396 123.201 63.5927 123.169C63.4434 122.832 63.2747 122.501 63.0865 122.176C62.8269 122.209 62.5673 122.248 62.3077 122.274C62.5024 122.598 62.6777 122.929 62.8399 123.273Z" fill="#452315"/>
<path d="M56.5449 126.711C57.2653 128.6 58.0116 130.552 58.0895 132.681C58.4139 132.642 58.9072 132.57 59.5302 132.466C59.6081 132.35 59.6924 132.246 59.7638 132.123C61.211 129.767 61.3084 127.003 60.2895 124.655C58.8358 124.798 57.3756 124.908 55.9154 124.986C56.1166 125.57 56.3307 126.147 56.5449 126.711Z" fill="#452315"/>
<path d="M58.0765 121.645C57.4664 121.833 56.8629 122.027 56.2529 122.209C55.9738 122.28 55.7142 122.345 55.4481 122.404C55.3508 122.423 55.2729 122.475 55.234 122.553C55.208 122.598 55.1821 122.676 55.208 122.767L55.2405 122.864C56.506 122.806 57.765 122.722 59.0305 122.618C58.7449 122.274 58.4334 121.949 58.083 121.651L58.0765 121.645Z" fill="#452315"/>
<path d="M55.565 123.915V123.948C55.6753 124.298 55.7986 124.642 55.9154 124.986C57.3756 124.908 58.8358 124.804 60.2895 124.655C60.1337 124.298 59.9585 123.941 59.7508 123.604C58.3555 123.734 56.9602 123.838 55.5585 123.909L55.565 123.915Z" fill="#452315"/>
<path d="M55.2405 122.858L55.5715 123.909C56.9732 123.837 58.3685 123.733 59.7638 123.604C59.5496 123.253 59.2965 122.922 59.0305 122.604C57.7715 122.715 56.506 122.799 55.2405 122.851V122.858Z" fill="#452315"/>
<path d="M39.8144 124.402C33.9866 123.63 28.5807 122.242 24.0703 120.198L23.8497 120.101L23.6939 119.919C21.8378 117.687 20.0921 115.429 18.4372 113.152C17.4897 112.555 16.672 111.802 16.0231 110.875C16.0231 110.875 16.0231 110.881 16.0231 110.887C15.9127 112.672 16.6071 114.339 17.3794 115.883C22.37 125.096 32.7406 129.391 39.8014 131.305C39.7624 131.176 39.717 131.052 39.6781 130.916C39.12 128.743 39.1849 126.511 39.8079 124.409L39.8144 124.402Z" fill="#452315"/>
<path d="M40.6256 122.358C40.7814 122.053 40.9371 121.748 41.1188 121.456C41.3784 121.028 41.6705 120.626 41.9755 120.236C40.8593 119.906 39.73 119.594 38.6008 119.328C34.6875 118.387 30.7937 117.213 27.0232 116.078C25.4008 115.591 23.7783 115.104 22.1494 114.637C23.1229 115.902 24.1093 117.161 25.1477 118.407C29.5282 120.353 34.8563 121.664 40.6256 122.364V122.358Z" fill="#452315"/>
<path d="M23.8561 120.1L24.0768 120.197C28.5807 122.235 33.9866 123.63 39.8208 124.402C39.9247 124.058 40.035 123.72 40.1713 123.39C34.4084 122.656 29.0284 121.3 24.5051 119.25C23.0774 117.531 21.721 115.805 20.4231 114.079C19.7092 113.833 19.0473 113.528 18.4437 113.151C20.0986 115.429 21.8443 117.693 23.7004 119.918L23.8561 120.1Z" fill="#452315"/>
<path d="M40.1648 123.383C40.3011 123.033 40.4569 122.689 40.6256 122.352C34.8562 121.651 29.5282 120.34 25.1476 118.394C24.1158 117.148 23.1228 115.889 22.1494 114.624C21.7405 114.507 21.3382 114.378 20.9293 114.261C20.7476 114.209 20.5918 114.131 20.4166 114.073C21.7146 115.805 23.0709 117.531 24.4987 119.244C29.022 121.287 34.402 122.65 40.1648 123.383Z" fill="#452315"/>
<path d="M44.2793 124.856C43.2799 124.778 42.2869 124.681 41.307 124.571C40.684 126.491 40.5996 128.541 41.1123 130.546C41.2161 130.949 41.3459 131.344 41.4952 131.727C42.9424 132.071 44.1754 132.305 45.1165 132.46C43.6043 130.241 43.2474 127.413 44.2793 124.856Z" fill="#452315"/>
<path d="M46.5767 121.645C46.1678 121.515 45.7525 121.391 45.3501 121.268C44.7466 121.08 44.1366 120.885 43.5265 120.697C43.1112 121.171 42.7218 121.664 42.3843 122.215C42.3194 122.319 42.274 122.43 42.2091 122.533C43.2864 122.644 44.3832 122.728 45.4799 122.793C45.8109 122.371 46.1808 121.988 46.5767 121.645Z" fill="#452315"/>
<path d="M41.6899 123.558C41.5471 123.889 41.4173 124.227 41.307 124.564C42.2934 124.674 43.2799 124.772 44.2793 124.849C44.4221 124.506 44.5843 124.162 44.779 123.824C43.7406 123.753 42.7088 123.662 41.6899 123.552V123.558Z" fill="#452315"/>
<path d="M45.4735 122.793C44.3702 122.728 43.2799 122.643 42.2026 122.533C42.008 122.871 41.8392 123.214 41.6835 123.558C42.7024 123.669 43.7342 123.759 44.7726 123.831C44.8115 123.759 44.844 123.695 44.8829 123.623C45.0646 123.331 45.2658 123.059 45.4735 122.793Z" fill="#452315"/>
<path d="M40.5608 124.493C40.3141 124.46 40.061 124.434 39.8144 124.402C39.1849 126.504 39.1265 128.729 39.6846 130.909C39.7171 131.039 39.769 131.169 39.8079 131.299C40.0935 131.377 40.3726 131.448 40.6451 131.519C39.8923 129.274 39.8404 126.828 40.5608 124.493Z" fill="#452315"/>
<path d="M41.7483 121.833C42.0468 121.346 42.3908 120.892 42.7477 120.464C42.4946 120.386 42.2415 120.308 41.9819 120.23C41.6769 120.619 41.3849 121.022 41.1253 121.45C40.9436 121.748 40.7878 122.047 40.6321 122.352C40.8917 122.384 41.1577 122.41 41.4238 122.442C41.5342 122.241 41.6315 122.034 41.7548 121.833H41.7483Z" fill="#452315"/>
<path d="M40.1649 123.383C40.0351 123.721 39.9183 124.058 39.8145 124.395C40.0611 124.428 40.3077 124.454 40.5608 124.486C40.6646 124.142 40.7879 123.805 40.9307 123.474C40.6776 123.442 40.4245 123.416 40.1714 123.383H40.1649Z" fill="#452315"/>
<path d="M41.4173 122.442C41.1512 122.416 40.8916 122.384 40.6256 122.352C40.4568 122.689 40.3011 123.033 40.1648 123.383C40.4179 123.416 40.671 123.442 40.9241 123.474C41.0669 123.124 41.2291 122.78 41.4108 122.442H41.4173Z" fill="#452315"/>
<path d="M41.3006 124.571C41.054 124.545 40.8009 124.519 40.5608 124.493C39.8404 126.828 39.8923 129.274 40.6451 131.519C40.9372 131.591 41.2162 131.662 41.4888 131.727C41.3395 131.344 41.2097 130.948 41.1059 130.546C40.5932 128.548 40.6776 126.491 41.3006 124.571Z" fill="#452315"/>
<path d="M42.3778 122.216C42.7153 121.664 43.1047 121.171 43.52 120.697C43.2604 120.62 43.0073 120.542 42.7478 120.464C42.3908 120.892 42.0534 121.346 41.7483 121.833C41.625 122.034 41.5277 122.242 41.4174 122.443C41.6769 122.475 41.9365 122.508 42.2026 122.534C42.261 122.43 42.3129 122.319 42.3778 122.216Z" fill="#452315"/>
<path d="M40.9306 123.474C40.7943 123.811 40.671 124.149 40.5607 124.486C40.8073 124.519 41.0539 124.538 41.3005 124.564C41.4108 124.22 41.5406 123.889 41.6834 123.558C41.4303 123.533 41.1772 123.507 40.9241 123.474H40.9306Z" fill="#452315"/>
<path d="M41.4174 122.442C41.2357 122.78 41.0734 123.124 40.9307 123.474C41.1838 123.506 41.4369 123.532 41.69 123.558C41.8457 123.208 42.0144 122.864 42.2091 122.533C41.9431 122.507 41.6835 122.475 41.4239 122.442H41.4174Z" fill="#452315"/>
<path d="M48.1083 126.712C48.3159 126.173 48.5171 125.622 48.7118 125.07C47.2192 125.031 45.7395 124.966 44.2794 124.856C43.2475 127.412 43.6044 130.241 45.1165 132.46C45.7395 132.564 46.2392 132.635 46.5702 132.674C46.6546 130.546 47.3944 128.6 48.1148 126.718L48.1083 126.712Z" fill="#452315"/>
<path d="M49.4191 122.553C49.3737 122.475 49.2958 122.423 49.205 122.404C48.9389 122.345 48.6793 122.287 48.4132 122.215C47.7902 122.027 47.1802 121.839 46.5702 121.645C46.1743 121.988 45.8044 122.371 45.4734 122.793C46.7648 122.871 48.0693 122.923 49.3867 122.942L49.4451 122.76C49.4711 122.67 49.4451 122.592 49.4191 122.546V122.553Z" fill="#452315"/>
<path d="M49.0557 124.019C47.615 123.993 46.1873 123.928 44.7725 123.831C44.5778 124.168 44.4156 124.506 44.2728 124.856C45.733 124.966 47.2127 125.038 48.7053 125.07C48.8286 124.72 48.9454 124.37 49.0493 124.019H49.0557Z" fill="#452315"/>
<path d="M49.3932 122.949C48.0758 122.929 46.7714 122.877 45.4799 122.799C45.2723 123.065 45.0711 123.338 44.8894 123.63C44.8504 123.695 44.818 123.766 44.7791 123.837C46.1938 123.935 47.6215 123.993 49.0623 124.026C49.0623 124.006 49.0752 123.98 49.0817 123.961L49.3932 122.955V122.949Z" fill="#452315"/>
</g>
<defs>
<clipPath id="clip0_109_46003">
<rect width="100" height="139" fill="white"/>
</clipPath>
</defs>
</svg>
