<svg width="108" height="81" viewBox="0 0 108 81" fill="none" xmlns="http://www.w3.org/2000/svg">
<g clip-path="url(#clip0_109_45987)">
<path d="M29.8439 69.9396C29.3748 69.9396 28.9504 69.7437 28.6433 69.4302C27.8558 69.6765 27.0126 69.8108 26.147 69.8108C22.422 69.8108 19.2723 67.3648 18.1945 63.9895L18.0493 63.9391C17.8371 63.8608 16.6699 63.0212 15.0057 61.5435C15.056 67.6558 20.0319 72.6151 26.1414 72.6151C28.5762 72.6151 30.8212 71.8203 32.6586 70.4881L30.8938 69.9452C30.5197 69.9452 30.1734 69.9452 29.8384 69.9452L29.8439 69.9396Z" fill="#D3D2D2"/>
<path d="M27.4928 52.8451C27.6157 52.9626 27.7106 53.097 27.7944 53.2425C29.4028 53.5672 30.8436 54.3508 31.9717 55.4535C32.4631 55.6494 32.9657 55.8173 33.4739 55.9405L36.1992 56.6513C34.4065 52.8899 30.5811 50.2759 26.1525 50.2759C25.8286 50.2759 25.5047 50.2983 25.1864 50.3263C25.756 50.9756 26.3257 51.6249 26.9065 52.2686C27.0907 52.4533 27.2918 52.6548 27.4984 52.8451H27.4928Z" fill="#D3D2D2"/>
<path d="M89.7999 63.9893C88.7276 67.3645 85.5724 69.8106 81.8475 69.8106C81.0935 69.8106 80.3675 69.6986 79.6751 69.5139C79.3791 69.7714 78.9937 69.9337 78.5693 69.9393C78.2342 69.9393 77.888 69.9393 77.5138 69.9393L75.4531 70.5718C77.2625 71.848 79.4684 72.6093 81.8475 72.6093C87.957 72.6093 92.9328 67.65 92.9831 61.5376C91.3189 63.0153 90.1517 63.8549 89.9395 63.9333L89.7943 63.9837L89.7999 63.9893Z" fill="#D3D2D2"/>
<path d="M75.7994 55.6939C76.961 54.4681 78.4856 53.5893 80.2056 53.2423C80.2838 53.0967 80.3843 52.9568 80.5072 52.8449C80.7138 52.6545 80.9149 52.453 81.1103 52.2515C81.6799 51.6246 82.2496 50.9753 82.8192 50.3316C82.5009 50.3036 82.177 50.2812 81.8531 50.2812C77.3742 50.2812 73.5097 52.9512 71.745 56.7798L74.9338 55.9458C75.2298 55.8731 75.5146 55.7891 75.805 55.6939H75.7994Z" fill="#D3D2D2"/>
<path d="M66.4955 61.4425C66.2777 60.9723 66.0431 60.5189 65.7751 60.0823C65.5796 59.7576 65.3674 59.4442 65.144 59.1363C65.0156 58.9572 64.8816 58.7781 64.7419 58.6046C62.2233 55.4476 58.342 53.4214 53.9972 53.4214C49.6524 53.4214 45.8438 55.4085 43.3195 58.515C43.1799 58.6885 43.0403 58.8621 42.9119 59.0468C42.7834 59.2259 42.655 59.405 42.5377 59.5841C41.0857 61.7671 40.2424 64.3923 40.2424 67.2134C40.2424 67.6108 40.2648 67.997 40.2927 68.3888C40.3765 69.4188 40.5775 70.4151 40.8735 71.3667C40.9461 71.6073 41.0299 71.8424 41.1192 72.0719C43.0794 77.2943 48.1055 81.0054 53.9972 81.0054C59.889 81.0054 65.1608 77.104 67.0149 71.6857C67.1656 71.2435 67.2941 70.7901 67.4002 70.3311C67.6292 69.3292 67.7576 68.2881 67.7576 67.2134C67.7576 65.1535 67.3053 63.2 66.4955 61.4481V61.4425Z" fill="#9E5A37"/>
<path d="M88.5322 13.4844C88.5322 12.8183 88.4819 12.169 88.3925 11.5309H98.0929V7.75263H87.2589C85.1088 3.16836 80.4625 -0.00537109 75.0789 -0.00537109C70.6895 -0.00537109 66.7914 2.10485 64.3342 5.36813C57.6607 4.1423 50.8363 4.1423 44.0231 5.36813C41.5659 2.11045 37.6679 0.000226307 33.2728 0.000226307C27.2471 0.000226307 22.1428 3.97438 20.4339 9.44864V7.75263H8.04175V11.5309H19.9648C19.8699 12.169 19.8252 12.8183 19.8252 13.4844C19.8252 20.9345 25.8509 26.9685 33.2784 26.9685C40.7059 26.9685 46.7317 20.9289 46.7317 13.4844C46.7317 11.8723 46.4468 10.3218 45.9275 8.8889C51.4618 8.0213 56.9961 8.01571 62.4299 8.8833C61.9105 10.3218 61.6257 11.8667 61.6257 13.4844C61.6257 20.9345 67.6515 26.9685 75.0789 26.9685C82.5064 26.9685 88.5322 20.9289 88.5322 13.4844Z" fill="#382017"/>
<path d="M38.3828 58.4985L37.573 58.2858L36.7688 58.0731L33.3176 57.172L33.1779 57.1384C32.5357 56.9872 31.8935 56.7689 31.268 56.5059C31.0837 57.2335 30.8101 58.3026 30.704 58.7168C30.2516 60.4688 30.1064 62.3048 30.0171 64.0232C29.9445 65.3833 29.4865 67.8182 29.3916 68.3108C29.4251 68.5347 29.6206 68.7026 29.8495 68.7026C29.9892 68.7026 30.1288 68.7026 30.274 68.7026C30.5029 68.7026 30.7375 68.7026 30.9888 68.7026L31.1675 68.7306L33.7922 69.5366L34.5908 69.7829L35.3559 70.018L38.6341 71.0255C39.8292 71.3949 40.1586 71.2662 40.2424 71.1934C40.3038 71.1431 40.4937 70.8912 40.3485 69.8445C40.3094 69.3351 40.2927 68.8481 40.2871 68.3724C40.2536 67.9861 40.2368 67.5943 40.2368 67.1969C40.2368 64.3758 41.0857 61.7562 42.5321 59.5676L38.3772 58.4817L38.3828 58.4985Z" fill="#382017"/>
<path d="M107.961 29.2242C107.793 27.2539 107.475 25.1996 106.325 23.4868C106.179 25.7762 105.275 27.836 103.622 29.6104C102.013 31.3456 100.399 33.1311 98.8469 34.8663C95.9094 38.1352 92.8714 41.516 89.677 44.6674C88.1748 46.1507 86.7395 47.746 85.3378 49.3244C85.1591 49.5315 84.9748 49.733 84.7961 49.9345C84.6509 50.1025 84.5001 50.2704 84.3549 50.4327C84.3214 50.4719 84.2879 50.5055 84.2544 50.5447C83.5061 51.3955 82.7577 52.2463 82.0038 53.0859C82.0038 53.0859 82.0038 53.0859 82.0038 53.0915C81.7749 53.3266 81.5626 53.5393 81.3448 53.7408C81.2443 53.8359 81.2332 53.9423 81.2332 53.9983C81.2332 54.0542 81.2499 54.1606 81.3448 54.2501L82.3892 55.2129C83.1989 55.9853 84.0869 56.713 84.9469 57.4127C86.7451 58.8792 88.5992 60.3961 89.9227 62.4671C89.9898 62.4111 90.0735 62.3496 90.1573 62.2824C90.7437 61.8122 91.6986 61.0062 92.877 59.9091C93.0836 59.7188 93.2958 59.5173 93.5136 59.3046C93.7147 59.1087 93.9213 58.9128 94.1335 58.7001C99.8186 53.0971 108.642 42.2045 107.961 29.213V29.2242Z" fill="#382017"/>
<path d="M77.7092 58.7168C77.6031 58.3026 77.3295 57.2335 77.1452 56.5059C76.5197 56.7745 75.8775 56.9872 75.2241 57.144L74.5986 57.3063L71.1865 58.1963L70.3879 58.4034L69.5837 58.6161L65.6633 59.6404C65.6633 59.6404 65.6633 59.6628 65.6689 59.6684C65.7024 59.8139 65.7359 59.9483 65.775 60.0826C66.0375 60.5192 66.2776 60.9782 66.4954 61.4428C67.8246 63.7097 68.316 66.3349 68.0647 69.8165C67.9195 70.9024 68.1038 71.1543 68.1652 71.2046C68.249 71.2774 68.5785 71.4061 69.7736 71.0367L72.739 70.1355L73.5097 69.9004L74.3194 69.6542L77.4244 68.7082C77.525 68.7082 77.6199 68.7082 77.7204 68.7082C78.0108 68.7082 78.2956 68.7082 78.5637 68.7082C78.7926 68.7082 78.9881 68.5403 79.0216 68.3164C78.9267 67.8238 78.4688 65.3889 78.3962 64.0288C78.3068 62.3048 78.1616 60.4688 77.7092 58.7224V58.7168Z" fill="#382017"/>
<path d="M26.0129 53.1141C26.0129 53.1141 26.0017 53.0973 25.9906 53.0917C25.2199 52.2409 24.4771 51.3957 23.7344 50.5505C23.7009 50.5113 23.6674 50.4721 23.6339 50.433C23.4887 50.2706 23.3435 50.1027 23.1983 49.9404C23.0196 49.7389 22.8409 49.5318 22.6566 49.3303C21.2604 47.7462 19.8196 46.151 18.3174 44.6732C15.123 41.5219 12.0794 38.1355 9.14192 34.8666C7.58941 33.137 5.98105 31.3458 4.3727 29.6162C2.71966 27.8419 1.81496 25.782 1.66976 23.4927C0.519343 25.1999 0.206607 27.2541 0.0390697 29.2244C-0.647832 42.2104 8.1702 53.0917 13.8665 58.7059C14.0787 58.913 14.2853 59.1145 14.4864 59.3104C14.7042 59.5231 14.9164 59.7191 15.123 59.915C16.2902 61.0009 17.2451 61.8013 17.8427 62.2827C17.9264 62.3498 18.0158 62.417 18.0828 62.473C19.4064 60.4075 21.2604 58.8962 23.0531 57.4297C23.9131 56.73 24.8011 56.0024 25.5996 55.2355L26.6551 54.2616C26.7501 54.172 26.7668 54.0657 26.7668 54.0097C26.7668 53.9537 26.7501 53.8418 26.6551 53.7522C26.4373 53.5451 26.2195 53.338 26.0129 53.1197V53.1141Z" fill="#382017"/>
</g>
<defs>
<clipPath id="clip0_109_45987">
<rect width="108" height="81" fill="white"/>
</clipPath>
</defs>
</svg>
