<svg width="112" height="128" viewBox="0 0 112 128" fill="none" xmlns="http://www.w3.org/2000/svg">
<g clip-path="url(#clip0_109_45943)">
<path d="M90.6466 125.627C90.6039 125.425 90.5559 125.224 90.5025 125.028C89.6704 121.929 89.5904 118.73 88.6515 115.626C87.8034 112.834 87.1472 109.921 86.4751 107.044C86.2511 106.096 85.691 105.069 86.2564 104.057C86.6885 103.289 87.2379 102.59 87.7073 101.843C88.8062 100.089 90.1345 98.4896 91.1267 96.6567C92.4069 94.2942 93.3031 91.794 93.9539 89.2037C94.3486 87.6357 94.9407 86.0995 94.9247 84.4627C94.9194 83.6152 95.2981 83.202 96.0396 83.0537C97.3038 82.8047 98.3067 82.0419 99.2349 81.2845C103.918 77.4758 105.321 71.0292 102.857 65.6791C102.035 63.8887 100.579 62.771 98.7068 62.2148C97.3625 61.8175 96.3277 62.2148 96.2423 63.1682C96.0716 65.0646 95.7942 66.9451 95.5808 68.8362C95.2875 71.4689 95.2981 74.1227 94.8714 76.7395C94.3913 79.6741 94.4286 82.6723 93.8632 85.6016C93.7138 86.3856 93.4684 87.1219 92.823 87.6092C91.404 88.6846 89.633 88.8488 88.0007 89.352C86.7418 89.7387 86.3311 89.405 86.3631 88.1072C86.4378 85.1832 87.0672 82.3121 87.638 79.4728C88.2141 76.6071 88.4381 73.6937 89.0463 70.8385C89.6811 67.835 90.0918 64.7839 90.6039 61.7486C90.8226 60.4561 91.1853 59.1742 91.2227 57.8764C91.2654 56.3455 90.4119 54.9789 89.9211 53.5592C88.1288 48.4104 88.2355 43.3993 90.9346 38.5948C92.6363 35.5649 92.2842 32.5773 91.036 29.5738C90.0705 27.2484 88.1128 26.0406 85.7976 25.3043C83.8293 24.6793 81.6795 24.8011 80.1059 25.8022C77.7321 27.3225 75.449 28.8375 72.6485 29.4679C70.1947 30.0188 67.7035 30.3631 65.2497 30.8822C63.1587 31.3219 61.0623 30.9934 58.9712 31.0676C53.8929 31.2424 48.8093 31.2053 43.8003 30.2889C40.5784 29.6956 37.2497 29.2401 34.7639 26.6922C34.3692 26.2896 33.9211 25.887 33.4303 25.5374C31.8407 24.4091 30.0697 24.9865 28.3787 24.8223C27.2532 24.711 26.2663 25.0077 25.4021 25.6751C24.9434 26.03 24.602 26.5385 24.1699 26.9358C22.7083 28.2601 21.4921 29.8599 20.8359 31.6238C19.6944 34.712 19.4437 37.9433 20.4785 41.2116C20.7719 42.1439 21.0547 43.1398 21.1667 44.1303C21.5828 47.9602 21.268 51.7423 19.7531 55.3126C19.2783 56.4303 19.2303 57.442 19.417 58.5544C19.577 59.5344 19.6731 60.5303 19.8918 61.4996C20.5212 64.3071 20.7346 67.1835 21.4121 69.9857C21.6574 71.0027 21.9188 72.0304 22.1055 73.0686C22.5163 75.394 22.6336 77.8042 23.3271 80.0449C24.1326 82.6564 23.9352 85.4056 24.7994 87.9906C25.1834 89.1401 24.2979 89.7334 23.0924 89.3626C22.703 89.2408 22.2602 89.2672 21.8815 89.1189C20.3932 88.5415 18.4995 88.7534 17.63 86.9418C17.534 86.7458 17.3953 86.2797 17.0326 86.4121C16.6378 86.5551 16.7658 87.0001 16.7978 87.3126C16.9579 89.0183 16.9899 90.7081 17.5553 92.4031C18.8729 96.3548 20.4999 100.068 23.4604 103.13C24.0259 103.713 25.0447 104.343 24.746 105.339C24.1379 107.341 23.8659 109.418 23.2577 111.42C22.9217 112.522 22.3189 113.597 22.4042 114.799C22.4523 115.451 22.3136 116.028 22.0842 116.638L13.5279 128.016C10.9567 125.87 8.33223 123.773 5.99045 121.368C4.32613 119.657 2.64048 117.957 1.29089 115.981C0.437391 114.762 -2.53023e-05 113.486 -2.53023e-05 111.939C-2.53023e-05 107.521 -0.010694 103.103 0.192011 98.6908C0.293364 96.4978 0.245355 94.2836 0.480066 92.1224C1.02417 87.0319 1.13086 81.9201 1.65362 76.8349C1.96302 73.842 2.34709 70.8332 2.48045 67.8456C2.67248 63.6715 3.24859 59.545 3.54198 55.3867C3.67001 53.6122 3.58999 51.8377 3.8087 50.0472C4.56084 43.9502 5.03027 37.8214 5.77707 31.7244C6.37986 26.8193 8.43892 22.4703 11.5168 18.5823C12.4663 17.3798 13.1865 15.9867 14.1733 14.816C16.2057 12.4005 18.6062 10.3611 21.3054 8.70839C23.023 7.65426 24.842 6.79082 26.7677 6.13398C27.5732 5.85853 28.3094 5.40297 29.0935 5.06396C30.5765 4.423 32.0648 3.79794 33.5584 3.18877C35.356 2.45777 37.0417 1.45131 38.9621 1.03284C41.6986 0.434261 44.4138 0.12173 47.2356 0.709712C49.3694 1.15467 51.3484 2.11875 53.5995 2.2035C57.2002 2.34123 60.6035 1.62082 63.9802 0.497827C65.9699 -0.164316 68.0503 -0.0795613 70.1253 0.227673C71.2242 0.391884 72.3018 0.640849 73.39 0.852735C75.4917 1.25532 77.1187 2.5743 78.9697 3.46422C81.9782 4.90504 84.7254 6.80142 87.5953 8.46472C89.9904 9.85257 92.5136 11.0815 94.7487 12.766C95.5115 13.3434 96.4984 13.6347 97.3839 14.0638C100.51 15.5894 102.457 18.026 103.886 21.1673C104.884 23.355 104.82 25.5798 105.097 27.794C105.599 31.8251 105.887 35.8827 106.282 39.9244C106.799 45.2321 107.252 50.5505 107.877 55.8423C108.239 58.904 108.463 61.9764 108.842 65.0328C109.151 67.5172 109.173 70.0333 109.573 72.4806C109.962 74.8484 109.957 77.2374 110.368 79.5735C110.922 82.7041 110.949 85.8665 111.2 89.013C111.643 94.5803 112.16 100.153 111.941 105.747C111.829 108.57 111.045 111.16 109.071 113.316C105.337 117.4 101.902 121.749 97.8693 125.574C97.4265 125.992 97.0478 126.575 96.6157 127.062M7.132 71.2729C7.18001 74.8749 7.53208 76.2946 8.871 78.7048C10.3539 81.3692 12.3383 83.5622 15.5336 84.2615C16.8619 84.5528 16.9152 84.5263 16.7605 83.1385C16.4778 80.5587 15.9817 78.0108 15.7576 75.4205C15.4322 71.6649 14.9041 67.9304 14.4881 64.18C14.4081 63.4808 14.1307 63.2636 13.4105 63.2636C11.2181 63.2689 9.79384 64.5455 8.60428 66.1188C7.32404 67.8085 7.07332 69.8215 7.12667 71.2729H7.132Z" fill="#382017"/>
<path d="M14.2427 82.0051C14.2427 81.4229 13.7674 80.9509 13.1812 80.9509C12.5949 80.9509 12.1196 81.4229 12.1196 82.0051V85.6813C12.1196 86.2634 12.5949 86.7354 13.1812 86.7354C13.7674 86.7354 14.2427 86.2634 14.2427 85.6813V82.0051Z" fill="#D3D2D2"/>
</g>
<defs>
<clipPath id="clip0_109_45943">
<rect width="112" height="128" fill="white"/>
</clipPath>
</defs>
</svg>
