<svg width="116" height="141" viewBox="0 0 116 141" fill="none" xmlns="http://www.w3.org/2000/svg">
<g clip-path="url(#clip0_109_45976)">
<path d="M94.2607 134.727C92.6651 134.518 91.2515 135.289 89.7415 135.556C87.4445 135.963 85.1902 136.573 82.8503 136.787C81.3403 136.926 79.8518 137.221 78.1704 137.066C81.2225 133.983 83.707 130.621 85.7524 126.74C85.1688 126.74 84.6494 126.735 84.13 126.74C83.8409 126.74 83.5785 126.73 83.5089 126.371C83.0805 124.219 82.6575 122.067 82.2238 119.916C81.9454 118.529 81.6777 117.138 81.3724 115.757C81.2761 115.312 81.2868 114.965 81.6187 114.601C83.9426 112.053 85.8327 109.189 87.498 106.186C88.8527 103.745 89.9718 101.187 90.9677 98.5693C91.8191 96.3319 92.5634 94.057 93.1416 91.7393C93.811 89.0415 94.4214 86.3277 94.8176 83.5711C95.0853 81.6977 95.4548 79.8403 95.7011 77.9615C95.8885 76.5377 95.9635 75.1032 96.0813 73.6687C96.2258 71.913 96.258 70.1466 96.6328 68.4123C96.6596 68.2946 96.6328 68.1715 96.6435 68.0484C96.7345 64.9331 96.8041 61.8232 96.9273 58.708C96.9487 58.1192 96.7774 57.9586 96.2365 57.9693C94.839 57.9907 93.4415 58.071 92.0493 57.9693C88.7617 57.7231 85.4686 57.7338 82.181 57.5678C81.1529 57.5143 80.1195 57.5678 79.0861 57.5785C79.0432 57.4929 79.0004 57.509 78.9469 57.5732C78.39 57.4661 78.5988 57.0326 78.5774 56.7007C78.4382 54.2492 78.315 51.7977 78.0794 49.3461C77.9509 48.008 77.8652 46.6484 77.8117 45.2942C77.726 43.1478 77.7314 40.9853 77.3137 38.8549C77.287 38.7104 77.2977 38.5498 77.2977 38.3999C77.2977 36.0126 77.2173 33.6254 76.8961 31.2702C76.6765 29.6697 77.0085 28.0265 76.4142 26.5009C76.3339 29.6804 76.2482 32.8974 76.1679 36.109C76.0715 40.0164 75.9912 43.9239 75.8948 47.8313C75.8359 50.0848 75.8412 52.3436 75.6645 54.5864C75.5574 55.9674 75.4343 57.327 75.6378 58.7026C75.7181 59.2379 75.5146 59.4627 74.9363 59.452C73.089 59.4199 71.2364 59.5483 69.3998 59.6821C66.412 59.9016 63.4081 59.9444 60.431 60.3352C59.3065 60.485 58.15 60.4208 57.0094 60.5439C54.7445 60.7794 52.4742 60.94 50.2039 61.0899C46.5146 61.3308 42.82 61.3361 39.1254 61.3308C38.8041 61.3308 38.6542 61.2558 38.6167 60.8811C38.5739 60.469 38.4507 60.0729 38.44 59.6447C38.3651 57.3377 38.2473 55.0414 37.9367 52.7504C37.7225 51.1821 37.6904 49.587 37.6529 48.0026C37.594 45.61 37.0478 43.2548 37.1764 40.8193C36.7373 41.0923 36.6356 41.4456 36.6195 41.9006C36.5927 42.8908 36.5338 43.8864 36.5017 44.8713C36.4267 47.3978 36.0251 49.8921 35.9127 52.4132C35.8217 54.4579 35.7467 56.4973 35.5486 58.5313C35.5111 58.9381 35.4361 59.0559 34.9971 59.1094C32.3734 59.4359 29.7497 59.7624 27.142 60.2014C26.055 60.3833 24.9841 60.3994 23.9025 60.4422C23.3242 60.4636 23.094 60.2281 23.1101 59.634C23.2493 55.4964 23.3189 51.3534 23.5277 47.2158C23.5813 46.1024 23.6295 44.9837 23.6776 43.865C23.8329 40.1717 23.9829 36.4783 24.1328 32.7689C23.8972 32.9509 23.7901 33.1918 23.7847 33.4648C23.7044 35.7504 23.335 38.0038 23.2761 40.3001C23.2172 42.5322 22.9869 44.7696 22.6228 46.9803C22.4943 47.7778 22.5157 48.6021 22.4675 49.405C22.3497 51.4444 22.0017 53.4623 22.0231 55.5178C22.0338 56.3528 21.8518 57.1824 21.8357 58.0282C21.825 58.8097 21.161 58.6919 20.6202 58.7401C20.1437 58.7829 19.5547 58.2958 19.2655 58.7401C19.121 58.9649 19.3298 59.5804 19.3405 60.0247C19.3887 62.4227 19.3673 64.8261 19.5118 67.2133C19.6671 69.8094 20.1008 72.3894 20.1812 74.9854C20.2561 77.3941 20.7594 79.7332 20.9897 82.1152C21.1824 84.1117 21.6108 86.1029 22.0766 88.062C22.671 90.551 23.2386 93.0507 24.0578 95.4861C25.1983 98.869 26.5691 102.145 28.1968 105.33C30.0816 109.028 32.534 112.294 35.2809 115.366C35.6878 115.821 35.6182 116.345 35.5057 116.827C34.7561 120.023 34.3599 123.283 33.5567 126.467C33.4014 127.072 34.044 127.409 34.3492 127.795C36.1322 130.005 38.108 132.05 40.2017 133.961C41.1815 134.85 42.3006 135.594 43.4036 136.338C45.5936 137.81 47.8693 139.137 50.3591 140.052C50.991 140.283 51.6389 140.481 52.2814 140.796C51.6121 141.037 50.8892 141.043 50.2306 140.914C47.9175 140.465 45.5508 140.422 43.2323 139.924C41.6795 139.592 40.0357 139.432 38.4989 139.046C36.3518 138.506 34.1939 137.933 32.0682 137.264C29.4712 136.445 26.9385 135.471 24.3898 134.523C24.0632 134.4 23.7473 134.416 23.426 134.347C23.3831 133.79 22.8691 133.736 22.5211 133.565C19.9402 132.296 17.4289 130.894 15.0622 129.272C12.053 127.206 9.3597 124.781 7.05191 121.907C4.71199 118.995 2.87539 115.821 1.65457 112.31C1.14053 110.827 1.06557 109.216 0.942417 107.653C0.283813 99.2384 -0.123129 90.8133 -0.0106845 82.3668C0.0428606 78.5128 0.187432 74.6589 0.497994 70.8157C0.760364 67.5238 0.96919 64.2319 1.39755 60.9507C1.82056 57.6802 2.25963 54.4205 2.89146 51.1821C3.957 45.7224 5.30098 40.3429 7.23932 35.1295C7.85508 33.4755 8.37447 31.8054 8.9474 30.1461C9.26332 29.2255 9.86838 28.3155 10.4306 27.4805C11.5497 25.8158 12.2511 23.9424 13.3167 22.2402C16.267 17.5192 19.7849 13.3173 24.1756 9.87556C27.067 7.61138 30.178 5.67907 33.5514 4.2392C36.4963 2.98133 39.5109 1.90009 42.6861 1.28988C45.7596 0.70109 48.8438 0.353166 51.9709 0.165823C55.2532 -0.0322258 58.5248 -0.0589891 61.7964 0.0534169C66.005 0.192586 70.2244 0.433456 74.3366 1.50399C77.2388 2.25872 80.1356 2.99738 82.7753 4.52825C84.3121 5.42214 86.0202 6.00023 87.5837 6.88342C89.6398 8.0396 91.3425 9.64005 93.1738 11.0746C94.9193 12.4395 96.4614 14.0078 97.8697 15.7314C100.103 18.4559 102.153 21.2767 103.824 24.392C104.868 26.3404 105.73 28.3797 106.78 30.3228C108.257 33.0687 108.862 36.1143 109.949 38.9941C111.438 42.9283 112.236 47.0284 113.039 51.1286C113.933 55.6837 114.506 60.287 114.988 64.901C115.957 74.1611 116.155 83.4533 115.823 92.7402C115.636 98.0072 115.518 103.296 114.865 108.541C114.661 110.169 114.619 111.812 114.388 113.434C114.014 116.056 113.087 118.481 111.861 120.842C110.629 123.218 109.146 125.391 107.149 127.115C105.055 128.924 102.823 130.562 100.258 131.772C98.448 132.628 96.6274 133.442 94.7641 134.159C94.4803 134.266 94.3196 134.459 94.2233 134.727H94.2607Z" fill="#382017"/>
<path d="M50.1182 87.1895C49.7648 91.311 49.9951 95.4861 50.7929 99.5488C50.9642 100.421 51.2908 101.438 52.1422 101.701C52.8383 101.915 53.604 101.476 54.0002 100.86C54.3965 100.245 54.4982 99.4953 54.5732 98.7673C54.8677 96.0428 54.9426 93.2915 54.798 90.5563C54.7766 90.1281 54.7713 89.641 55.0872 89.352C55.6815 88.806 56.565 89.5125 57.3361 89.7374C58.2356 89.9996 59.2209 89.5125 59.8099 88.7846C60.3989 88.0566 60.6612 87.1253 60.8808 86.2153C60.9504 85.9156 61.0146 85.5944 60.8968 85.3107C60.7469 84.9574 60.3614 84.7808 60.0026 84.6363C58.5997 84.0582 57.0844 83.464 55.6012 83.7852C54.0109 84.1278 52.6241 85.4873 51.0124 85.2679L50.1182 87.1895Z" fill="#9E5A37"/>
</g>
<defs>
<clipPath id="clip0_109_45976">
<rect width="116" height="141" fill="white"/>
</clipPath>
</defs>
</svg>
