<svg width="127" height="120" viewBox="0 0 127 120" fill="none" xmlns="http://www.w3.org/2000/svg">
<g clip-path="url(#clip0_109_45999)">
<path d="M117.155 85.3938C116.868 85.5251 116.57 85.6393 116.295 85.782C112.359 87.8546 110.11 95.5627 105.498 92.6279C101.178 89.8758 102.589 82.242 104.327 77.9598C108.125 68.5788 107.907 60.0143 103.45 51.3128C102.411 49.2858 101.333 47.2703 102.021 45.1406C106.043 32.6764 94.6892 30.2727 88.5276 24.4888C88.1146 24.1005 87.4146 24.0035 86.8524 23.7751C83.2209 35.6512 73.8696 22.3134 68.7407 27.8232C68.1555 28.4513 66.5664 29.1993 66.3885 29.0051C59.3435 21.5198 54.4384 30.9007 48.426 31.3175C46.55 31.4489 44.9149 34.2923 42.7062 31.8086C40.0328 28.8053 43.8364 28.3542 44.76 26.8355C45.6493 25.3681 48.1334 24.2604 45.8443 22.3191C44.1978 20.9202 43.1422 22.7473 41.9432 23.6495C36.2635 27.9317 33.5442 36.9187 23.0742 33.7327C20.5671 32.9676 16.7004 39.1055 16.8381 43.0909C17.3027 56.4572 14.658 69.9206 18.2666 83.2241C19.087 86.2502 20.1827 90.2241 17.3372 92.9134C15.9603 94.2152 13.6598 93.0561 12.2026 91.76C9.20784 89.0993 5.80006 86.5014 8.9382 81.7738C9.2021 81.3742 8.84641 80.5577 8.77757 79.941C10.3725 70.9198 5.78859 63.4116 2.23165 55.8748C0.556442 52.3177 -0.780279 49.7826 0.539231 45.5689C2.54144 39.1969 5.24357 33.1104 6.09839 26.1617C7.09089 18.0882 21.3818 9.15262 30.6642 8.94137C37.0208 8.79291 42.8209 5.7097 48.5579 4.79044C61.6211 2.69499 75.4874 -1.17045 87.8507 0.359741C97.3913 1.54164 109.405 10.3231 115.583 18.0083C124.235 28.7653 133.655 43.3992 120.42 59.3577C116.782 63.7427 117.666 71.2738 112.411 76.3554C109.307 79.3587 115.761 82.1221 117.155 85.3995V85.3938Z" fill="#452315"/>
<path d="M106.846 120C104.924 113.154 104.712 106.771 111.671 102.334C117.907 109.374 115.893 116.751 106.846 120Z" fill="#452315"/>
<path d="M9.27097 102.974C22.6554 101.86 14.5777 113.491 18.3297 118.093C6.9188 118.036 9.62666 109.597 9.27097 102.974Z" fill="#452315"/>
</g>
<defs>
<clipPath id="clip0_109_45999">
<rect width="127" height="120" fill="white"/>
</clipPath>
</defs>
</svg>
