<svg width="113" height="89" viewBox="0 0 113 89" fill="none" xmlns="http://www.w3.org/2000/svg">
<g clip-path="url(#clip0_109_45980)">
<path d="M108.591 44.461C105.671 31.8071 99.8762 20.6934 87.8105 14.3307C82.7282 11.6531 77.1886 9.69029 72.6681 6.12873C67.7034 2.20972 61.6542 2.58017 56.3237 2.64516L56.5 0.0194889C66.6712 -0.168988 76.6334 1.92375 86.2362 6.33671C101.542 13.3623 107.885 27.94 111.628 43.4406C113.856 52.663 112.706 62.1388 112.693 71.5107L108.591 44.4675V44.461Z" fill="#3C281B"/>
<path d="M4.40949 44.461C7.32953 31.8071 13.1239 20.6934 25.1895 14.3307C30.2718 11.6531 35.8114 9.69029 40.332 6.12873C45.2967 2.20972 51.3458 2.58017 56.6764 2.64516L56.5 0.0194889C46.3288 -0.168988 36.3667 1.92375 26.7639 6.33671C11.4581 13.3493 5.115 27.9335 1.37185 43.4341C-0.855748 52.6565 0.293981 62.1323 0.307046 71.5042L4.40949 44.461Z" fill="#3C281B"/>
<path d="M55.9644 16.2933C51.4177 16.2673 46.7535 15.065 41.632 12.1338C47.0344 10.2686 51.7835 8.79974 56.3563 8.89073H56.6372C61.21 8.79974 65.9592 10.2686 71.3616 12.1338C66.2466 15.0585 61.5758 16.2673 57.0292 16.2933H55.9578H55.9644Z" fill="#3C281B"/>
<path d="M71.8181 61.4325C70.8839 61.465 69.9236 61.4975 69.0679 61.868C67.1277 62.6999 66.2523 64.9681 66.0498 67.0543C65.8147 69.511 66.383 72.2667 68.3754 73.742C69.4467 74.5349 70.7925 74.8599 71.9618 75.4968C73.314 76.2312 74.4246 77.3946 75.0974 78.7724C75.6657 79.9422 75.9466 81.3006 76.8416 82.2429C78.0175 83.4843 79.9119 83.6728 81.6234 83.7508C84.7068 83.8872 87.7967 83.9132 90.8866 83.8288C91.7097 83.8093 92.5524 83.7703 93.2905 83.4128C95.5116 82.3339 95.5378 79.1948 97.001 77.2126C98.595 75.0613 101.881 74.3399 102.835 71.8377C103.619 69.784 102.312 67.4053 100.437 66.2419C98.5623 65.0786 96.2694 64.8381 94.0679 64.6431C91.8665 64.4481 89.5801 64.2597 87.6595 63.1678C86.6404 62.5894 85.7716 61.7575 84.7264 61.231C79.0888 58.3974 75.0451 61.3285 71.8115 61.4325H71.8181Z" fill="#8EC9FF"/>
<path d="M55.2653 83.4886C56.3301 83.5471 57.395 83.8005 58.3944 84.262L68.6832 88.9999V83.5471L58.7211 79.0756C57.5321 78.5427 56.2714 78.2827 55.0106 78.2827C53.7498 78.2827 52.489 78.5427 51.3001 79.0756L41.338 83.5471V88.9999L51.6267 84.262C52.6327 83.8005 53.691 83.5471 54.7558 83.4886H55.2523H55.2653Z" fill="#D3D2D2"/>
</g>
<defs>
<clipPath id="clip0_109_45980">
<rect width="113" height="89" fill="white"/>
</clipPath>
</defs>
</svg>
