<svg width="132" height="155" viewBox="0 0 132 155" fill="none" xmlns="http://www.w3.org/2000/svg">
<g clip-path="url(#clip0_109_45860)">
<path d="M100.872 126.989C98.4867 127.58 97.3336 125.744 96.1749 124.336C94.9487 122.843 94.1106 121.035 93.1375 119.34C92.4906 118.213 93.1093 117.126 93.9362 116.709C98.3911 114.462 99.3305 110.063 100.163 105.928C100.444 104.537 100.304 102.588 100.112 100.904C99.5555 95.9978 100.523 91.317 101.687 86.5518C102.345 83.8537 102.998 80.8008 101.659 77.9225C100.489 75.4216 100.32 72.7236 100.45 69.6537C98.0705 71.1239 95.888 71.9462 93.4299 70.7183C92.5862 70.2959 92.3106 71.1689 92.0012 71.7547C90.3081 74.9879 88.7894 75.8441 85.3582 75.033C84.1151 74.7401 83.4401 74.8133 82.5964 75.8328C80.9651 77.793 78.7602 78.2492 76.4258 77.2748C75.2221 76.7734 74.3783 76.5763 73.2702 77.5902C71.3296 79.3588 68.9784 78.6491 66.7734 78.1253C65.6035 77.8493 64.5516 77.7197 63.331 78.069C61.7391 78.5252 60.0798 78.2943 58.9042 76.9481C58.0492 75.968 57.3123 75.7765 56.1198 76.4411C53.6786 77.8042 51.5355 77.0776 49.8874 74.9823C49.1224 74.0134 48.6331 73.8163 47.48 74.5091C44.0431 76.5707 41.3094 75.8497 39.2113 72.3631C38.6263 71.3886 38.1032 71.1689 37.237 71.7266C35.6789 72.7292 34.1658 72.87 32.4896 71.9237C31.2071 71.1971 30.7683 72.0251 30.8921 73.1742C31.2296 76.1933 29.8683 79.1617 31.089 82.316C31.6233 83.696 30.5208 85.69 30.5658 87.5769C30.6165 89.6328 30.954 91.6888 31.1452 93.6827C31.3871 96.1217 31.8089 98.6057 31.8314 101.05C31.8652 104.954 32.6246 108.694 34.222 112.147C35.0826 114.005 36.7026 115.707 38.362 116.963C41.1913 119.109 41.5288 119.621 39.5995 122.466C39.1157 123.175 38.677 123.62 38.8626 124.617C39.0482 125.631 38.2101 126.51 37.2201 126.454C35.7633 126.375 35.1051 127.237 34.3852 128.166C33.7327 128.115 33.0858 128.065 32.4389 128.014L32.4783 128.048C32.3096 127.851 32.1352 127.653 31.9664 127.456C31.9664 127.456 32.0227 127.524 32.0227 127.518C31.6571 126.842 31.2971 126.161 30.9315 125.485L30.9483 125.507C29.9527 123.609 28.9627 121.717 27.9671 119.818L27.9896 119.852C27.7871 119.683 27.5903 119.509 27.3878 119.34L27.4496 119.39C27.4046 118.252 27.2921 117.137 26.4259 116.27V116.304C26.1953 115.842 25.7509 115.853 25.3347 115.802L25.3797 115.83C25.2222 115.346 24.564 115.104 24.7272 114.462C25.0984 111.088 24.8453 107.731 24.2997 104.402C24.1591 103.562 23.9284 102.785 24.3165 101.968C24.9297 100.667 24.9353 99.4055 24.1703 98.1269C23.6247 97.2144 23.6528 96.1217 23.9284 95.1754C24.2828 93.9644 24.2941 92.8998 23.5909 91.824C22.9609 92.1788 22.6572 92.9223 21.701 92.8773C18.3598 92.7308 16.8242 94.201 16.6779 97.4735C16.6554 98.0481 16.7792 98.6677 16.211 99.0901C14.9567 98.7015 14.2873 97.5017 13.1792 96.9046C13.1961 96.5385 13.2467 96.1555 12.7798 96.009C12.898 93.7391 10.9461 93.9644 9.64676 93.4011L9.66363 93.4349C9.50051 93.0181 9.25864 92.7196 8.74677 92.7871L8.71865 92.8547C8.78052 92.4379 8.61177 92.2633 8.1899 92.3478L8.28553 92.3027C8.35865 91.7845 8.08303 91.5254 7.61616 91.4128L7.61054 91.4522C7.42491 89.937 6.85117 88.4669 7.09867 86.901L7.08742 86.9292C7.36304 86.2251 9.42739 85.5492 7.12117 84.8L7.08742 84.8282C6.57555 83.9889 5.93431 83.2792 5.05682 82.806V82.8117C5.03995 81.5049 4.13996 80.2488 4.58433 78.9533C5.28745 76.8974 4.04434 76.4636 2.51436 76.1538L2.54248 76.2158C2.37374 75.9961 2.20499 75.7765 2.04187 75.5568C1.16438 73.3995 0.568137 71.3548 1.79437 68.9891C2.41311 67.8006 0.382515 67.181 0.0168949 66.0207C-0.0956035 63.9422 0.202517 61.9877 1.665 60.3655C1.96312 60.0388 2.08687 59.605 1.77187 59.2164C0.455639 57.5829 1.05751 55.6791 1.00688 53.871L0.978756 53.9048C3.60559 52.0798 2.8181 49.2747 3.03185 46.7513L3.00935 46.7851C3.71809 46.5034 3.93746 45.8895 4.08934 45.2248C4.28058 44.8869 4.47746 44.5489 4.6687 44.2109C5.25932 43.7378 5.0962 43.2252 4.74183 42.707C4.74745 42.3578 4.7587 42.0086 4.76433 41.665C5.10182 41.2707 5.1187 40.9215 4.62933 40.6342C5.1412 38.0939 6.16493 35.8915 8.61177 34.641C9.48926 34.5002 9.78738 34.1454 9.61863 33.1371C9.42176 31.9486 9.60176 30.6925 9.61863 29.4646L9.60176 29.4984C10.1249 29.3407 10.1361 28.8957 10.1699 28.4676L10.1305 28.5127C10.468 27.9888 10.8111 27.465 11.1486 26.9412L11.1261 26.9637C12.6392 25.916 14.0792 24.5754 16.0985 24.8345C17.7298 25.0486 18.4104 24.2375 18.7591 22.8575L18.731 22.8913C19.6085 22.7842 19.811 22.0351 20.1372 21.4042C20.1372 20.6833 20.1372 19.9623 20.1372 19.2413C20.4016 18.6104 20.666 17.9796 20.9303 17.3487L20.891 17.4276C21.8528 16.5376 22.8147 15.6476 23.7766 14.7577C25.1322 14.3465 27.039 14.8985 27.3709 12.7018C27.5396 12.5328 27.714 12.3638 27.8827 12.1948L27.8659 12.2173C28.6365 11.5921 29.3902 10.4487 30.1777 10.4262C33.0746 10.3473 35.3976 8.62933 37.9064 8.00973C40.6288 7.33381 40.6682 5.62711 41.5963 4.07249L41.5682 4.09502C41.7482 3.91478 41.9282 3.74016 42.1025 3.55992L42.0688 3.58808C42.4119 3.4022 42.7494 3.22196 43.0925 3.03608L43.0757 3.04734C43.2613 2.87836 43.4469 2.70938 43.6381 2.5404L43.5988 2.57983C45.4719 2.54604 47.3731 2.2475 49.1731 3.07551L49.1449 3.05298C49.6737 3.68947 50.2024 3.94857 50.7368 3.06424L50.7087 3.08114C50.8943 2.9009 51.0743 2.72628 51.2599 2.54604C51.2599 2.54604 51.2093 2.57983 51.2149 2.57983C51.3837 2.41085 51.558 2.2475 51.7268 2.07852C52.2218 2.03346 52.7224 1.99403 53.2174 1.94897C54.7136 1.01958 56.0355 2.05599 57.3911 2.38832C58.3136 2.61363 58.8367 2.62489 58.8648 1.53215L58.8254 1.55469C59.0167 1.37444 59.2079 1.19419 59.3992 1.01395C61.3735 -0.236506 63.4547 -0.349159 65.4347 0.822438C66.6722 1.55469 67.5609 1.38571 68.4834 0.461946C72.4377 0.495742 76.1277 2.42212 80.1326 2.07289L80.0876 2.04473C80.937 3.22759 81.7751 4.56817 82.8551 2.22497L82.8045 2.21371C83.2545 2.19118 83.5751 1.97714 83.7551 1.56032L83.7157 1.59975C84.1488 1.57158 84.5819 1.54905 84.7338 1.02521L84.7057 1.04211C86.6913 0.653457 88.4575 1.35754 90.2125 2.14048L90.1844 2.10106C90.4375 2.87273 91.3825 3.34024 91.2531 4.26964C91 6.08336 91.8043 6.78744 93.5649 6.77618C94.0993 6.77618 94.6393 7.14793 95.1793 7.34508L95.168 7.27748C95.6968 8.11675 96.3155 8.91096 96.7149 9.80656C96.9961 10.4374 97.2774 10.8655 97.9636 10.6571C99.7467 10.1164 101.603 10.6458 103.437 9.96427C106.62 8.78141 109.185 10.2515 110.091 13.5523C110.355 14.5098 110.839 14.8591 111.655 14.7183C113.027 14.4817 114.045 15.2252 115.142 15.7828L115.125 15.7659C115.851 16.9995 116.267 18.2612 116.228 19.7651C116.149 22.6772 118.393 24.7951 121.273 24.7951C121.774 24.7951 122.269 24.8965 122.77 24.9472L122.725 24.919C122.983 25.3302 123.208 25.7865 123.782 25.8372C124.879 26.1244 125.149 27.0425 125.402 27.9719C125.756 29.6448 126.189 31.3177 125.543 33.0244C125.076 34.2524 126.049 34.3707 126.814 34.6354L126.752 34.6016C127.106 34.9396 127.466 35.2775 127.821 35.6155L127.798 35.6042C128.068 36.7251 128.659 37.6714 129.384 38.5501C129.407 39.9695 130.335 41.3833 129.159 42.8084C128.558 43.535 129.3 44.363 129.829 44.6334C131.207 45.3318 131.584 46.5654 131.989 47.8384C131.893 50.1253 131.336 52.1643 129.666 53.9217C127.967 55.7072 127.978 57.9152 129.345 59.498L129.323 59.4642C129.356 60.7203 129.384 61.982 129.418 63.2381C129.463 64.9336 128.265 66.5107 129.249 68.347C130.144 70.0086 130.037 71.8843 129.294 73.6642L129.323 73.6304C128.664 74.588 126.769 74.8921 127.416 76.4918C128.231 78.5083 127.686 80.3727 127.303 82.2991C126.893 82.4962 126.471 82.6821 126.713 83.2736H126.769C126.285 83.1271 126.049 83.2398 126.24 83.7918L126.105 83.7016C125.02 84.2536 123.546 84.9859 123.923 86.2082C124.761 88.9288 124.378 91.1142 122.185 92.8829C121.549 93.3955 121.656 94.0939 121.476 94.6516C120.773 96.8539 119.884 98.9324 118.495 100.786C118.495 100.786 118.444 100.876 118.45 100.876C117.983 100.831 117.634 100.955 117.589 101.501C117.589 101.501 117.46 101.428 117.46 101.433C116.863 101.484 116.267 101.529 115.671 101.574C115.716 100.56 115.637 99.5295 115.823 98.5437C116.391 95.5134 115.553 92.7646 114.495 89.9764C113.663 87.7853 111.52 88.1402 110.074 87.791C109.05 87.5431 108.572 89.7061 108.465 91.0523C108.398 91.8915 108.516 92.7421 108.493 93.587C108.437 95.7725 108.482 97.941 108.184 100.143C107.582 104.627 106.896 109.156 107.982 113.684C106.862 115.064 107.115 116.76 106.913 118.348L106.947 118.314C106.457 118.534 106.058 118.833 105.94 119.402L105.968 119.379C104.309 120.139 104.607 122.015 103.774 123.249L103.701 123.294C101.839 123.829 102.857 126.594 100.838 127.006L100.872 126.989Z" fill="#382017"/>
<path d="M49.7299 145.368C50.3655 140.406 48.8524 135.511 49.2237 130.566C49.7468 123.564 54.3761 119.328 61.8572 118.748C64.7147 118.529 67.5722 118.63 70.4128 118.382C73.0115 118.157 75.6102 118.59 78.1414 118.827C84.1657 119.385 89.02 126.302 88.2606 132.312C87.8781 135.32 88.3337 138.316 88.5475 141.313C88.7444 144.061 89.5206 146.827 88.975 149.553C87.9962 154.442 87.04 155.085 82.1576 154.989C81.5951 154.268 80.7739 154.42 80.0764 154.51C78.057 154.769 77.3258 153.907 77.5901 151.97C77.6576 151.48 77.607 150.973 77.607 150.471C80.7007 147.334 80.9651 143.464 80.7007 139.353C80.6107 137.956 79.227 136.767 79.812 135.522C80.9314 133.14 79.0526 131.348 78.7433 129.298C78.5745 128.189 77.562 126.217 76.0714 125.631C72.9833 124.409 69.9684 123.175 66.3909 123.395C60.9629 123.733 57.2786 127.715 56.5586 131.968C55.518 138.085 55.5967 144.58 60.8729 149.441C61.801 152.916 61.7729 152.95 58.2517 152.978C57.5823 152.978 56.9186 153.023 56.2492 153.046C54.2355 153.136 52.2555 153.147 51.2036 150.933C50.7143 149.08 50.2249 147.227 49.7355 145.374L49.7299 145.368Z" fill="#382017"/>
</g>
<defs>
<clipPath id="clip0_109_45860">
<rect width="132" height="155" fill="white"/>
</clipPath>
</defs>
</svg>
