<svg width="63" height="32" viewBox="0 0 63 32" fill="none" xmlns="http://www.w3.org/2000/svg">
<path d="M53.9961 31.616H49.2317L40.4641 6.55682H44.7508L50.0534 22.859C50.2502 23.488 50.77 25.3097 51.5916 28.3376L52.3713 25.6228L53.2375 22.8835L58.7343 6.53504H63L53.9961 31.616ZM39.968 31.4363C38.6427 31.8151 37.2739 32.0048 35.8992 31.9999C32.6704 31.9999 31.0691 30.1129 31.0691 26.3171V9.59017H28.2787V6.55682H31.2214V2.60585L35.0959 0.966641V6.58133H39.5769V9.61195H35.1222V25.4186C35.1222 26.633 35.3164 27.4608 35.6839 27.9564C36.0514 28.4519 36.7235 28.6752 37.6527 28.6752C38.1961 28.6752 38.9521 28.5636 39.9706 28.3621L39.968 31.4363ZM20.8315 16.8876C20.8761 21.6909 24.9003 23.3083 24.9449 23.3301C24.9003 23.4445 24.2939 25.6228 22.8239 27.8447C21.5455 29.778 20.2251 31.7058 18.1251 31.7521C16.0697 31.7957 15.4213 30.4941 13.0588 30.4941C10.7225 30.4941 9.98752 31.7058 8.03713 31.7957C6.04736 31.8638 4.50909 29.6854 3.21232 27.7549C0.592543 23.8039 -1.42085 16.5963 1.28555 11.744C2.62432 9.3206 5.02884 7.79304 7.62762 7.76853C9.5964 7.72496 11.4812 9.16267 12.6939 9.16267C13.9041 9.16267 16.1773 7.45539 18.5582 7.70318C19.5558 7.74675 22.3698 8.13068 24.1653 10.8454C24.0131 10.9353 20.8105 12.8686 20.8315 16.8876ZM16.978 5.07555C18.0385 3.7277 18.7761 1.86249 18.5792 0C17.0436 0.0680733 15.1825 1.0565 14.0563 2.40435C13.0588 3.59427 12.1925 5.50305 12.4314 7.32197C14.1429 7.45811 15.9175 6.40162 16.978 5.07555Z" fill="black"/>
</svg>
