<svg width="24" height="24" viewBox="0 0 24 24" fill="none" xmlns="http://www.w3.org/2000/svg">
<path d="M19 21L19 3.00001C18.9994 2.81776 18.9492 2.63913 18.8546 2.48333C18.7601 2.32753 18.6248 2.20046 18.4634 2.11581C18.3021 2.03116 18.1206 1.99212 17.9387 2.0029C17.7568 2.01369 17.5813 2.07388 17.431 2.17701L4.431 11.177C3.892 11.55 3.892 12.448 4.431 12.822L17.431 21.822C17.5809 21.9262 17.7566 21.9873 17.9388 21.9986C18.121 22.01 18.3029 21.9712 18.4646 21.8865C18.6263 21.8018 18.7618 21.6743 18.8561 21.518C18.9505 21.3618 19.0003 21.1826 19 21Z" fill="black"/>
</svg>
