<svg width="86" height="78" viewBox="0 0 86 78" fill="none" xmlns="http://www.w3.org/2000/svg">
<path d="M33.348 60.7695C37.6115 62.975 38.924 68.44 36.3383 72.9966C33.6852 77.6732 28.1401 78.9845 23.7754 75.9677C25.5488 72.431 28.5223 71.3426 34.5256 72.1767C31.0855 68.5743 31.1417 64.7691 33.348 60.7695Z" fill="black"/>
<path d="M53.2098 60.7842C55.8432 64.4409 55.5509 67.8805 52.3694 72.2028C58.412 71.4143 60.978 72.2999 63.0915 76.0052C60.4187 77.565 57.6588 78.3478 54.7387 76.9051C51.1975 75.1539 49.2891 72.1114 49.1064 68.1719C48.9603 65.0008 50.7309 62.704 53.2098 60.7842Z" fill="black"/>
<path d="M15.7852 69.6716C18.4832 67.1776 21.4961 65.5949 26.6393 68.4632C24.1239 64.4008 24.7479 60.8555 27.6764 57.5645C30.99 60.5498 31.6083 65.3321 28.202 69.2402C25.0851 72.8141 20.0965 73.9082 15.7852 69.6716Z" fill="black"/>
<path d="M60.4468 68.3004C65.3202 65.575 68.7265 67.3462 70.9187 69.6345C68.0014 73.1026 63.5074 73.3626 59.6486 70.2858C55.6718 67.1119 55.4104 62.5839 58.9151 57.6616C61.7143 59.3643 62.327 63.3438 60.4468 68.3004Z" fill="black"/>
<path d="M76.9334 62.6095C74.6316 66.5519 69.879 67.6175 66.0033 65.0607C61.9337 62.3753 60.9809 57.7844 63.6537 53.7163C66.8465 55.4047 67.9201 58.6186 66.7397 63.6266C70.0476 60.4412 73.4259 60.4127 76.9362 62.6095H76.9334Z" fill="black"/>
<path d="M20.1639 63.6434C18.5676 59.3325 19.7143 56.1672 23.1459 53.5332C24.419 55.7787 25.2313 58.0327 24.3207 60.5524C23.0981 63.9377 20.5855 65.8375 17.1398 66.3888C13.9331 66.903 11.7493 65.1404 9.84656 62.7807C13.4609 60.2953 16.4934 60.4524 20.1639 63.6434Z" fill="black"/>
<path d="M81.4975 54.7531C79.7297 58.9184 76.1716 60.5182 72.0683 59.0669C68.1729 57.6899 66.2 54.0989 67.2005 50.2051C67.5237 48.9453 67.8553 48.7996 68.9346 49.5023C71.672 51.2764 72.7681 53.8161 72.2988 57.23C74.8001 53.9561 77.8917 53.3962 81.4975 54.7503V54.7531Z" fill="black"/>
<path d="M19.0622 48.834C21.0239 52.3221 19.4697 56.7902 15.6615 58.6842C11.4092 60.8011 7.10907 59.1899 5.38623 54.8333C9.06518 53.1906 12.1202 54.1505 14.6834 57.6701C13.8178 53.3106 15.5827 50.6052 19.0593 48.834H19.0622Z" fill="black"/>
<path d="M2.25256 46.2971C5.95119 45.7114 8.6858 46.777 10.3243 50.3337C10.3946 46.4056 12.4884 44.3002 16.0887 43.3003C16.5749 45.6143 16.2966 47.7426 14.7649 49.4681C12.6261 51.8736 9.84936 52.4792 6.81682 51.6907C4.16089 50.9994 2.96924 48.931 2.25256 46.2971Z" fill="black"/>
<path d="M70.7333 43.4175C74.4291 44.2317 75.9552 46.1057 76.5033 50.5166C78.1137 46.8114 80.8455 45.6972 84.5357 46.2943C83.9764 48.6683 82.8972 50.6795 80.5588 51.5051C77.5122 52.5764 74.6483 52.0565 72.2622 49.7082C70.5056 47.9798 70.4859 45.8115 70.7305 43.4175H70.7333Z" fill="black"/>
<path d="M7.69651 43.4573C8.44692 39.7749 10.5941 38.0894 13.9611 37.8809C14.3827 41.5033 11.7183 44.5515 8.03938 44.7772C3.87984 45.0343 0.982195 42.4117 0.965332 38.3751C3.92479 37.9837 6.34747 39.7206 7.69651 43.4545V43.4573Z" fill="black"/>
<path d="M72.6754 38.0237C75.7051 37.738 77.6444 39.2978 79.1508 43.1545C80.691 39.2492 82.6162 38.3808 85.837 38.3408C85.882 41.9489 83.3919 44.6286 79.7888 44.7772C76.0283 44.9343 72.8806 42.8574 72.6754 38.0237Z" fill="black"/>
<path d="M33.1513 32.4529C33.6178 30.6474 34.0281 29.0562 34.4525 27.4107H36.6503C35.8353 30.2589 35.0455 33.0186 34.2389 35.8468H32.2013C31.8584 34.7298 31.5015 33.5756 31.1024 32.2787C30.8691 33.21 30.6415 33.9785 30.4869 34.7641C30.3323 35.5554 30.0457 35.9611 29.1126 35.9725C28.1458 35.9839 27.9434 35.4697 27.7467 34.7412C27.0946 32.3329 26.4229 29.9304 25.754 27.5135C27.8647 27.1593 27.8759 27.1564 28.3341 29.0076C28.6151 30.1418 28.8568 31.2845 29.1407 32.5329C29.4133 31.5673 29.7168 30.7188 29.8883 29.8447C30.1159 28.6762 30.6977 28.1963 31.9877 28.6105C32.3306 29.7475 32.7044 30.9817 33.1513 32.4529Z" fill="black"/>
<path d="M80.601 35.9639C81.3092 32.2929 82.8466 30.6988 85.9213 30.3188C86.4665 34.107 84.1563 37.1352 80.5616 37.3494C76.7534 37.5751 73.9794 35.3268 74.016 32.0472C77.0513 31.633 78.7489 32.61 80.6038 35.9639H80.601Z" fill="black"/>
<path d="M6.26037 35.8497C8.08158 32.5987 9.94215 31.5674 12.8819 32.0644C12.421 35.8211 9.58803 37.9323 5.82757 37.3181C2.37909 36.7553 0.282424 33.7928 0.883872 30.3418C3.36555 30.6846 5.41722 31.7531 6.26037 35.8526V35.8497Z" fill="black"/>
<path d="M47.8418 33.4529C47.7968 34.2328 47.7546 35.0156 47.7069 35.8555H45.6833C45.6467 35.6126 45.5962 35.4327 45.5962 35.2527C45.5905 32.693 45.5934 30.1333 45.5934 27.4793C47.1082 27.4793 48.6203 27.2593 50.0199 27.5679C50.7844 27.7364 51.6781 28.6877 51.9451 29.4819C52.4032 30.8446 52.035 32.2159 50.5314 33.0529C51.2312 33.9957 51.8608 34.8442 52.5044 35.7098C50.0143 36.7554 49.1936 34.7642 47.8446 33.45L47.8418 33.4529ZM47.8389 31.5217C48.6175 31.2703 49.2583 31.1275 49.8204 30.8332C49.9468 30.7675 49.9215 29.9476 49.7669 29.8647C49.2189 29.5734 48.5809 29.4505 47.8389 29.2191V31.5217Z" fill="black"/>
<path d="M53.9968 36.0181V27.3391C56.085 27.5362 58.5189 26.5221 59.8455 28.6933C60.9078 30.4302 60.8769 32.7871 59.8933 34.5726C58.6004 36.9208 56.1075 35.561 53.994 36.0181H53.9968ZM56.0822 34.0898C56.8326 33.8498 57.9119 33.7355 57.9596 33.447C58.1536 32.2785 58.1507 31.033 57.9428 29.8674C57.8894 29.5703 56.8298 29.4532 56.0822 29.2046V34.0898Z" fill="black"/>
<path d="M6.09166 29.1761C7.77796 26.5164 9.95613 25.9222 12.5783 26.5907C12.0247 29.4418 9.42775 31.213 6.53293 30.6731C3.78426 30.1617 0.830419 28.1048 1.82815 23.4939C4.02315 23.4339 5.71224 25.5651 6.09166 29.1761Z" fill="black"/>
<path d="M74.1453 26.7108C77.0766 25.8481 78.7686 26.4651 80.9102 29.3562C80.6938 26.1395 82.0793 24.2768 84.8589 23.2427C85.407 25.151 85.376 26.8737 84.1478 28.3963C82.5543 30.3675 80.4717 31.0703 78.0153 30.5818C75.8934 30.159 74.8535 28.6363 74.1481 26.7108H74.1453Z" fill="black"/>
<path d="M44.3286 35.85C43.1426 35.8871 41.9987 36.4242 41.6164 34.7615C41.5546 34.4958 40.807 34.253 40.377 34.2559C39.9554 34.2559 39.4664 34.5044 39.1376 34.7929C38.8931 35.0072 38.8537 35.4643 38.7104 35.8471H36.5042C37.4204 33.1303 38.2691 30.5306 39.205 27.9595C39.3147 27.6624 39.9048 27.3853 40.2702 27.3853C40.6918 27.3853 41.3719 27.6052 41.49 27.908C42.4821 30.4963 43.373 33.1274 44.3314 35.8471L44.3286 35.85Z" fill="black"/>
<path d="M17.924 36.1812C18.9666 33.173 19.8238 30.6162 20.7682 28.0936C20.8975 27.7508 21.468 27.4165 21.8587 27.388C22.2577 27.3565 22.9463 27.6022 23.0616 27.905C24.0565 30.5076 24.9502 33.1473 25.8777 35.787C24.405 36.1584 23.2639 36.0669 23.0672 34.2671C21.9205 34.2386 20.7851 33.8043 20.3579 35.5013C20.2707 35.8498 19.0172 35.8984 17.924 36.1841V36.1812Z" fill="black"/>
<path d="M66.5429 29.5847C65.8824 29.3676 65.3681 29.1019 64.8369 29.059C64.5559 29.0362 64.2411 29.3961 63.9432 29.5847C64.1455 29.8589 64.2973 30.2018 64.5587 30.3903C64.8116 30.5731 65.1714 30.6017 65.489 30.6903C67.4788 31.2473 68.2938 32.3044 67.9257 33.8499C67.5659 35.3554 65.8234 36.4382 64.1624 36.0182C63.2996 35.8011 62.5126 35.264 61.394 34.7298C62.1163 34.1584 62.552 33.8128 63.0719 33.4014C63.8898 33.6356 64.8482 34.8098 65.9752 33.2643C65.4103 32.99 64.9578 32.6358 64.4603 32.5529C63.1366 32.3329 62.0124 31.7644 61.9252 30.3503C61.8746 29.539 62.2512 28.4163 62.8358 27.9106C63.9319 26.965 65.3484 26.9964 66.6469 27.7306C66.9982 27.9306 67.2849 28.2477 67.6671 28.5648C67.2343 28.959 66.8942 29.2676 66.5457 29.5847H66.5429Z" fill="black"/>
<path d="M73.8165 21.8573C76.0874 20.6688 78.0239 21.0545 80.2048 23.3771C79.6849 20.466 80.6713 18.5548 83.0153 17.3721C84.4009 20.1632 83.5184 22.8828 80.84 24.2513C77.9676 25.7196 75.2611 24.7969 73.8137 21.8573H73.8165Z" fill="black"/>
<path d="M12.9971 21.757C11.6425 24.7567 8.77292 25.7309 5.95399 24.251C3.30649 22.8598 2.38747 19.9801 3.82926 17.3633C6.06923 18.606 7.15971 20.4143 6.56388 23.4454C8.48345 21.14 10.5407 20.7 12.9943 21.7542L12.9971 21.757Z" fill="black"/>
<path d="M14.1045 16.9407C12.1569 19.4204 9.7567 19.9204 7.51673 18.4063C5.23741 16.8665 4.73993 14.5496 6.12832 11.9385C7.9411 12.667 8.56504 14.1639 8.28399 17.2978C10.1502 15.8123 12.0529 15.8123 14.1073 16.9407H14.1045Z" fill="black"/>
<path d="M72.7878 16.9348C75.0025 15.7636 76.1801 15.8435 78.6421 17.3148C78.0322 15.0265 78.5465 13.181 80.497 11.8354C82.1833 14.0638 81.7421 16.5663 79.4178 18.3033C77.1947 19.9631 74.5107 19.446 72.7907 16.9348H72.7878Z" fill="black"/>
<path d="M77.8496 7.30762C79.5387 9.66734 79.3082 11.8128 77.3015 13.4412C75.3594 15.0153 73.156 14.7839 71.4866 12.787C73.0886 11.4614 74.7721 11.4214 76.7591 12.5698C75.826 10.4158 76.3347 8.78173 77.8496 7.30762Z" fill="black"/>
<path d="M8.95283 7.31299C10.538 8.75282 10.8443 10.4012 10.1389 12.4838C11.9994 11.5068 13.6773 11.4239 15.2484 12.7181C14.3574 14.6007 11.606 15.0178 9.73135 13.6151C7.59255 12.0124 7.26091 9.61271 8.95283 7.31299Z" fill="black"/>
<path d="M74.6203 8.53023C73.6985 6.73616 73.9486 5.27919 75.1403 3.97363C76.7732 5.40775 76.9221 7.32466 75.545 9.0616C74.1341 10.8414 72.0937 10.9957 70.0195 9.38156C71.2814 7.96744 72.7851 7.89888 74.6203 8.53023Z" fill="black"/>
<path d="M11.6706 3.93359C12.8454 5.26772 13.0815 6.72755 12.199 8.51019C13.9246 7.93597 15.4367 7.89598 16.6649 9.27582C15.209 11.1699 12.9578 10.7328 11.5104 9.33581C9.91965 7.8017 9.9899 5.52769 11.6706 3.93645V3.93359Z" fill="black"/>
<path d="M68.2712 5.4676C69.4545 5.13336 70.6377 4.79911 71.8884 4.44772C71.2616 3.33357 71.256 2.03087 72.2256 0.791016C73.8698 2.22513 74.0553 3.92779 72.7877 5.51045C71.6017 6.99028 69.9969 7.17026 68.378 6.00182C68.3415 5.8247 68.3078 5.64472 68.2712 5.4676Z" fill="black"/>
<path d="M14.942 0.862553V4.7678C16.1983 4.59639 17.5754 4.56211 18.5029 5.95337C16.7857 7.1618 15.2821 7.01039 14.0707 5.53628C12.7751 3.95933 12.91 2.39951 14.4811 0.833984C14.6328 0.842555 14.7874 0.853982 14.9392 0.862553H14.942Z" fill="black"/>
<path d="M16.5356 3.18816C16.8139 1.11127 17.7442 0.325644 19.6159 0.585614C19.3518 2.47967 18.4861 3.21102 16.5356 3.18816Z" fill="black"/>
<path d="M70.2976 3.21917C68.1954 3.10204 67.4506 2.45069 67.2173 0.619481C68.9935 0.302376 69.9238 1.05943 70.2976 3.21917Z" fill="black"/>
</svg>
