<svg width="89" height="80" viewBox="0 0 89 80" fill="none" xmlns="http://www.w3.org/2000/svg">
<path d="M81.5747 19.7028C82.6033 18.6686 83.6208 17.6487 84.8518 16.4118C85.5684 18.8572 85.6078 20.8369 83.8231 22.1139C82.4179 23.1167 82.5134 24.1223 83.0671 25.5792C83.9496 23.908 85.1694 22.8338 86.9372 22.4939C87.5864 24.7193 87.0833 26.9534 85.2255 27.8875C83.3903 28.8103 83.1992 30.053 83.5224 31.5442C84.9867 30.6843 86.5268 29.7759 88.171 28.8103C88.8567 31.5442 87.6538 34.1496 85.3014 34.8838C83.5702 35.4238 83.0277 36.3779 83.1626 38.032C83.1879 38.3434 83.1092 38.6605 83.0502 39.2519C84.7028 37.4635 86.5409 36.7636 88.7078 36.9722C88.7527 39.609 87.058 42.1373 84.492 42.4144C82.2914 42.6543 81.8895 43.8999 81.6422 45.9111C83.587 44.3856 85.6612 44.3427 87.8056 44.7084C87.2744 47.6537 85.2762 49.5735 82.2942 49.6021C80.6697 49.6192 79.5399 49.8306 79.1211 51.6247C79.0087 52.1132 78.5618 52.5217 78.1571 53.1359C79.5483 52.8246 80.6529 52.3932 81.763 52.3818C82.8675 52.3675 83.9777 52.776 85.1103 53.0017C84.4752 55.31 81.7602 57.2897 79.5792 57.2869C79.1127 57.2869 78.6434 57.2355 78.1768 57.1983C75.7513 57.0012 75.49 57.1469 73.8149 59.9094C76.7491 58.421 78.9216 59.9237 81.2599 60.875C79.6467 63.8032 75.8385 65.0288 72.6261 63.4833C71.2152 62.8062 70.4283 62.9805 69.6273 64.1775C69.4277 64.4775 69.1101 64.6974 68.6267 65.1659C71.6536 64.9345 73.8964 66.0801 75.7626 68.0942C73.472 70.7567 69.4671 71.3052 66.3839 69.094C65.0658 68.1484 64.1524 68.1027 63.0029 69.0826C62.6544 69.3769 62.2075 69.5511 61.474 69.9682C64.737 70.391 66.8392 72.0537 68.34 74.602C64.0287 77.1359 60.4453 76.3646 57.0053 72.0508C55.9794 72.4022 54.9367 72.7622 53.6018 73.2193C56.5022 74.3763 58.2222 76.396 59.3071 79.0529C55.2403 80.7498 51.0554 79.5928 48.9307 75.9504C48.2758 74.8276 47.5676 74.3934 46.2607 74.582C45.0241 74.7619 43.7256 74.7391 42.4862 74.5648C41.3255 74.402 40.7409 74.8248 40.1647 75.7847C37.8967 79.5557 33.7596 80.8669 29.6872 79.0928C30.7383 76.396 32.4302 74.3563 35.3925 73.2478C34.243 72.845 33.3493 72.4394 32.4106 72.2537C32.0705 72.1851 31.5196 72.5422 31.2498 72.865C28.3859 76.2589 24.5383 76.9645 20.5727 74.7048C22.082 72.0994 24.1758 70.3996 27.4556 69.9939C26.545 69.434 25.8031 69.0655 25.1623 68.5627C24.3837 67.9542 23.8329 68.1342 23.1078 68.7169C19.9319 71.2738 15.9017 71.0167 13.1923 68.1113C15.0501 66.1315 17.2395 64.9688 20.3619 65.1774C19.4317 64.3003 18.7374 63.6433 17.9786 62.9291C16.0141 63.8804 14.0158 64.8117 11.7309 64.0518C10.0867 63.5033 8.76577 62.5205 7.63314 61.075C9.82533 59.5638 12.0709 58.761 14.8196 59.5752C14.5582 59.1609 14.4065 58.9324 14.2659 58.6981C13.5015 57.4212 12.723 56.7212 10.9411 57.1269C7.68373 57.8668 5.41284 56.4813 3.64222 53.2102C5.85971 52.0989 8.06597 51.9761 10.5223 53.0817C10.0165 52.0218 9.67076 51.0419 9.10023 50.2249C8.86977 49.8963 8.14465 49.8078 7.64719 49.8106C4.24086 49.8335 2.12736 48.2708 1.14649 44.9312C2.66978 44.2999 4.61466 44.5284 7.31837 45.6826C7.23967 45.2655 7.12725 44.9055 7.11039 44.5427C7.05137 43.2657 6.51457 42.6372 5.16271 42.4629C2.09083 42.0658 0.533814 40.2918 0.17688 36.9664C2.33535 36.7979 4.19308 37.3721 5.94121 39.2862C5.78944 37.8521 5.67985 36.7979 5.55338 35.618C3.85864 35.081 1.99809 34.6039 1.19709 32.7212C0.753035 31.6728 0.604075 30.4929 0.280867 29.2131C2.58829 29.3645 4.14812 30.2244 5.44376 32.2156C5.49435 31.3414 5.46906 30.7872 5.56743 30.2587C5.74449 29.3045 5.35664 28.8474 4.5163 28.4246C2.1611 27.2419 1.34324 25.2021 2.07116 22.4996C3.77994 22.951 5.06434 23.9109 5.8288 25.6164C6.67195 23.5623 6.66914 23.5538 5.19081 22.2653C3.6619 20.9341 3.27124 19.1857 4.05256 16.8003C5.6152 17.3431 6.57359 18.4544 7.21719 20.1056C7.87485 18.7229 8.52125 17.6773 7.04855 16.3432C5.62643 15.0548 6.00305 13.2521 6.86306 11.1352C7.8355 12.4237 8.6365 13.4807 9.44873 14.5548C9.66795 14.1377 9.96587 13.5749 10.3116 12.915C8.74892 11.2952 8.16434 9.49257 9.8394 7.11C10.542 8.26415 11.1575 9.27546 11.7843 10.3039C11.9698 10.0125 12.2199 9.62399 12.456 9.25546C11.1912 6.70719 11.2053 5.75016 12.7145 3.97038C13.1895 5.03025 13.6083 5.97014 14.0636 6.98716C14.3924 6.59006 14.769 6.13869 15.1231 5.71017C14.1648 3.53329 14.2716 2.64768 15.6599 1.25356C15.8904 1.68493 16.1574 2.07917 16.3148 2.51341C16.4694 2.93907 16.5143 3.40759 16.6268 3.96466C17.9955 2.95621 17.9674 0.376518 20.4406 0.799325C20.4406 2.0506 19.9066 2.87051 18.7178 3.34188C18.0208 3.61899 17.3912 4.07036 16.5958 4.52174C17.8072 4.94455 18.7599 5.27879 19.8082 5.64446C18.5576 7.11286 17.7369 7.18714 15.5672 6.14726C15.1344 6.67291 14.6763 7.22999 14.2322 7.76992C15.4576 8.04703 16.579 8.30129 17.81 8.58126C16.6661 10.3982 15.7611 10.5696 13.0574 9.69827C12.8494 9.9668 12.6105 10.2496 12.4054 10.5582C12.2283 10.8238 12.0934 11.121 12.0625 11.1809C13.3862 11.3409 14.7522 11.5066 16.2951 11.6923C15.1934 13.5007 13.9231 14.2406 12.3604 13.7235C10.9327 13.2521 10.4155 13.8092 10.0474 14.9948C9.96587 15.2576 9.85064 15.509 9.64266 16.0404C11.3908 15.0919 12.9619 14.8577 14.5639 15.9261C13.257 18.2715 11.3205 18.7686 8.85572 17.9173C8.48473 19.0743 8.14747 20.1227 7.67249 21.5911C9.51618 19.8399 11.2475 19.6856 13.153 20.3399C12.2761 22.6453 10.7753 23.7937 8.65898 23.5566C7.47295 23.4252 7.03169 23.7709 6.99515 24.925C6.97829 25.4735 6.81529 26.0163 6.63823 27.0076C8.29361 24.8736 10.1373 24.4708 12.2536 24.8879C11.8742 27.6933 10.4099 28.8103 6.5258 29.2731V32.4756C7.29307 31.8585 8.01818 31.0529 8.91473 30.6101C9.80285 30.1701 10.8652 30.0901 11.8686 29.8502C12.2452 32.8241 10.4521 34.7439 6.46116 35.6695C6.64666 37.0179 6.83778 38.3891 7.02889 39.7604C7.99571 37.1578 9.96585 36.0894 12.529 35.638C13.0124 39.5233 10.9664 41.5345 7.6753 42.6086C8.09407 43.9456 8.4482 45.0683 8.95971 46.6996C9.56397 43.5342 11.3262 41.9144 13.8275 41.0317C15.2665 44.0227 13.9512 47.0367 10.1036 49.3821C10.7556 50.6362 11.4105 51.9018 12.0653 53.1674C12.3267 50.0849 13.85 48.0108 16.3851 46.5739C18.2316 50.2734 17.6695 52.6046 14.0608 56.167C14.8505 57.1583 15.6487 58.1611 16.4469 59.1638C16.0759 55.9413 17.3603 53.5788 19.589 51.5818C22.3124 54.6786 22.1578 58.1353 19.0494 62.0263C19.5188 62.4377 20.005 62.8719 20.4968 63.2919C20.9915 63.7147 21.4945 64.1289 22.141 64.526C20.8734 61.235 21.6941 58.4067 23.6896 55.7756C26.472 58.2382 28.1077 61.9092 25.137 66.8C26.382 67.5 27.6215 68.197 28.8609 68.8912C27.0847 65.7544 27.2926 62.712 28.7653 59.6266C32.5848 61.2378 33.8973 64.726 32.7872 70.5596C34.4173 71.0424 36.0698 71.5309 37.7224 72.0194C34.9203 69.0341 34.6674 65.7002 35.7635 62.0349C40.4205 63.6347 42.4244 67.24 41.57 72.6365H47.3849C46.3675 67.4514 48.3995 64.0032 53.2195 61.9035C54.1105 65.6516 54.1498 69.0369 51.2494 72.0051C52.8738 71.5338 54.4983 71.0624 56.2661 70.5482C54.6332 65.8116 55.8277 62.1492 60.1109 59.4809C61.6033 62.6348 61.9349 65.6859 60.0491 68.8969C61.2857 68.2056 62.5251 67.5114 63.7645 66.82C60.9316 61.6749 62.4014 58.6039 65.181 55.7556C67.317 58.3696 68.0421 61.1921 66.6341 64.8003C67.9466 63.7204 68.9359 62.9091 70.0797 61.972C67.0556 58.801 66.8111 55.4414 69.1467 51.8675C71.7042 53.4331 72.8172 56.0413 72.5221 59.2238C73.3708 58.2039 74.2196 57.184 75.0543 56.1813C71.4878 52.5589 70.7908 49.7249 72.6486 46.5367C74.7677 48.3594 76.9908 50.0335 76.3668 53.4645C76.5158 53.4702 76.6676 53.4759 76.8165 53.4816C77.5051 52.1018 78.1909 50.722 78.9075 49.2878C77.2943 48.1565 75.3522 47.3681 74.9419 45.2455C74.6805 43.897 74.7705 42.4801 74.6946 40.8888C77.6119 41.9316 79.4303 43.4885 80.1076 46.3653C80.4814 45.1683 80.858 43.9742 81.2768 42.6372C77.7805 41.7202 76.1757 39.4319 76.291 35.8723C78.5 35.638 80.532 37.0436 81.8923 39.9575C82.1115 38.3034 82.283 37.015 82.4741 35.5723C79.0565 35.3324 77.2437 33.4954 76.8418 30.2101C78.663 29.6702 80.8917 30.5472 82.4488 32.7984V29.1902C79.405 29.3216 77.4039 28.0475 76.5439 24.9479C78.6518 24.5165 80.4983 24.7565 82.1481 26.4848C81.9935 25.5107 81.8417 24.5336 81.6928 23.5795C78.0335 23.6223 76.6732 22.871 75.8581 20.3484C77.7693 19.6799 79.4921 19.8885 81.2374 21.5369C80.8299 20.1742 80.5095 19.1143 80.1498 17.9144C77.685 18.7972 75.7485 18.2944 74.3967 15.9204C76.024 14.9462 77.581 15.0576 79.4387 16.1146C79.0115 15.229 78.6911 14.7091 78.5028 14.1435C78.2639 13.4235 77.9379 13.3578 77.2437 13.5892C75.296 14.2377 74.2084 13.8378 72.7947 12.1123C74.0932 11.1124 75.459 10.8753 77.3112 11.8409C76.7463 10.9038 76.3781 10.2925 75.9397 9.56971C74.2084 10.5782 72.6092 10.5524 70.8667 8.73267C72.2776 8.36699 73.4271 8.06703 74.6609 7.74707C74.3433 7.32426 73.9329 6.78147 73.4664 6.1644C72.0246 6.86146 70.5941 7.3614 69.0314 5.74159C70.1388 5.32736 71.055 4.98454 72.0387 4.61887C71.5721 2.89336 68.1377 3.6447 68.5817 0.865031C71.0409 0.325096 71.0325 2.96764 72.2607 3.9818C72.6008 2.99049 72.9043 2.10774 73.2612 1.06786C74.4473 2.38199 74.703 3.51614 74.2028 4.9674C74.0004 5.5559 74.4697 6.38437 74.9419 6.97573C75.3326 6.05298 75.7261 5.13024 76.1392 4.15321C77.8199 5.46448 77.8677 6.85289 76.4512 9.20404C76.7125 9.59542 76.9936 10.0125 77.2269 10.3582C77.8058 9.32117 78.3707 8.31272 78.9891 7.20713C80.3887 8.85551 80.6107 10.321 79.4219 11.8009C78.4354 13.0322 78.9188 13.8006 79.5287 14.5948C80.3016 13.5235 81.0773 12.4522 81.912 11.2981C83.1711 13.1636 83.3144 15.0005 82.0188 16.1832C80.6641 17.4202 80.813 18.5172 81.5719 19.7028H81.5747Z" fill="black"/>
<path d="M52.826 45.7399H50.4512V35.9468C52.8204 35.4954 52.812 35.5011 53.6776 37.618C54.0514 38.5351 54.4786 39.4292 55.0323 40.6691C55.5101 39.5264 55.8895 38.6065 56.2802 37.6923C56.8685 36.3191 57.9458 35.7278 59.5122 35.9182V45.7371H57.1458V41.2005C56.7692 42.1146 56.4516 42.7317 56.2633 43.3859C56.0637 44.0773 55.7068 44.5715 54.9929 44.3172C54.518 44.1487 54.0458 43.7402 53.7563 43.3116C53.4134 42.8031 53.2729 42.1546 52.826 41.6204V45.7342V45.7399Z" fill="black"/>
<path d="M33.8973 26.3075C35.0524 27.3588 35.4487 28.5472 34.8164 29.9413C34.1756 31.3497 32.9333 31.6697 31.559 31.684C30.2662 31.6983 28.9705 31.6868 27.6102 31.6868V21.6052C29.0829 21.6052 30.5753 21.4595 32.0255 21.6366C34.496 21.9394 35.3532 24.0877 33.8973 26.3046V26.3075ZM30.1453 27.0845V29.7528C31.0447 29.4043 31.7557 29.1871 32.3909 28.8329C32.5258 28.7586 32.4949 27.9359 32.3459 27.8616C31.6939 27.5359 30.9688 27.3588 30.1425 27.0845H30.1453ZM30.106 23.5564V25.659C30.8788 25.4733 31.5421 25.3733 32.1408 25.1162C32.27 25.0619 32.2813 24.1935 32.1576 24.1392C31.5618 23.8763 30.9013 23.7649 30.106 23.5564Z" fill="black"/>
<path d="M39.5634 23.8995V25.465H43.366V27.7333H39.6336C39.5802 28.2589 39.5409 28.656 39.4847 29.216H43.6976V31.6128H36.9412V21.6426H43.7229V23.8995H39.5606H39.5634Z" fill="black"/>
<path d="M52.3932 23.0283C51.848 23.4883 51.3871 23.8739 51.0105 24.191C50.2657 23.9454 49.6277 23.6368 48.9616 23.5597C48.6693 23.5254 48.3236 23.9596 48.0004 24.1796C48.2112 24.4967 48.3574 24.9595 48.6496 25.0966C49.3214 25.4109 50.083 25.5166 50.7772 25.7937C53.0003 26.6793 53.3657 29.439 51.477 30.9417C49.6783 32.3729 47.073 31.9815 45.4429 29.9361C45.8954 29.499 46.3563 29.0533 46.7779 28.6477C47.5255 28.9333 48.1944 29.3161 48.8998 29.4019C49.2876 29.4504 49.7373 28.999 50.1589 28.7705C49.8638 28.4562 49.6193 28.0306 49.2595 27.8535C48.7649 27.6106 48.1691 27.5992 47.6407 27.4164C46.2045 26.9164 45.471 25.868 45.4963 24.4282C45.5188 23.0169 46.3141 21.9942 47.8234 21.6028C49.5237 21.1628 51.0554 21.4742 52.3961 23.0283H52.3932Z" fill="black"/>
<path d="M28.6979 45.6969V35.8638H35.5049V38.2092H31.2807V39.9976H34.9597V42.2973H31.2217V45.6969H28.6979Z" fill="black"/>
<path d="M59.0823 31.6271H56.4995V24.0594C55.5636 23.9994 54.7879 23.9509 53.9307 23.8937V21.6426H61.4516C61.7176 23.0405 60.9279 23.8671 59.0823 24.1223V31.6242V31.6271Z" fill="black"/>
<path d="M42.2698 35.8379H44.639V43.2542H48.6833V45.7224H42.2698V35.8379Z" fill="black"/>
<path d="M39.8078 45.7566H37.4611V35.8521H39.8078V45.7566Z" fill="black"/>
</svg>
