<svg width="84" height="96" viewBox="0 0 84 96" fill="none" xmlns="http://www.w3.org/2000/svg">
<path d="M63.4644 82.7531C63.6818 80.7971 64.6786 79.6658 66.4548 79.3592C69.611 78.8136 74.3467 79.9534 76.7722 81.8875C75.3866 82.2903 74.0516 82.6788 72.6801 83.0759C73.6835 84.4872 74.5828 85.7556 75.485 87.0212C75.4063 87.0811 75.3276 87.1411 75.2461 87.2011C73.7903 86.6412 72.3738 85.8442 70.8673 85.5813C69.0686 85.2671 67.1912 85.3442 65.3475 85.3728C64.3217 85.3899 63.7455 85.9927 63.9507 87.1469C64.1081 88.0382 63.8298 88.6552 62.8237 88.6552C58.0036 88.6524 53.5518 87.6154 50.0696 83.8987C48.7936 82.5388 48.3524 80.9419 48.7908 78.8936C52.8548 83.7301 58.0458 83.5416 63.4644 82.7531Z" fill="black"/>
<path d="M35.1993 79.265C36.0874 81.9847 34.5922 83.4702 33.1335 84.8615C31.1718 86.7327 28.7239 87.6869 26.0988 88.1097C24.5924 88.3525 23.0551 88.3725 21.5374 88.5525C20.5931 88.6639 20.0422 88.401 20.2108 87.3526C20.4441 85.9071 19.6965 85.5014 18.4487 85.2643C15.5426 84.7101 12.8867 85.4128 10.2982 86.6413C9.87942 86.8384 9.47752 87.0755 9.06718 87.2926C8.94914 87.204 8.83111 87.1155 8.71307 87.0241C9.58432 85.7671 10.4556 84.5072 11.4561 83.0617C10.1211 82.676 8.80581 82.2961 7.24036 81.8475C7.7603 81.539 8.18188 81.2448 8.63999 81.0191C11.5685 79.5821 14.6404 78.8708 17.8837 79.4164C20.4975 79.8563 20.4863 79.9249 20.728 82.7189C25.933 83.5559 30.9835 83.733 35.2049 79.2621L35.1993 79.265Z" fill="black"/>
<path d="M42.2199 91.2518C40.9608 92.7688 39.7522 94.3086 38.4341 95.7399C38.1952 95.9998 37.501 95.8427 37.0176 95.8399C36.8996 95.8399 36.7815 95.697 36.6635 95.6199C34.2352 94.0601 33.8839 93.1573 34.5753 90.2862C35.188 87.7494 36.5033 85.6439 38.5578 84.1098C39.1452 83.6727 40.0586 83.6213 40.8399 83.5327C41.624 83.4442 42.4672 83.7013 43.2092 83.507C44.3137 83.2185 45.1203 83.5813 45.8904 84.2641C48.2934 86.3924 49.6565 89.0435 49.8729 92.3088C49.96 93.6401 49.5665 94.5086 48.3411 95.1599C46.0843 96.3626 45.8567 96.4226 44.2406 94.3572C43.4368 93.3316 42.8073 92.166 42.2199 91.2518ZM46.5565 92.8459C46.3092 89.8063 45.1962 87.5494 43.1754 85.2697C43.5014 88.3579 44.7044 90.5719 46.5565 92.8459ZM37.5432 92.7374C39.6651 90.6376 41.0591 87.4351 40.6825 85.6325C38.8697 87.5951 37.9338 89.8977 37.5432 92.7374Z" fill="black"/>
<path d="M32.3521 32.5649C33.3808 33.4476 33.6562 34.5703 33.1503 35.8502C32.6332 37.1586 31.4528 37.4014 30.2836 37.49C29.0414 37.5843 27.7879 37.51 26.4417 37.51V28.214C27.934 28.214 29.4292 28.0483 30.8738 28.254C32.889 28.5425 33.4988 30.4537 32.3521 32.562V32.5649ZM28.7322 35.7702C29.6653 35.3674 30.3342 35.1217 30.9469 34.776C31.0396 34.7246 30.9581 33.9961 30.826 33.9504C30.16 33.7076 29.4489 33.5876 28.6001 33.3876C28.6479 34.2561 28.676 34.7589 28.7322 35.7731V35.7702ZM28.7491 32.0278C29.5051 31.7735 30.1262 31.6164 30.6911 31.3364C30.8007 31.2822 30.7642 30.528 30.6658 30.4937C30.0672 30.2937 29.432 30.208 28.7491 30.0709V32.0278Z" fill="black"/>
<path d="M13.058 18.7262C12.0996 13.4583 15.0984 7.73898 19.8932 5.69922C21.1832 10.3958 17.5239 17.3693 13.058 18.7262Z" fill="black"/>
<path d="M2.23193 51.5708C7.40326 52.2536 11.7005 56.7502 12.3469 62.1495C7.07443 61.7553 2.47926 56.6045 2.23193 51.5708Z" fill="black"/>
<path d="M63.9507 70.5687C65.8984 65.7065 72.1405 62.3554 76.7919 63.5867C74.7346 68.5404 69.4621 71.3886 63.9507 70.5687Z" fill="black"/>
<path d="M82.0278 51.5854C81.3449 57.0619 77.2809 61.3386 71.9718 62.2699C71.9606 57.3048 76.7694 52.1282 82.0278 51.5854Z" fill="black"/>
<path d="M20.2193 70.6028C14.5533 71.2684 9.57871 68.5802 7.34717 63.7093C11.695 62.3781 18.0692 65.3063 20.2193 70.6028Z" fill="black"/>
<path d="M15.908 73.3655C20.4301 70.8144 27.1331 72.0514 30.2809 76.0138C25.385 78.522 19.2103 77.3793 15.908 73.3655Z" fill="black"/>
<path d="M71.154 18.7665C66.1963 16.7667 63.2846 10.9817 64.302 5.84229C69.0883 7.71635 71.9634 13.2843 71.154 18.7665Z" fill="black"/>
<path d="M78.4107 40.3838C75.6677 36.1615 76.6064 29.3994 80.4539 25.6685C83.1548 30.2136 82.2105 37.0043 78.4107 40.3838Z" fill="black"/>
<path d="M10.2503 14.4126C12.7629 19.1063 11.6106 25.6827 7.77426 28.9709C5.2701 24.9199 6.09357 18.0922 10.2503 14.4126Z" fill="black"/>
<path d="M73.9195 14.3984C77.8486 17.9552 78.97 24.2973 76.4967 28.9681C72.7194 26.5027 71.3282 18.6351 73.9195 14.3984Z" fill="black"/>
<path d="M61.0053 48.6342C61.7304 49.5855 62.433 50.5111 63.1356 51.4367C63.0935 51.5624 63.0513 51.691 63.012 51.8167C62.0367 51.611 60.9041 51.6481 60.1256 51.1339C59.333 50.6082 58.8862 49.5427 57.9615 48.797V51.5738H55.6372V42.5663C57.3263 42.5663 59.0688 42.3207 60.7102 42.6292C62.7646 43.0149 63.3773 46.2373 61.854 47.8943C61.6095 48.16 61.3116 48.3714 61.0053 48.6342ZM57.8463 46.6887C59.0182 46.7144 60.1424 47.0172 60.3223 45.6774C60.4628 44.6318 59.5129 44.4947 58.7625 44.5461C57.1802 44.6518 58.1498 45.8402 57.8463 46.6887Z" fill="black"/>
<path d="M68.3379 73.4255C64.4678 77.4622 58.7204 78.5135 53.9481 76.0566C57.183 71.8571 63.8692 70.8287 68.3379 73.4255Z" fill="black"/>
<path d="M0.849282 38.4639C5.6693 40.7265 8.42921 46.4629 7.33874 51.768C2.49624 49.5426 0.0286152 44.326 0.849282 38.4639Z" fill="black"/>
<path d="M3.68777 25.6343C7.54378 29.3567 8.46281 36.1587 5.74225 40.3554C1.72885 36.5215 1.15831 30.4251 3.68777 25.6343Z" fill="black"/>
<path d="M76.7019 51.8396C76.0949 45.6775 78.4444 40.8752 83.1492 38.5298C84.4477 43.9491 81.4995 49.6799 76.7019 51.8396Z" fill="black"/>
<path d="M53.7711 47.0861C53.6502 48.0174 53.6699 49.0001 53.3776 49.8714C52.9026 51.2798 51.087 52.0426 49.2377 51.7969C47.4165 51.5541 46.2501 50.5514 46.1012 48.903C45.9888 47.6803 45.9775 46.4261 46.0956 45.2063C46.2895 43.2094 47.9168 42.0695 50.1596 42.2209C52.3827 42.3695 53.6024 43.5636 53.6558 45.6519C53.6671 46.1262 53.6558 46.6004 53.6558 47.0775C53.6924 47.0832 53.7317 47.0861 53.7682 47.0918L53.7711 47.0861ZM48.448 46.9804C48.448 47.3575 48.4817 47.7374 48.4423 48.1117C48.3243 49.2687 48.9426 49.5829 49.9403 49.5858C51.1376 49.5858 51.3821 48.9058 51.3849 47.846C51.3934 44.9206 51.2641 44.4464 50.0275 44.4435C48.8302 44.4407 48.299 44.3892 48.448 46.9804Z" fill="black"/>
<path d="M41.0817 33.8618H37.695C37.5339 34.7912 37.9376 35.2588 38.9063 35.2645C39.7326 35.2674 40.5617 35.2645 41.4526 35.2645V37.3785H35.1543V28.2539H41.3908V30.3737H37.6669C37.2622 31.5821 37.6641 31.9592 38.7461 31.8592C39.4853 31.7906 40.2329 31.8449 41.0845 31.8449V33.859L41.0817 33.8618Z" fill="black"/>
<path d="M28.8503 51.6311C27.5462 51.5911 26.1719 52.2738 25.8936 50.2855C25.8627 50.0684 24.9661 49.8598 24.4743 49.8627C24.0499 49.8627 23.3108 50.1112 23.2602 50.3655C22.9004 52.1481 21.6722 51.671 20.3738 51.6225C20.7982 50.2884 21.172 49.0571 21.5823 47.8372C22.1107 46.2688 22.6025 44.6833 23.2574 43.1721C23.426 42.7864 24.1539 42.475 24.6345 42.4607C25.0589 42.4493 25.7475 42.8064 25.8852 43.1692C26.9138 45.906 27.8329 48.6857 28.8503 51.6311ZM25.1882 47.6601C25.0083 46.8573 24.8537 46.1574 24.6963 45.4575C24.6092 45.4575 24.5221 45.4575 24.4321 45.4575C24.2551 46.1774 24.0752 46.8973 23.8616 47.7629C24.4069 47.7229 24.7525 47.6944 25.1854 47.663L25.1882 47.6601Z" fill="black"/>
<path d="M49.4287 29.4592C48.7008 30.2105 48.1781 30.8505 47.1045 30.1848C46.7419 29.962 45.9887 30.3905 45.4153 30.5219C45.8088 30.8847 46.1461 31.399 46.607 31.5789C47.8577 32.0646 49.3529 32.1817 49.617 33.9187C49.7801 34.9871 49.7042 36.0327 48.7149 36.7355C47.5373 37.5725 46.2501 37.921 44.8785 37.3611C44.2068 37.0869 43.6194 36.5983 42.8774 36.1355C43.6531 35.2756 44.0831 34.1701 45.3732 35.1871C45.6345 35.3928 46.1067 35.4442 46.4496 35.3842C46.7672 35.3271 47.0454 35.0271 47.3405 34.8328C47.1269 34.5614 46.9667 34.1786 46.6913 34.0472C46.1938 33.8073 45.6149 33.7473 45.0865 33.5616C43.715 33.0845 43.0433 32.076 43.0854 30.6562C43.1276 29.2307 44.0073 28.505 45.2074 28.1651C46.8122 27.7137 48.2511 28.0451 49.4287 29.4621V29.4592Z" fill="black"/>
<path d="M11.2959 41.6265C13.7579 45.666 13.1874 51.1539 9.93841 54.6592C7.37523 51.0968 8.05819 44.5461 11.2959 41.6265Z" fill="black"/>
<path d="M76.8509 43.9203C72.8038 41.8777 70.4289 36.4527 71.5475 31.9561C75.4738 33.7158 77.9835 39.2952 76.8509 43.9203Z" fill="black"/>
<path d="M23.5159 16.0237C22.0123 20.2946 17.33 23.0714 12.3835 22.6257C13.3307 18.6691 19.0501 15.2752 23.5159 16.0237Z" fill="black"/>
<path d="M16.8804 23.063C16.338 28.0338 13.1227 31.6363 8.1875 32.9161C8.36456 28.1795 12.2346 23.8943 16.8804 23.063Z" fill="black"/>
<path d="M74.2455 54.7163C70.9937 51.1653 70.4288 45.5831 72.8487 41.6265C76.0751 44.4661 76.7581 50.6225 74.2455 54.7163Z" fill="black"/>
<path d="M71.8904 22.6261C67.18 23.1318 62.4218 20.6349 60.6877 16.0183C65.1902 15.307 69.9905 18.1038 71.8904 22.6261Z" fill="black"/>
<path d="M17.4621 59.8784C21.8493 61.7553 24.5249 66.4691 23.96 71.1742C20.104 70.3143 16.8551 64.7293 17.4621 59.8784Z" fill="black"/>
<path d="M12.9344 51.1997C16.6245 54.6022 17.701 59.9444 15.6043 64.0839C12.153 61.3499 10.9642 55.7306 12.9344 51.1997Z" fill="black"/>
<path d="M49.811 75.4768C50.7132 70.9716 54.6198 66.9721 59.3611 66.7979C58.8356 71.2516 54.3725 75.3883 49.811 75.4768Z" fill="black"/>
<path d="M76.019 32.9133C71.0613 31.6849 67.4357 27.5397 67.402 23.1431C72.2726 23.9515 75.693 28.4282 76.019 32.9133Z" fill="black"/>
<path d="M66.6685 59.9702C67.3121 64.7582 64.5213 69.5605 60.2971 71.2574C59.3809 66.8237 62.5089 61.4329 66.6685 59.9702Z" fill="black"/>
<path d="M34.373 75.491C30.0223 75.491 25.5255 71.4229 24.7133 66.8348C29.0077 66.792 33.2853 70.5058 34.373 75.491Z" fill="black"/>
<path d="M12.5972 31.9707C13.7748 36.3416 11.3184 41.9581 7.39213 43.8721C6.0459 39.6326 8.56974 33.8648 12.5972 31.9707Z" fill="black"/>
<path d="M71.1709 51.208C73.29 55.3561 72.2698 60.4583 68.6442 64.1179C66.5616 60.6269 67.3177 54.7562 71.1709 51.208Z" fill="black"/>
<path d="M55.1089 1.60547C59.9767 2.8139 63.175 6.49346 63.4505 11.1158C59.3218 10.5787 55.3843 6.60487 55.1089 1.60547Z" fill="black"/>
<path d="M29.0836 1.60254C28.1618 6.28198 26.6834 9.49874 20.8938 11.2128C20.0535 7.79609 24.1315 2.96523 29.0836 1.60254Z" fill="black"/>
<path d="M36.4612 44.3291C35.663 44.8661 34.9491 45.2147 33.9289 44.5919C32.9677 44.0063 32.0655 44.6462 31.97 45.7975C31.9222 46.3631 31.8688 46.9573 31.984 47.503C32.1302 48.1886 32.2735 49.1285 32.7401 49.4142C33.1897 49.6913 34.0497 49.2742 34.7102 48.8542C35.2976 49.1314 35.8878 49.4085 36.4752 49.6827C35.7304 51.4082 34.238 52.1339 32.3438 51.731C30.6069 51.3625 29.7188 50.2598 29.6907 48.42C29.6766 47.5658 29.6822 46.7088 29.685 45.8546C29.6935 43.912 30.5366 42.7864 32.2988 42.355C34.1594 41.9008 35.5618 42.5579 36.464 44.3319L36.4612 44.3291Z" fill="black"/>
<path d="M47.8858 77.3648C47.8858 78.5533 47.8858 79.7417 47.8858 80.9301C47.883 82.0071 47.3096 82.4528 46.2894 82.4557C45.2439 82.4557 44.5806 82.1014 44.5891 80.9016C44.6087 78.5247 44.62 76.1478 44.5919 73.771C44.5778 72.6225 45.2383 72.274 46.1882 72.2597C47.1888 72.2454 47.9279 72.5625 47.8914 73.7995C47.8549 74.988 47.883 76.1764 47.8858 77.3648Z" fill="black"/>
<path d="M58.0008 28.2109V30.285C57.2055 30.3393 56.4775 30.3907 55.6232 30.4507V37.3927H53.3045V30.4392C52.3995 30.385 51.6772 30.3393 50.8818 30.2907V28.2109H58.0036H58.0008Z" fill="black"/>
<path d="M43.7262 77.4309C43.7262 78.6165 43.715 79.8021 43.7291 80.9877C43.7403 82.0275 43.1782 82.4104 42.2367 82.4361C41.312 82.4589 40.4661 82.3047 40.4661 81.1419C40.4661 78.588 40.5616 76.0311 40.5841 73.4771C40.5953 72.383 41.2895 72.2401 42.0821 72.3316C42.8915 72.4258 43.8106 72.4344 43.7375 73.7314C43.6672 74.9598 43.7234 76.1968 43.7234 77.4309H43.7262Z" fill="black"/>
<path d="M39.5302 77.3307C39.5302 78.5677 39.5105 79.8047 39.5358 81.0388C39.5583 82.0244 39.0411 82.3872 38.1558 82.4301C37.2424 82.4729 36.3515 82.3872 36.3459 81.2045C36.3318 78.5134 36.3515 75.8194 36.5173 73.1369C36.537 72.8255 37.5403 72.4313 38.1305 72.3341C38.8753 72.2113 39.5302 72.5113 39.5273 73.4883C39.5245 74.771 39.5273 76.0508 39.5273 77.3336L39.5302 77.3307Z" fill="black"/>
<path d="M42.3942 51.6625C41.7056 51.6625 41.239 51.6711 40.7753 51.6597C40.5505 51.6539 40.3284 51.6082 39.9968 51.5654C39.9968 49.7627 39.9153 48.0087 40.0221 46.2689C40.1008 44.9633 39.8535 44.2263 38.3836 44.5234C38.1728 44.5662 37.9339 44.4805 37.6528 44.4491V42.415H44.7718V44.4491C43.9877 44.5119 43.257 44.5719 42.3942 44.6405V51.6654V51.6625Z" fill="black"/>
<path d="M64.4594 14.5956C60.1874 15.8869 55.2747 14.1414 53.608 10.799C57.2448 9.39055 61.7248 10.9247 64.4594 14.5956Z" fill="black"/>
<path d="M30.6574 10.7988C28.2516 14.4069 23.6564 15.9753 19.8088 14.5755C22.0376 11.0645 26.5822 9.45893 30.6574 10.7988Z" fill="black"/>
<path d="M27.209 9.20732C29.1679 5.86772 32.5321 4.46503 36.7872 5.1478C35.5449 8.25029 31.1718 10.1358 27.209 9.20732Z" fill="black"/>
<path d="M47.3406 5.16247C51.7278 4.49112 54.9655 5.8481 56.8794 9.082C54.3022 10.4561 48.9707 8.64491 47.3406 5.16247Z" fill="black"/>
<path d="M35.2892 76.8221C33.5354 79.9217 29.2466 81.6587 25.6913 80.7931C27.4422 77.4792 31.1465 76.0593 35.2892 76.8221Z" fill="black"/>
<path d="M58.5826 80.7961C54.5973 81.616 50.8172 80.0704 48.9032 76.9165C52.2758 75.7767 56.5871 77.4736 58.5826 80.7961Z" fill="black"/>
<path d="M54.6732 4.98798C51.5704 4.45947 49.4288 2.95393 48.1949 0.137126C50.9689 0.0228542 53.5967 1.95691 54.6732 4.98798Z" fill="black"/>
<path d="M35.7782 0C34.7187 2.81395 31.9925 4.79372 29.8115 4.43376C30.902 1.79122 32.8609 0.391382 35.7782 0Z" fill="black"/>
</svg>
