<svg width="86" height="88" viewBox="0 0 86 88" fill="none" xmlns="http://www.w3.org/2000/svg">
<path d="M44.8023 87.6323C39.5523 88.2294 35.8199 86.541 32.9448 82.5215C32.2618 81.5673 30.6823 81.2787 29.1899 80.5217C30.0443 82.5415 30.7245 84.1498 31.5536 86.1068C28.9482 85.6954 26.9443 84.7841 25.2524 83.2871C23.6392 81.8587 22.7848 79.9218 21.922 77.9306C21.3599 76.6307 20.0221 75.6794 18.7939 74.3053C19.0103 76.5993 19.1761 78.3705 19.3785 80.5188C15.9777 78.6419 13.8221 76.2822 13.0689 72.7569C12.9312 72.1084 12.7063 71.4114 12.8103 70.7857C13.1672 68.626 11.866 67.2547 10.7277 65.7692C10.3371 67.5518 9.95202 69.3116 9.4911 71.4285C6.44732 68.0032 5.03926 64.4608 6.20843 60.3355C6.79582 58.2701 6.62438 56.5074 5.72221 54.7276C4.82566 56.2532 3.93473 57.7644 2.97635 59.3956C0.756049 55.9961 0.902195 50.7938 3.42041 47.4856C4.64579 45.8744 4.35631 44.2689 4.36755 42.5577C3.02132 43.7518 1.74254 44.8888 0.404736 46.0744C-0.601425 43.5118 0.334473 39.2809 2.34117 36.8555C2.82177 36.2755 3.3108 35.6242 3.94035 35.27C5.81215 34.2186 6.39673 32.4503 6.77053 30.5305C5.19946 31.2219 3.61714 31.9161 1.67508 32.7702C2.17535 29.4878 3.38106 27.0595 5.60698 25.2454C6.5766 24.4541 7.70362 23.6428 8.87841 23.3857C10.8963 22.94 11.6805 21.3945 12.7794 19.8604C10.9469 20.046 9.24377 20.2175 7.15557 20.4289C8.92338 16.9893 11.1915 14.8552 14.5219 14.0782C15.6911 13.8068 16.9867 14.0268 18.1165 13.6754C19.3447 13.2926 20.4493 12.5012 21.9332 11.7156C19.7972 11.2071 18.1137 10.8043 16.1492 10.3358C19.1115 7.44469 22.2761 6.21341 26.0534 6.74763C26.4694 6.80763 26.9275 6.82191 27.2844 7.01331C29.1759 8.02462 30.8706 7.19329 32.5681 6.55908C31.0561 5.64491 29.5497 4.73644 27.9842 3.79084C30.1708 1.95392 34.4456 1.59396 37.4163 2.91095C38.1414 3.23376 38.9649 3.51087 39.5045 4.05652C40.9716 5.54206 42.7113 5.2221 44.4931 5.15068C43.3127 3.7737 42.1773 2.451 40.9688 1.04545C44.6196 -0.111551 49.1782 1.56254 51.8257 4.85072C52.9518 6.25055 54.4442 7.14949 56.3029 7.54754C55.7464 6.25626 55.1618 4.92785 54.6081 3.58801C54.4901 3.30233 54.4845 2.96808 54.3889 2.44243C57.8121 3.06521 60.4821 4.56789 62.2808 7.47326C62.7249 8.19317 63.2223 8.96451 63.3685 9.77013C63.7479 11.8756 65.378 12.6755 66.817 13.6611C66.6455 11.8784 66.4769 10.1101 66.2745 7.99606C69.3773 9.63872 71.3925 11.7356 72.3312 14.7924C72.5925 15.6494 72.8933 16.5836 72.8005 17.4435C72.5729 19.6032 73.5903 21.1459 74.9028 22.6115C75.3019 20.9031 75.7066 19.1719 76.19 17.1121C79.3237 20.5831 80.7205 24.2027 79.3827 28.3765C78.7335 30.4077 79.2844 32.0332 79.8802 33.913C80.8273 32.2646 81.7126 30.7219 82.7525 28.9107C84.8126 33.2502 84.9194 37.224 82.3309 40.815C81.0943 42.5319 81.3051 44.1917 81.1674 46.0687C82.567 44.8031 83.8599 43.6347 85.4366 42.2091C86.0183 46.4829 85.1892 49.8425 82.4096 52.6079C82.1426 52.8736 81.8841 53.185 81.5609 53.3507C79.7144 54.2963 79.3462 56.116 78.8431 57.9501C80.4788 57.2473 82.0583 56.5646 83.9414 55.7561C83.4889 58.95 82.3028 61.3411 80.15 63.1552C79.2281 63.9323 78.1517 64.7379 77.0247 64.995C74.959 65.4692 73.9528 66.9205 72.9326 68.6088C74.7089 68.4403 76.4233 68.2746 78.2473 68.1003C77.317 71.2628 73.4947 74.2853 70.2654 74.6024C69.293 74.6995 68.2335 74.4767 67.3538 74.7967C66.1762 75.2252 65.1335 76.0394 63.8294 76.8079C65.8305 77.2678 67.5168 77.6563 69.5122 78.1163C66.3841 81.2273 63.0059 82.51 59.0853 81.5673C56.983 81.0616 55.0438 80.8102 53.1354 81.9672C54.6081 82.85 56.1061 83.7499 57.9245 84.8412C54.7402 86.4296 51.851 86.8124 48.841 85.7868C47.9641 85.4868 46.9888 85.1554 46.3452 84.5298C44.7995 83.03 42.9867 83.2385 41.1346 83.2728C42.3178 84.6841 43.4729 86.061 44.7938 87.6351L44.8023 87.6323ZM79.1326 52.2536C79.3209 50.9024 79.4165 49.5311 79.7228 48.2084C80.0039 47 79.5963 46.3429 78.666 45.6001C75.4002 42.9919 74.3491 39.4866 74.959 35.2214C77.0894 36.4869 78.4637 38.2582 79.6329 40.2893C79.5176 38.7924 79.2703 37.3468 79.0455 35.9013C78.9162 35.0671 78.4834 34.6757 77.6543 34.4043C73.7196 33.1159 70.7854 29.3078 70.7713 25.2054C72.8286 26.4224 74.7004 27.5337 76.6003 28.6593C75.4283 26.4539 75.0096 23.4485 71.4037 23.7942C71.266 23.8085 71.1227 23.7742 70.9849 23.7485C67.5252 23.0657 65.229 20.9374 63.6551 17.9092C63.7226 17.7378 63.79 17.5663 63.8547 17.3978C65.9935 17.8892 68.1351 18.3777 70.5915 18.9433C69.7202 18.1634 68.9333 17.5692 68.2756 16.8521C67.2048 15.6809 66.2521 15.0895 64.4505 15.6609C60.7322 16.8407 56.8312 15.2123 54.6587 12.427C55.2939 12.2156 55.8982 11.8927 56.5277 11.8327C58.0482 11.6899 59.5771 11.6699 61.4489 11.5871C59.9706 10.8414 58.7283 10.2386 57.5086 9.58444C56.7554 9.18163 56.1989 9.2959 55.4878 9.81584C52.118 12.2755 47.5706 12.4498 44.4172 10.2872C46.2525 8.6674 48.3969 7.86179 50.7718 7.48469C49.3806 7.13044 48.0063 6.93332 46.6375 6.69907C45.6426 6.53052 44.9625 6.72192 44.288 7.67038C41.9299 10.9871 37.5708 12.5441 34.0324 11.4156C35.3168 9.32732 37.0903 7.88178 39.1925 6.75049C37.599 6.9219 36.0335 7.11902 34.5215 7.52183C34.024 7.65324 33.4506 8.23603 33.2764 8.74168C31.8852 12.7783 28.4339 15.6351 24.0467 15.8865C25.3423 13.6925 26.4975 11.7385 27.6189 9.84155C26.86 10.2301 26.0084 10.7072 25.1231 11.1128C23.6279 11.7956 22.4728 12.6412 22.8326 14.6067C22.9197 15.0866 22.7005 15.6351 22.5712 16.1379C21.7477 19.3661 19.8197 21.6287 16.9024 23.0143C16.7478 22.9543 16.5961 22.8943 16.4415 22.8343C16.9108 20.6888 17.383 18.5434 17.872 16.3094C16.8462 17.4006 15.7951 18.4205 14.8788 19.549C14.5697 19.9289 14.4629 20.6003 14.4966 21.1231C14.6006 22.7229 15.0475 24.3284 14.935 25.9025C14.7552 28.4193 13.5129 30.4991 11.762 32.2189C11.5821 32.1932 11.4022 32.1675 11.2224 32.1418C11.0284 30.0163 10.8317 27.8908 10.6294 25.6654C9.4124 27.9423 7.42819 30.022 9.74404 32.7331C9.95202 32.9759 10.0785 33.3073 10.1909 33.6159C11.3151 36.7069 11.1212 39.6894 9.62881 42.5605C9.44613 42.6091 9.26345 42.6576 9.08076 42.7091C8.21794 40.6093 7.35511 38.5096 6.50353 36.4355C6.33771 37.6554 6.19719 39.0552 5.94424 40.4322C5.75032 41.4921 6.06228 42.1377 6.92511 42.8205C10.264 45.4659 11.6692 49.5968 10.4242 53.5563C8.81658 51.6737 7.37198 49.9796 5.93581 48.2941C6.1466 49.5997 6.38268 50.9966 6.59628 52.3965C6.7368 53.3164 7.14433 53.7992 8.11676 54.1248C12.0599 55.4333 14.5303 58.8443 14.9013 63.0324C13.7631 62.5124 12.6585 62.1382 11.6945 61.5325C10.7305 60.9269 9.90986 60.0927 9.02455 59.3557C9.34776 60.6269 9.90705 61.7097 10.441 62.8067C11.0481 64.0551 11.8913 64.5693 13.3865 64.635C17.4055 64.8093 20.2132 67.0062 22.1131 70.9171C20.7781 70.7714 19.6623 70.7457 18.5943 70.5058C17.5151 70.2601 16.4808 69.803 15.4269 69.4373C16.003 70.3743 16.7984 71.0371 17.5038 71.7885C18.5381 72.8883 19.5077 73.3483 21.1631 72.8341C24.7437 71.7199 29.0269 73.2569 31.2275 76.3679C28.7796 76.5907 26.5705 76.7907 24.4795 76.9793C25.0585 77.2907 25.8539 77.6735 26.6014 78.1306C28.1276 79.0647 29.5974 79.6075 31.1151 78.0791C31.4608 77.7306 32.0089 77.5649 32.4895 77.3849C35.4939 76.2651 38.3831 76.5079 41.5393 78.1991C40.2408 78.9276 39.2684 79.5847 38.2116 80.0389C37.1971 80.4731 36.0953 80.6988 34.6873 81.1188C35.8817 81.2873 36.7446 81.2959 37.5343 81.5416C39.5635 82.1701 40.8929 81.5102 42.2841 79.8504C44.6702 77.0078 47.9248 76.2879 51.7021 76.9564C50.3249 79.1504 48.6246 80.6274 46.4914 81.6558C47.2952 81.6501 48.0597 81.5416 48.8269 81.4702C50.7381 81.293 52.534 80.9874 52.9471 78.5705C53.023 78.1248 53.3209 77.702 53.5711 77.3021C55.3304 74.5081 57.8683 73.0197 60.9992 72.5455C61.1482 72.6712 61.2971 72.7969 61.4461 72.9255C60.3219 74.8224 59.1977 76.7193 58.0454 78.6591C59.0993 78.0963 60.1729 77.4564 61.2999 76.9393C62.3426 76.4622 62.9385 75.8565 62.8289 74.5767C62.7614 73.7939 62.9469 72.9626 63.1493 72.1884C63.9727 69.0259 65.9232 66.8433 68.7337 65.4464C68.908 65.5206 69.085 65.592 69.2593 65.6663C68.7562 67.8546 68.2559 70.0458 67.7472 72.2627C68.7422 71.1828 69.8158 70.1258 70.7432 68.9488C71.0721 68.5317 71.1817 67.8118 71.1479 67.2433C71.0608 65.7835 70.628 64.3236 70.7095 62.8838C70.8585 60.2555 72.0361 58.0558 73.9303 56.3017C74.1158 56.3217 74.2985 56.3389 74.484 56.3589C74.6526 58.5615 74.8213 60.7641 74.9983 63.0809C75.6251 61.8096 76.2406 60.5527 76.8589 59.2985C77.2664 58.4758 77.2158 57.8244 76.6453 56.9788C74.2423 53.4192 74.144 49.6825 76.1394 45.7487C77.8313 47.6685 78.5817 49.8596 79.141 52.2508L79.1326 52.2536Z" fill="black"/>
<path d="M31.3905 51.6568C31.7053 50.4712 31.9948 49.5685 32.1747 48.6457C32.4248 47.3573 33.0909 46.866 34.4821 47.3316C34.8643 48.6486 35.2718 50.0484 35.7215 51.5882C36.0279 50.3398 36.3342 49.1914 36.59 48.0315C37.0818 45.7918 37.0678 45.7889 39.4623 46.1403C38.6613 48.9628 37.9081 51.7854 37.0228 54.5622C36.9104 54.9164 36.115 55.2364 35.64 55.2278C35.2269 55.2221 34.6114 54.825 34.4512 54.4422C34.0605 53.508 33.8806 52.4824 33.5434 51.2226C33.2061 52.5167 33.0038 53.5566 32.644 54.5336C32.5232 54.8593 32.0145 55.2107 31.6632 55.2335C31.1769 55.265 30.3197 55.1164 30.2326 54.8421C29.3304 52.0196 28.5519 49.1571 27.7397 46.306C29.8588 45.6975 30.005 45.7689 30.4462 47.5802C30.7582 48.8571 31.042 50.1399 31.3933 51.6568H31.3905Z" fill="black"/>
<path d="M54.5238 52.1823C54.9623 52.7593 55.3332 53.2393 55.6986 53.7249C56.0274 54.1592 56.3535 54.5963 56.6795 55.0334C53.8493 56.3389 53.1298 53.7078 51.525 52.0223V55.1705H49.1586V46.0773C50.7971 46.0773 52.4188 45.9516 54.0095 46.1201C55.1365 46.2401 55.901 47.0629 56.1202 48.2913C56.4012 49.874 56.0724 51.2024 54.5238 52.1851V52.1823ZM51.5475 50.711C52.4946 50.2825 53.1945 50.0397 53.7875 49.6369C53.9224 49.5454 53.7959 48.6284 53.6048 48.5455C52.9893 48.2827 52.2867 48.237 51.5475 48.0942V50.711Z" fill="black"/>
<path d="M33.0599 36.1499C34.038 37.0955 34.468 38.1097 33.9312 39.3924C33.3663 40.7437 32.2196 41.0551 30.9633 41.1093C29.7576 41.1608 28.5491 41.1208 27.2253 41.1208V31.8447C28.6924 31.8447 30.2241 31.7076 31.7193 31.8819C33.2792 32.0647 34.6254 34.1073 33.0599 36.1499ZM29.4822 39.221C30.3478 38.9496 31.0336 38.7925 31.6519 38.4925C31.7755 38.4325 31.7474 37.5783 31.6238 37.5298C30.983 37.2812 30.286 37.1727 29.4822 36.987V39.221ZM29.336 35.6671C30.2185 35.4014 30.8509 35.2615 31.4327 34.9986C31.5535 34.9444 31.5563 34.1987 31.4636 34.1616C30.8734 33.9273 30.241 33.8016 29.5075 33.6102C29.4484 34.3387 29.4091 34.7872 29.336 35.67V35.6671Z" fill="black"/>
<path d="M58.2112 55.2646V46.06C59.7654 46.06 61.2606 45.9286 62.7249 46.0972C64.2397 46.2714 65.0548 47.3656 65.1222 48.9597C65.1672 50.0053 65.1447 51.0508 65.1306 52.0993C65.1054 54.0219 64.1638 55.1047 62.2499 55.2475C60.9514 55.3446 59.6417 55.2646 58.2112 55.2646ZM60.5327 48.2883V52.982C62.545 53.2449 62.7895 53.042 62.8373 51.248C62.8485 50.8223 62.8485 50.3966 62.8373 49.971C62.7783 48.1826 62.5871 48.0341 60.5327 48.2883Z" fill="black"/>
<path d="M35.907 41.0235V31.8789H42.2025V33.9187H38.3774C37.8912 35.1899 38.3353 35.5356 39.3976 35.4642C40.1818 35.4128 40.9715 35.4528 41.8596 35.4528V37.4411H38.3746C38.2097 38.3934 38.6163 38.8724 39.5944 38.8781C40.4291 38.8809 41.2638 38.8781 42.18 38.8781V41.0235H35.9098H35.907Z" fill="black"/>
<path d="M47.8404 55.2018C46.4548 55.2904 45.325 55.6818 44.8135 53.9677C44.6842 53.5363 43.3548 53.4706 42.4273 53.1935C42.1772 55.2504 41.1036 55.6332 39.3611 55.0876C40.3701 52.1136 41.379 49.1426 42.3852 46.1715C44.434 45.7201 44.524 45.7544 45.2126 47.6856C46.0838 50.131 46.927 52.585 47.8376 55.199L47.8404 55.2018ZM42.9051 51.2737H44.2345C44.0097 50.4396 43.8185 49.7311 43.515 48.6112C43.2564 49.7396 43.0906 50.4595 42.9051 51.2737Z" fill="black"/>
<path d="M27.8437 55.1818C26.4722 55.3075 25.2496 55.6732 24.8505 53.8563C24.7943 53.5991 23.7404 53.4849 23.1445 53.4734C22.8213 53.4677 22.2424 53.782 22.203 54.0219C21.891 55.9703 20.5757 55.139 19.3447 55.1932C20.4127 52.1964 21.3992 49.3539 22.4475 46.5314C22.7258 45.7801 24.5104 45.7058 24.7831 46.4457C25.8398 49.3082 26.8094 52.2022 27.8437 55.1761V55.1818ZM24.3615 51.3023C24.0945 50.4367 23.8809 49.751 23.6673 49.0625L23.3103 49.114C23.2064 49.8139 23.1024 50.5138 22.9871 51.3023H24.3615Z" fill="black"/>
<path d="M43.7568 39.5094C44.1868 39.0923 44.6168 38.6723 45.0889 38.2152C46.0867 38.7923 47.076 39.5608 48.4025 38.2266C47.7477 37.9067 47.253 37.6496 46.7443 37.421C46.067 37.1182 45.2688 36.9782 44.7208 36.524C43.1553 35.2299 43.5656 32.8216 45.4206 31.9845C47.135 31.2103 48.8128 31.5732 50.1759 33.0901C49.7319 33.4758 49.2906 33.8615 48.8606 34.2357C48.3604 33.9843 47.9135 33.5986 47.4498 33.5729C47.0394 33.5501 46.6066 33.93 46.185 34.1329C46.4464 34.47 46.6431 34.9328 46.9832 35.1127C47.5088 35.3898 48.1383 35.4584 48.7145 35.6412C49.8274 35.9983 50.3614 36.8182 50.4458 37.9724C50.5273 39.1237 50.0691 39.995 49.1108 40.5949C47.2867 41.7348 45.2997 41.3406 43.7596 39.5036L43.7568 39.5094Z" fill="black"/>
<path d="M58.7761 31.8276V33.8988C57.992 33.9531 57.2641 34.0045 56.4069 34.0645V41.0037H54.0798V34.0588C53.1748 34.0045 52.4497 33.9588 51.6487 33.9102V31.8276H58.7761Z" fill="black"/>
</svg>
