<svg width="34" height="34" viewBox="0 0 34 34" fill="none" xmlns="http://www.w3.org/2000/svg">
<path d="M27.625 10.625H4.25C3.96821 10.625 3.69796 10.7369 3.4987 10.9362C3.29944 11.1355 3.1875 11.4057 3.1875 11.6875V18.0625C3.19068 19.8714 3.57752 21.659 4.32249 23.3074C5.06746 24.9558 6.1536 26.4273 7.50922 27.625H4.25C3.96821 27.625 3.69796 27.7369 3.4987 27.9362C3.29944 28.1355 3.1875 28.4057 3.1875 28.6875C3.1875 28.9693 3.29944 29.2395 3.4987 29.4388C3.69796 29.6381 3.96821 29.75 4.25 29.75H27.625C27.9068 29.75 28.177 29.6381 28.3763 29.4388C28.5756 29.2395 28.6875 28.9693 28.6875 28.6875C28.6875 28.4057 28.5756 28.1355 28.3763 27.9362C28.177 27.7369 27.9068 27.625 27.625 27.625H24.3658C25.993 26.1828 27.227 24.3506 27.9517 22.3005C29.3012 22.2174 30.5683 21.6228 31.4946 20.638C32.421 19.6531 32.937 18.3521 32.9375 17V15.9375C32.9375 14.5285 32.3778 13.1773 31.3815 12.181C30.3852 11.1847 29.034 10.625 27.625 10.625ZM30.8125 17C30.812 17.6874 30.5893 18.3563 30.1777 18.9068C29.766 19.4573 29.1874 19.8599 28.5281 20.0547C28.6334 19.3958 28.6867 18.7297 28.6875 18.0625V12.9333C29.3088 13.1529 29.8467 13.5598 30.2273 14.0978C30.6078 14.6358 30.8123 15.2785 30.8125 15.9375V17ZM14.875 7.4375V3.1875C14.875 2.90571 14.9869 2.63546 15.1862 2.4362C15.3855 2.23694 15.6557 2.125 15.9375 2.125C16.2193 2.125 16.4895 2.23694 16.6888 2.4362C16.8881 2.63546 17 2.90571 17 3.1875V7.4375C17 7.71929 16.8881 7.98954 16.6888 8.1888C16.4895 8.38806 16.2193 8.5 15.9375 8.5C15.6557 8.5 15.3855 8.38806 15.1862 8.1888C14.9869 7.98954 14.875 7.71929 14.875 7.4375ZM19.125 7.4375V3.1875C19.125 2.90571 19.2369 2.63546 19.4362 2.4362C19.6355 2.23694 19.9057 2.125 20.1875 2.125C20.4693 2.125 20.7395 2.23694 20.9388 2.4362C21.1381 2.63546 21.25 2.90571 21.25 3.1875V7.4375C21.25 7.71929 21.1381 7.98954 20.9388 8.1888C20.7395 8.38806 20.4693 8.5 20.1875 8.5C19.9057 8.5 19.6355 8.38806 19.4362 8.1888C19.2369 7.98954 19.125 7.71929 19.125 7.4375ZM10.625 7.4375V3.1875C10.625 2.90571 10.7369 2.63546 10.9362 2.4362C11.1355 2.23694 11.4057 2.125 11.6875 2.125C11.9693 2.125 12.2395 2.23694 12.4388 2.4362C12.6381 2.63546 12.75 2.90571 12.75 3.1875V7.4375C12.75 7.71929 12.6381 7.98954 12.4388 8.1888C12.2395 8.38806 11.9693 8.5 11.6875 8.5C11.4057 8.5 11.1355 8.38806 10.9362 8.1888C10.7369 7.98954 10.625 7.71929 10.625 7.4375Z" fill="black"/>
</svg>
