<svg width="36" height="36" viewBox="0 0 36 36" fill="none" xmlns="http://www.w3.org/2000/svg">
<g clip-path="url(#clip0_109_46164)">
<path d="M24.882 7.78651L24.969 7.85401L25.086 7.96501L25.194 8.09101L25.2135 8.11801C25.4427 8.43225 25.5406 8.82335 25.4865 9.20851L25.4535 9.37501L25.4085 9.51301C23.9235 13.6005 24.4095 17.25 26.427 21.072C27.5477 21.2473 28.5958 21.7366 29.4497 22.4833C30.3035 23.23 30.9283 24.2035 31.2514 25.2908C31.5745 26.3781 31.5828 27.5348 31.2753 28.6266C30.9678 29.7184 30.357 30.7007 29.5139 31.4596C28.6708 32.2184 27.6299 32.7228 26.5118 32.914C25.3937 33.1053 24.2443 32.9758 23.1969 32.5403C22.1495 32.1049 21.2469 31.3815 20.5939 30.454C19.9409 29.5265 19.5642 28.4329 19.5075 27.3L19.5 27L19.5075 26.7C19.5649 25.5559 19.9485 24.452 20.613 23.5188C21.2774 22.5856 22.1951 21.862 23.2575 21.4335C21.837 18.3885 21.2445 15.336 21.6795 12.123C21.4305 12.2385 21.1815 12.348 20.931 12.45L21.072 12.354C17.7075 14.559 15.744 16.86 15.102 19.209C16.0441 19.8641 16.8036 20.7484 17.3089 21.7786C17.8141 22.8088 18.0485 23.9508 17.9897 25.0967C17.9309 26.2426 17.581 27.3546 16.973 28.3277C16.365 29.3008 15.519 30.1028 14.5148 30.6581C13.5107 31.2133 12.3816 31.5034 11.2342 31.501C10.0868 31.4985 8.95892 31.2036 7.95715 30.6441C6.95539 30.0846 6.11278 29.279 5.50893 28.3033C4.90507 27.3277 4.55989 26.2142 4.506 25.068L4.5 24.75L4.5075 24.432C4.5521 23.4839 4.79613 22.5559 5.22366 21.7086C5.6512 20.8612 6.25263 20.1135 6.9887 19.5143C7.72476 18.9152 8.57892 18.4779 9.4954 18.2312C10.4119 17.9845 11.3701 17.9338 12.3075 18.0825C12.8055 16.473 13.725 14.9385 15.0525 13.479C12.3615 13.335 9.6735 12.3405 7.02 10.5L6.618 10.215L6.5415 10.155L6.4725 10.095L6.4065 10.029L6.3465 9.96001L6.2865 9.88501L6.2385 9.81451L6.186 9.72451L6.1065 9.55951L6.0495 9.38551L6.015 9.21001L6.0075 9.14701L6 8.97001L6.015 8.79301L6.0495 8.61751L6.1065 8.44501L6.1515 8.34601L6.186 8.27851L6.2385 8.18851L6.2865 8.11951L6.3465 8.04301L6.4065 7.97401L6.4725 7.90801L6.5415 7.84801L6.6165 7.78801C12.6435 3.40501 18.8565 3.40351 24.882 7.78651Z" fill="black"/>
</g>
<defs>
<clipPath id="clip0_109_46164">
<rect width="36" height="36" fill="white"/>
</clipPath>
</defs>
</svg>
