<svg width="62" height="22" viewBox="0 0 62 22" fill="none" xmlns="http://www.w3.org/2000/svg">
<path d="M37.9931 21.2223H42.9324V0.777832H37.9931V21.2223ZM29.3208 15.3943C29.3168 15.7436 29.1761 16.0774 28.9288 16.3242C28.6816 16.571 28.3475 16.7111 27.9982 16.7144H25.1281C24.7788 16.7111 24.4447 16.571 24.1974 16.3242C23.9502 16.0774 23.8095 15.7436 23.8054 15.3943V7.1535H18.8661V15.7947C18.8661 19.3287 21.1368 21.1939 24.4667 21.1939H29.2924C32.364 21.1939 34.2318 18.9826 34.2318 15.7947V7.15092H29.2924C29.3182 7.15092 29.3182 15.1334 29.3182 15.3917L29.3208 15.3943ZM57.0917 7.1535V15.3943C57.0876 15.7436 56.9469 16.0774 56.6996 16.3242C56.4524 16.571 56.1183 16.7111 55.769 16.7144H52.8963C52.5475 16.7104 52.214 16.57 51.9673 16.3233C51.7206 16.0766 51.5803 15.7432 51.5762 15.3943V7.1535H46.6369V15.7947C46.6369 19.3287 48.9051 21.1939 52.235 21.1939H57.0607C60.1348 21.1939 62 18.9826 62 15.7947V7.15092L57.0917 7.1535ZM9.765 7.1535H6.60558C5.48442 7.1535 4.93933 7.43767 4.93933 7.43767V0.780414H0V21.1965H4.90833V12.9841C4.90833 12.2659 5.51283 11.664 6.231 11.664H9.10367C9.82183 11.664 10.4237 12.2659 10.4237 12.9841V21.2249H15.3631V12.3227C15.3631 8.58983 12.865 7.15608 9.765 7.15608V7.1535Z" fill="black"/>
</svg>
