<svg width="503" height="112" viewBox="0 0 503 112" fill="none" xmlns="http://www.w3.org/2000/svg">
<path d="M0.609375 26.8V37H30.1294V26.8H23.8894V11.8H30.1294V1.6H0.609375V11.8H6.90938V26.8H0.609375ZM33.7894 29.92L39.4294 35.8V46H8.22938L0.00937517 37.48V26.2H6.36938V19L0.00937517 12.28V0.999999H30.6094L39.4294 10.24V20.8H33.7894V29.92ZM83.9677 26.8V37H112.408V26.8H106.048V11.8H112.408V1.6H82.9477L79.3477 11.2L75.7477 1.6H44.8477V11.8H51.1477V26.8H44.8477V37H68.1877V26.8H63.1477V12.52H63.2077L73.1677 37H78.6277L89.0077 12.64H89.0677V26.8H83.9677ZM115.648 29.26L121.648 35.44V46H91.5877L88.5877 42.7L87.2077 46H80.6677L77.0077 42.16V46H52.6477L44.2477 37.48V26.2H50.6077V18.82L44.2477 12.22V0.999999H76.0477L80.6677 5.68L82.4077 0.999999H112.888L121.588 10.06V20.8H115.648V29.26ZM150.995 11.2H151.475L154.595 19H147.875L150.995 11.2ZM153.395 26.8V37H182.555V26.8H177.635L166.355 1.6H142.895L131.195 26.8H126.155V37H148.835V26.8H145.055L146.075 23.98H156.455L157.415 26.8H153.395ZM183.035 26.2L191.855 35.38V46H161.615L157.535 41.8V46H133.715L125.555 37.48V26.2H130.775L142.535 0.999999H166.715L174.215 8.8L182.555 26.2H183.035ZM233.124 37V25.12H238.344V17.32H215.364V25.12H219.984C219.444 26.38 218.364 27.34 215.604 27.34C212.364 27.34 210.384 25.18 210.384 19.3C210.384 13.06 212.604 11.38 215.964 11.38C219.444 11.38 220.704 13.72 221.544 16.42H232.104V1.6H221.184V4.84H221.004C219.084 2.8 214.524 0.999999 209.964 0.999999C198.804 0.999999 191.304 8.74 191.304 19.42C191.304 31.18 200.664 37.78 211.584 37.78C218.424 37.78 222.324 35.8 224.664 33.76L226.584 37H233.124ZM241.344 19.6L246.744 25.24V34.18H241.884V46H234.084L231.804 43.42C229.584 45.1 225.744 46.6 218.904 46.6C208.824 46.6 200.844 39.52 195.684 32.74C193.224 29.5 190.704 25.72 190.704 19.42C190.704 8.02 198.564 0.399999 209.964 0.399999C214.644 0.399999 218.484 2.08 220.524 3.58V0.999999H232.584L241.344 10.12V19.6ZM251.626 26.8V37H297.766V19.84H284.626V26.8H274.846V23.44H281.806V15.16H274.846V11.8H284.626V17.44H297.766V1.6H251.626V11.8H257.806V26.8H251.626ZM302.986 24.52L307.006 28.66V46H259.306L250.966 37.42V26.2H257.266V18.88L250.966 12.28V0.999999H298.246L307.006 10.06V24.52H302.986ZM353.547 27.04C353.547 19.96 349.407 16.66 343.347 15.22L332.187 12.58C328.407 11.68 328.287 11.32 328.227 10.48C328.167 9.4 329.667 9.1 331.767 9.1C336.987 9.1 341.307 11.38 343.107 14.32H351.867V1.6H342.327V4.66H342.207C340.347 2.56 334.527 0.879997 329.847 0.879997C320.247 0.879997 312.267 5.86 312.267 13.12C312.267 18.16 315.027 23.02 322.887 24.46L331.767 26.08C335.307 26.74 336.207 27.28 336.207 28.18C336.207 29.26 335.127 29.68 331.827 29.68C328.287 29.68 324.387 28.06 321.627 24.88H312.087V37H323.427V34.84H323.607C325.827 36.64 330.747 37.84 336.687 37.84C345.807 37.84 353.547 34.36 353.547 27.04ZM361.287 34.24C361.287 41.92 353.427 46.6 344.667 46.6C339.147 46.6 334.587 45.4 332.307 43.96V46H320.487L311.487 37.48V24.28H318.807C315.867 22.24 311.607 20.02 311.607 13.12C311.607 5.2 319.827 0.34 329.847 0.34C334.827 0.34 339.987 2.02 341.727 3.34V0.879997H352.347L360.327 9.16V23.26H355.287C358.047 25.48 361.287 28.54 361.287 34.24ZM384.458 26.8V37H430.598V19.84H417.458V26.8H407.678V23.44H414.638V15.16H407.678V11.8H417.458V17.44H430.598V1.6H384.458V11.8H390.638V26.8H384.458ZM435.818 24.52L439.838 28.66V46H392.138L383.798 37.42V26.2H390.098V18.88L383.798 12.28V0.999999H431.078L439.838 10.06V24.52H435.818ZM481.699 11.8V19.36H493.039V1.6H444.019V19.36H455.479V11.8H460.099V26.8H453.799V37H483.379V26.8H477.079V11.8H481.699ZM493.519 0.999999L502.219 10V28.3H489.319L486.679 25.54V29.38L492.619 35.44V46H461.359L453.199 37.48V28.3H451.579L443.419 19.84V0.999999H493.519ZM12.2709 91.8V102H58.4109V84.84H45.2709V91.8H35.4909V88.44H42.4509V80.16H35.4909V76.8H45.2709V82.44H58.4109V66.6H12.2709V76.8H18.4509V91.8H12.2709ZM63.6309 89.52L67.6509 93.66V111H19.9509L11.6109 102.42V91.2H17.9109V83.88L11.6109 77.28V66H58.8909L67.6509 75.06V89.52H63.6309ZM90.8513 91.8V102H122.951V91.8H117.431L110.351 85.2L119.351 76.8H122.951V66.6H105.671V76.8H108.311L104.771 80.1L101.111 76.8H103.871V66.6H72.4913V76.8H77.5913L84.2513 82.86L74.5313 91.8H71.8313V102H89.0513V91.8H85.6913L89.7713 87.84L94.0313 91.8H90.8513ZM123.431 91.2L130.871 98.88V111H79.5713L71.2313 102.48V91.2H74.2913L80.1113 85.8L71.8313 77.28V66H123.431L130.871 73.68V85.8H124.931L119.411 91.2H123.431ZM171.562 76.8V84.36H182.902V66.6H133.882V84.36H145.342V76.8H149.962V91.8H143.662V102H173.242V91.8H166.942V76.8H171.562ZM183.382 66L192.082 75V93.3H179.182L176.542 90.54V94.38L182.482 100.44V111H151.222L143.062 102.48V93.3H141.442L133.282 84.84V66H183.382ZM227.454 79.74C227.454 82.02 226.014 83.04 222.414 83.04H219.534V76.8H222.474C225.894 76.8 227.454 77.4 227.454 79.74ZM251.874 92.46C251.874 91.56 251.874 90.6 251.694 89.64L245.874 89.4C246.174 91.2 245.514 92.22 244.374 92.22C243.234 92.22 242.754 91.8 242.334 90.12C241.674 87.6 240.354 85.74 237.414 85.14V84.72C242.094 83.82 246.654 81.12 246.654 76.68C246.654 68.7 238.674 66.6 231.294 66.6H196.254V76.8H202.554V91.8H196.254V102H224.814V91.8H219.534V88.08H222.234C223.794 88.08 225.234 88.5 225.774 92.16C226.734 98.88 230.274 103.08 239.994 103.08C247.734 103.08 251.874 98.7 251.874 92.46ZM260.994 101.64C260.994 107.28 257.334 111.6 248.634 111.6C241.074 111.6 236.454 109.38 233.334 105.84V111H203.874L195.654 102.48V91.2H202.014V83.82L195.654 77.22V66H231.534C236.874 66 241.494 67.2 244.074 69.36C251.994 75.96 255.174 79.32 255.174 84.48C255.174 86.94 254.394 88.74 253.074 90.06L260.454 97.56C260.754 98.94 260.994 100.62 260.994 101.64ZM289.979 76.2H290.459L293.579 84H286.859L289.979 76.2ZM292.379 91.8V102H321.539V91.8H316.619L305.339 66.6H281.879L270.179 91.8H265.139V102H287.819V91.8H284.039L285.059 88.98H295.439L296.399 91.8H292.379ZM322.019 91.2L330.839 100.38V111H300.599L296.519 106.8V111H272.699L264.539 102.48V91.2H269.759L281.519 66H305.699L313.199 73.8L321.539 91.2H322.019ZM335.355 91.8V102H364.875V91.8H358.635V76.8H364.875V66.6H335.355V76.8H341.655V91.8H335.355ZM368.535 94.92L374.175 100.8V111H342.975L334.755 102.48V91.2H341.115V84L334.755 77.28V66H365.355L374.175 75.24V85.8H368.535V94.92ZM416.074 76.8V84.36H427.414V66.6H378.394V84.36H389.854V76.8H394.474V91.8H388.174V102H417.754V91.8H411.454V76.8H416.074ZM427.894 66L436.594 75V93.3H423.694L421.054 90.54V94.38L426.994 100.44V111H395.734L387.574 102.48V93.3H385.954L377.794 84.84V66H427.894ZM481.926 92.04C481.926 84.96 477.786 81.66 471.726 80.22L460.566 77.58C456.786 76.68 456.666 76.32 456.606 75.48C456.546 74.4 458.046 74.1 460.146 74.1C465.366 74.1 469.686 76.38 471.486 79.32H480.246V66.6H470.706V69.66H470.586C468.726 67.56 462.906 65.88 458.226 65.88C448.626 65.88 440.646 70.86 440.646 78.12C440.646 83.16 443.406 88.02 451.266 89.46L460.146 91.08C463.686 91.74 464.586 92.28 464.586 93.18C464.586 94.26 463.506 94.68 460.206 94.68C456.666 94.68 452.766 93.06 450.006 89.88H440.466V102H451.806V99.84H451.986C454.206 101.64 459.126 102.84 465.066 102.84C474.186 102.84 481.926 99.36 481.926 92.04ZM489.666 99.24C489.666 106.92 481.806 111.6 473.046 111.6C467.526 111.6 462.966 110.4 460.686 108.96V111H448.866L439.866 102.48V89.28H447.186C444.246 87.24 439.986 85.02 439.986 78.12C439.986 70.2 448.206 65.34 458.226 65.34C463.206 65.34 468.366 67.02 470.106 68.34V65.88H480.726L488.706 74.16V88.26H483.666C486.426 90.48 489.666 93.54 489.666 99.24Z" fill="black"/>
</svg>
