<svg width="45" height="45" viewBox="0 0 45 45" fill="none" xmlns="http://www.w3.org/2000/svg">
<path d="M25.5863 19.1945C25.4794 19.1345 25.2863 19.1045 24.9994 19.1045V25.7457C25.3763 25.7457 25.6069 25.6689 25.695 25.517C25.7831 25.3651 25.8263 24.9526 25.8263 24.2795V20.357C25.8263 19.8995 25.8113 19.607 25.7831 19.4776C25.7723 19.4191 25.7492 19.3636 25.7152 19.3148C25.6813 19.266 25.6373 19.225 25.5863 19.1945ZM32.1469 21.4107C31.9931 21.4107 31.89 21.4689 31.8431 21.5814C31.7963 21.6957 31.7738 21.9826 31.7738 22.4439V25.1176C31.7738 25.562 31.8 25.847 31.8506 25.9726C31.905 26.0964 32.0119 26.1601 32.1656 26.1601C32.3269 26.1601 32.5388 26.0945 32.5875 25.967C32.6381 25.8376 32.6606 25.5282 32.6606 25.0389V22.4439C32.6606 22.0164 32.6344 21.737 32.58 21.6057C32.52 21.4764 32.3044 21.4107 32.1469 21.4107Z" fill="black"/>
<path d="M37.5 5.625H7.5C7.00272 5.625 6.52581 5.82254 6.17417 6.17417C5.82254 6.52581 5.625 7.00272 5.625 7.5V37.5C5.625 37.9973 5.82254 38.4742 6.17417 38.8258C6.52581 39.1775 7.00272 39.375 7.5 39.375H37.5C37.9973 39.375 38.4742 39.1775 38.8258 38.8258C39.1775 38.4742 39.375 37.9973 39.375 37.5V7.5C39.375 7.00272 39.1775 6.52581 38.8258 6.17417C38.4742 5.82254 37.9973 5.625 37.5 5.625ZM12.4331 27.4931H9.80438V17.3737H12.4331V27.4931ZM21.4744 27.4931H19.1812L19.17 20.6625L18.2513 27.4931H16.6106L15.6412 20.8125L15.6338 27.4931H13.3331V17.3737H16.7438C16.8394 17.9869 16.9444 18.705 17.055 19.53L17.4319 22.1006L18.0394 17.3737H21.4744V27.4931ZM28.3444 24.4913C28.3444 25.3988 28.2938 26.0062 28.2094 26.31C28.1404 26.5906 27.9841 26.842 27.7631 27.0281C27.5315 27.2094 27.2604 27.3334 26.9719 27.39C26.6606 27.4594 26.1881 27.4931 25.5581 27.4931H22.3725V17.3737H24.3356C25.6069 17.3737 26.3419 17.4319 26.79 17.5481C27.24 17.6644 27.5813 17.8556 27.8119 18.1219C28.0462 18.3881 28.1925 18.6844 28.2506 19.0125C28.3088 19.3388 28.3463 19.98 28.3463 20.9363V24.4913H28.3444ZM35.1956 25.17C35.1956 25.7775 35.1525 26.2294 35.0719 26.5256C34.9754 26.8436 34.7703 27.1177 34.4925 27.3C34.1796 27.5217 33.8033 27.6362 33.42 27.6263C33.1237 27.6263 32.7356 27.5606 32.4788 27.4312C32.2037 27.2895 31.9625 27.09 31.7719 26.8463L31.6069 27.4912H29.2406V17.3737H31.7719V20.6644C31.9637 20.4344 32.2038 20.2494 32.475 20.1225C32.7319 20.0025 33.12 19.9425 33.42 19.9425C33.7687 19.9425 34.0725 19.9969 34.3275 20.1056C34.542 20.1917 34.7306 20.3317 34.8752 20.512C35.0197 20.6923 35.1152 20.9069 35.1525 21.135C35.1825 21.3225 35.1956 21.7219 35.1956 22.3312V25.17Z" fill="black"/>
</svg>
