<svg width="35" height="35" viewBox="0 0 35 35" fill="none" xmlns="http://www.w3.org/2000/svg">
<path d="M24.3906 3.2375C24.5957 3.03268 24.8737 2.91763 25.1635 2.91763C25.4533 2.91763 25.7313 3.03268 25.9364 3.2375L31.7698 9.07084C31.963 9.27818 32.0681 9.55241 32.0631 9.83577C32.0581 10.1191 31.9433 10.3895 31.743 10.5899C31.5426 10.7903 31.2722 10.9051 30.9888 10.9101C30.7055 10.9151 30.4313 10.8099 30.2239 10.6167L29.5385 9.93125L27.0666 12.3958L30.6687 15.9979C30.7731 16.0989 30.8564 16.2196 30.9137 16.3531C30.9709 16.4865 31.001 16.6301 31.0022 16.7753C31.0034 16.9205 30.9757 17.0645 30.9206 17.1989C30.8655 17.3333 30.7843 17.4554 30.6815 17.558C30.5788 17.6607 30.4566 17.7418 30.3222 17.7968C30.1877 17.8517 30.0437 17.8793 29.8985 17.878C29.7533 17.8767 29.6097 17.8464 29.4763 17.789C29.3429 17.7316 29.2223 17.6483 29.1214 17.5438L26.9777 15.4L17.0012 25.3779C15.9758 26.4031 14.5852 26.9791 13.1352 26.9792H9.56809L4.78475 31.7625C4.57856 31.9618 4.30233 32.0722 4.01555 32.0699C3.72877 32.0675 3.45439 31.9526 3.2515 31.7499C3.04862 31.5472 2.93346 31.2729 2.93083 30.9862C2.92821 30.6994 3.03832 30.423 3.23746 30.2167L8.02079 25.4333V21.8648C8.02066 21.1466 8.162 20.4354 8.43675 19.7718C8.71149 19.1082 9.11426 18.5052 9.62204 17.9973L10.1208 17.5L12.352 19.7313C12.5582 19.9306 12.8345 20.041 13.1212 20.0386C13.408 20.0363 13.6824 19.9214 13.8853 19.7187C14.0882 19.516 14.2033 19.2417 14.206 18.9549C14.2086 18.6681 14.0985 18.3918 13.8993 18.1854L11.6666 15.9542L13.0375 14.5833L15.2687 16.8146C15.3688 16.922 15.4896 17.0082 15.6238 17.068C15.7579 17.1278 15.9028 17.1599 16.0496 17.1625C16.1965 17.1651 16.3424 17.1381 16.4785 17.0831C16.6147 17.0281 16.7384 16.9462 16.8423 16.8424C16.9462 16.7385 17.028 16.6148 17.0831 16.4786C17.1381 16.3424 17.1651 16.1965 17.1625 16.0497C17.1599 15.9028 17.1278 15.758 17.068 15.6238C17.0082 15.4896 16.922 15.3689 16.8145 15.2688L14.5833 13.0375L15.9541 11.6667L18.1854 13.8979C18.2855 14.0054 18.4063 14.0916 18.5404 14.1514C18.6746 14.2111 18.8194 14.2433 18.9663 14.2459C19.1131 14.2485 19.259 14.2214 19.3952 14.1664C19.5314 14.1114 19.6551 14.0295 19.759 13.9257C19.8628 13.8218 19.9447 13.6981 19.9997 13.5619C20.0547 13.4257 20.0817 13.2799 20.0792 13.133C20.0766 12.9861 20.0444 12.8413 19.9846 12.7071C19.9249 12.573 19.8387 12.4522 19.7312 12.3521L17.5 10.1208L19.6 8.02084L17.4562 5.87709C17.263 5.66975 17.1578 5.39551 17.1628 5.11216C17.1678 4.8288 17.2826 4.55845 17.483 4.35806C17.6834 4.15766 17.9538 4.04287 18.2371 4.03787C18.5205 4.03287 18.7947 4.13805 19.002 4.33125L22.6041 7.93334L25.0745 5.46875L24.3891 4.78334C24.1843 4.57826 24.0693 4.30027 24.0693 4.01042C24.0693 3.72058 24.1858 3.44258 24.3906 3.2375ZM27.9912 8.38542L26.6204 7.01459L24.1514 9.47917L25.5208 10.85L27.9912 8.38542Z" fill="white"/>
</svg>
