<svg width="426" height="64" viewBox="0 0 426 64" fill="none" xmlns="http://www.w3.org/2000/svg">
<g clip-path="url(#clip0_82_33)">
<path d="M0 5.61856H20.4785C29.2807 5.61856 38.5871 8.39996 38.5871 22.2372V29.6891C38.5871 43.5264 29.2807 46.3078 20.4785 46.3078H17.7701V49.1729H19.5493V62.9265H0V49.1729H1.44062V19.3722H0V5.61856ZM17.7701 19.3722V32.5542H20.0535C21.5734 32.5542 22.2505 31.8989 22.2505 30.2608V21.6656C22.2505 20.0274 21.5734 19.3722 20.0535 19.3722H17.7701Z" fill="#CE3D31"/>
<path d="M57.4521 47.953C57.4521 49.5911 58.1292 50.2464 59.7355 50.2464C61.2554 50.2464 61.9325 49.5911 61.9325 47.953V19.3722H60.4918V5.61856H78.4276V19.3722H76.987V46.6424C76.987 58.1863 70.9796 64 59.1376 64C47.2957 64 41.1154 58.1863 41.1154 46.6424V19.3722H39.6748V5.61856H58.8783V19.3722H57.4377V47.953H57.4521Z" fill="#CE3D31"/>
<path d="M79.7026 62.9335V49.1798H81.1432V19.3722H79.7026V5.61856H99.2447V19.3722H97.4655V49.1798H101.953V41.4003H117.015V62.9335H79.7026Z" fill="#CE3D31"/>
<path d="M118.117 5.61856H138.595C147.398 5.61856 156.704 8.39996 156.704 22.2372V29.6891C156.704 43.5264 147.398 46.3078 138.595 46.3078H135.887V49.1729H137.666V62.9265H118.124V49.1729H119.565V19.3722H118.124V5.61856H118.117ZM135.887 19.3722V32.5542H138.17C139.69 32.5542 140.367 31.8989 140.367 30.2608V21.6656C140.367 20.0274 139.69 19.3722 138.17 19.3722H135.887Z" fill="#CE3D31"/>
<path d="M198.489 27.1517V19.3722H194.002V28.1346H202.206V41.4839H194.002V49.1798H195.781V62.9335H176.239V49.1798H177.679V19.3722H176.239V5.61856H213.551V27.1517H198.489Z" fill="#CE3D31"/>
<path d="M232.416 49.1798H233.857V62.9335H214.653V49.1798H216.094V19.3722H214.653V5.61856H233.857V19.3722H232.416V49.1798Z" fill="#CE3D31"/>
<path d="M271.507 45.5759C271.507 57.9423 265.5 64 253.651 64C241.802 64 235.629 57.8586 235.629 45.5759V20.5991C235.629 9.38285 240.282 4.552 248.407 4.552C252.974 4.552 255.934 6.19017 257.627 9.79413V5.61855H271.5V29.2848H256.438V20.606C256.438 18.9679 255.761 18.3126 254.241 18.3126C252.635 18.3126 251.958 18.9679 251.958 20.606V47.9529C251.958 49.5911 252.635 50.2464 254.241 50.2464C255.761 50.2464 256.438 49.5911 256.438 47.9529V37.4687H271.5V45.5759H271.507Z" fill="#CE3D31"/>
<path d="M285.301 49.1798H287.081V18.5566H285.388V27.1517H272.869V5.61856H317.629V27.1517H305.11V18.5566H303.417V49.1798H305.196V62.9335H285.316V49.1798H285.301Z" fill="#CE3D31"/>
<path d="M336.487 49.1798H337.927V62.9335H318.724V49.1798H320.165V19.3722H318.724V5.61856H337.927V19.3722H336.487V49.1798Z" fill="#CE3D31"/>
<path d="M339.699 22.9761C339.699 10.6934 346.045 4.552 358.312 4.552C370.579 4.552 376.839 10.6934 376.839 22.9761V45.5759C376.839 57.8586 370.493 64 358.312 64C346.132 64 339.699 57.8586 339.699 45.5759V22.9761ZM358.312 50.2394C359.832 50.2394 360.509 49.5841 360.509 47.946V20.5991C360.509 18.9609 359.832 18.3056 358.312 18.3056C356.706 18.3056 356.029 18.9609 356.029 20.5991V47.946C356.029 49.5841 356.706 50.2394 358.312 50.2394Z" fill="#CE3D31"/>
<path d="M393.002 29.3615C393.255 33.2931 393.593 39.5181 393.593 44.0213V49.1798H395.034V62.9335H378.531V49.1798H379.972V19.3722H378.531V5.61856H401.293L404.506 19.4558C405.608 24.203 406.789 30.0168 407.553 34.1157C407.301 30.0237 406.962 23.8824 406.962 20.5224V19.3792H405.522V5.61856H421.937V19.3722H420.497V62.9335H400.191L396.042 43.9377C395.027 39.2672 393.759 33.2931 392.995 29.3615H393.002Z" fill="#CE3D31"/>
<path d="M4.06256 1.06656H24.541C33.3433 1.06656 42.6497 3.84796 42.6497 17.6852V25.1371C42.6497 38.9744 33.3433 41.7558 24.541 41.7558H21.8327V44.6209H23.6118V58.3745H4.06256V44.6209H5.50319V14.8202H4.06256V1.06656ZM21.8327 14.8202V28.0022H24.1161C25.6359 28.0022 26.313 27.3469 26.313 25.7088V17.1136C26.313 15.4754 25.6359 14.8202 24.1161 14.8202H21.8327Z" fill="#E5A33F"/>
<path d="M61.5075 43.4009C61.5075 45.0391 62.1846 45.6944 63.7909 45.6944C65.3107 45.6944 65.9878 45.0391 65.9878 43.4009V14.8202H64.5472V1.06656H82.483V14.8202H81.0424V42.0904C81.0424 53.6343 75.0349 59.448 63.193 59.448C51.3511 59.448 45.1708 53.6343 45.1708 42.0904V14.8202H43.7302V1.06656H62.9337V14.8202H61.4931V43.4009H61.5075Z" fill="#E5A33F"/>
<path d="M83.7579 58.3814V44.6278H85.1986V14.8202H83.7579V1.06656H103.3V14.8202H101.521V44.6278H106.001V36.8483H121.063V58.3814H83.7507H83.7579Z" fill="#E5A33F"/>
<path d="M122.172 1.06656H142.651C151.453 1.06656 160.759 3.84796 160.759 17.6852V25.1371C160.759 38.9744 151.453 41.7558 142.651 41.7558H139.942V44.6209H141.721V58.3745H122.179V44.6209H123.62V14.8202H122.179V1.06656H122.172ZM139.942 14.8202V28.0022H142.226C143.746 28.0022 144.423 27.3469 144.423 25.7088V17.1136C144.423 15.4754 143.746 14.8202 142.226 14.8202H139.942Z" fill="#E5A33F"/>
<path d="M202.552 22.5997V14.8202H198.072V23.5826H206.276V36.9319H198.072V44.6278H199.851V58.3814H180.309V44.6278H181.749V14.8202H180.309V1.06656H217.621V22.5997H202.559H202.552Z" fill="#E5A33F"/>
<path d="M236.479 44.6278H237.919V58.3814H218.716V44.6278H220.156V14.8202H218.716V1.06656H237.919V14.8202H236.479V44.6278Z" fill="#E5A33F"/>
<path d="M275.57 41.0239C275.57 53.3903 269.563 59.448 257.713 59.448C245.864 59.448 239.691 53.3066 239.691 41.0239V16.0471C239.691 4.83085 244.344 0 252.469 0C257.036 0 259.997 1.63817 261.689 5.24213V1.06655H275.563V24.7328H260.501V16.054C260.501 14.4159 259.824 13.7606 258.304 13.7606C256.698 13.7606 256.021 14.4159 256.021 16.054V43.4009C256.021 45.0391 256.698 45.6944 258.304 45.6944C259.824 45.6944 260.501 45.0391 260.501 43.4009V32.9167H275.563V41.0239H275.57Z" fill="#E5A33F"/>
<path d="M289.357 44.6278H291.136V14.0046H289.443V22.5997H276.924V1.06656H321.684V22.5997H309.165V14.0046H307.473V44.6278H309.252V58.3814H289.371V44.6278H289.357Z" fill="#E5A33F"/>
<path d="M340.549 44.6278H341.99V58.3814H322.786V44.6278H324.227V14.8202H322.786V1.06656H341.99V14.8202H340.549V44.6278Z" fill="#E5A33F"/>
<path d="M343.762 18.4241C343.762 6.14138 350.108 0 362.375 0C374.642 0 380.901 6.14138 380.901 18.4241V41.0239C380.901 53.3066 374.555 59.448 362.375 59.448C350.194 59.448 343.762 53.3066 343.762 41.0239V18.4241ZM362.375 45.6874C363.895 45.6874 364.572 45.0321 364.572 43.394V16.0471C364.572 14.4089 363.895 13.7536 362.375 13.7536C360.768 13.7536 360.091 14.4089 360.091 16.0471V43.394C360.091 45.0321 360.768 45.6874 362.375 45.6874Z" fill="#E5A33F"/>
<path d="M397.065 24.8095C397.317 28.7411 397.656 34.9661 397.656 39.4693V44.6278H399.096V58.3814H382.594V44.6278H384.035V14.8202H382.594V1.06656H405.356L408.568 14.9038C409.671 19.651 410.852 25.4648 411.615 29.5637C411.363 25.4717 411.025 19.3304 411.025 15.9704V14.8272H409.584V1.06656H426V14.8202H424.559V58.3814H404.254L400.105 39.3857C399.089 34.7152 397.821 28.7411 397.058 24.8095H397.065Z" fill="#E5A33F"/>
</g>
<defs>
<clipPath id="clip0_82_33">
<rect width="426" height="64" fill="white"/>
</clipPath>
</defs>
</svg>
