<svg width="25" height="27" viewBox="0 0 25 27" fill="none" xmlns="http://www.w3.org/2000/svg">
<g clip-path="url(#clip0_109_45524)">
<path d="M0 15.4688C0 21.8374 4.98804 27 11.1413 27C17.2946 27 22.2826 21.8374 22.2826 15.4688C22.2144 13.2978 21.6437 11.1754 20.6185 9.28012L20.6522 9.34875C20.0999 8.60361 19.8014 7.69025 19.8033 6.75112C19.8033 4.78237 21.8098 2.8125 23.912 2.8125H24.1804C24.5314 2.79826 24.8634 2.64402 25.107 2.38209C25.3505 2.12016 25.4867 1.77085 25.487 1.40733C25.4872 1.04381 25.3516 0.694278 25.1085 0.431943C24.8653 0.169608 24.5335 0.0148198 24.1826 0L23.9087 0C20.5663 0 17.7065 1.845 17.0283 5.625C15.2797 4.4305 13.2104 3.84013 11.1174 3.93862L11.138 3.9375C4.98696 3.94088 0.00217391 9.10125 0.00108696 15.4676L0 15.4688ZM9.78261 15.4688C9.78282 15.1907 9.86269 14.9189 10.0121 14.6878C10.1615 14.4567 10.3738 14.2766 10.6221 14.1703C10.8704 14.0641 11.1435 14.0364 11.407 14.0908C11.6705 14.1452 11.9125 14.2792 12.1024 14.4759C12.2923 14.6726 12.4216 14.9232 12.474 15.1959C12.5263 15.4687 12.4993 15.7514 12.3965 16.0083C12.2936 16.2652 12.1195 16.4847 11.896 16.6392C11.6726 16.7937 11.41 16.8761 11.1413 16.8761H11.138C10.7784 16.8749 10.434 16.7262 10.1801 16.4627C9.92624 16.1991 9.78369 15.8421 9.7837 15.4699V15.4688H9.78261ZM2.71739 15.4688C2.71782 14.7985 2.97545 14.1558 3.43362 13.6821C3.89178 13.2083 4.51298 12.9423 5.1606 12.9426C5.80822 12.9428 6.42924 13.2092 6.8871 13.6833C7.34496 14.1573 7.60217 14.8001 7.60217 15.4704C7.60217 16.1407 7.34496 16.7836 6.8871 17.2576C6.42924 17.7317 5.80822 17.9981 5.1606 17.9983C4.51298 17.9985 3.89178 17.7325 3.43362 17.2588C2.97545 16.7851 2.71782 16.1424 2.71739 15.4721V15.4688ZM14.6739 15.4688C14.6743 14.7985 14.932 14.1558 15.3901 13.6821C15.8483 13.2083 16.4695 12.9423 17.1171 12.9426C17.7647 12.9428 18.3858 13.2092 18.8436 13.6833C19.3015 14.1573 19.5587 14.8001 19.5587 15.4704C19.5587 16.1407 19.3015 16.7836 18.8436 17.2576C18.3858 17.7317 17.7647 17.9981 17.1171 17.9983C16.4695 17.9985 15.8483 17.7325 15.3901 17.2588C14.932 16.7851 14.6743 16.1424 14.6739 15.4721V15.4688ZM8.69565 21.6562C8.69565 21.1556 8.83909 20.6662 9.10782 20.25C9.37655 19.8337 9.75851 19.5093 10.2054 19.3177C10.6523 19.1261 11.144 19.076 11.6184 19.1736C12.0928 19.2713 12.5286 19.5124 12.8706 19.8664C13.2127 20.2204 13.4456 20.6714 13.54 21.1624C13.6343 21.6534 13.5859 22.1624 13.4008 22.6249C13.2157 23.0874 12.9022 23.4828 12.5 23.7609C12.0979 24.039 11.625 24.1875 11.1413 24.1875H11.137C10.4891 24.1863 9.86814 23.9191 9.41043 23.4445C8.95272 22.97 8.69565 22.3268 8.69565 21.6562ZM8.69565 9.28125C8.6958 8.94928 8.75911 8.6206 8.88198 8.31396C9.00486 8.00732 9.18488 7.72873 9.41178 7.4941C9.63868 7.25947 9.90801 7.07339 10.2044 6.94649C10.5008 6.81959 10.8184 6.75435 11.1391 6.7545C11.4599 6.75465 11.7774 6.82018 12.0737 6.94735C12.37 7.07453 12.6391 7.26085 12.8658 7.49569C13.0925 7.73053 13.2723 8.00929 13.3949 8.31604C13.5175 8.62279 13.5806 8.95153 13.5804 9.2835C13.5804 9.95393 13.3231 10.5969 12.8651 11.071C12.407 11.545 11.7858 11.8114 11.138 11.8114C10.4903 11.8114 9.86905 11.545 9.41101 11.071C8.95297 10.5969 8.69565 9.95393 8.69565 9.2835V9.28012V9.28125Z" fill="white"/>
</g>
<defs>
<clipPath id="clip0_109_45524">
<rect width="25" height="27" fill="white"/>
</clipPath>
</defs>
</svg>
