<svg width="32" height="60" viewBox="0 0 32 60" fill="none" xmlns="http://www.w3.org/2000/svg">
<g clip-path="url(#clip0_109_41725)">
<path d="M31.8501 29.4703C30.8149 28.4181 29.7939 27.3516 28.7729 26.2851C27.8305 25.3111 26.8881 24.337 25.9456 23.363C25.6672 23.0715 25.4316 22.979 25.0603 23.3061C24.6962 23.6331 24.3535 23.9815 23.9965 24.3157C22.9969 25.2542 21.976 26.1714 21.0264 27.1596C19.7055 28.5318 18.4347 29.9538 17.1424 31.3544C17.0353 31.5322 16.9496 31.717 17.0496 31.9374C17.1924 31.9801 15.1076 42.8297 14.5578 46.2922C14.4293 46.5482 14.3651 47.7497 14.1794 47.963C14.772 48.6314 15.7644 49.2002 16.457 49.7618C16.9782 50.1884 17.0781 50.1813 17.3994 49.6339C18.1134 48.4181 18.7988 47.1881 19.5413 45.9936C21.519 42.8155 23.6538 39.737 25.9742 36.7935C27.8162 34.4614 29.7368 32.1934 31.8144 30.0676C32.0143 29.8614 32.1072 29.7334 31.8644 29.4774L31.8501 29.4703Z" fill="#B4BD6F"/>
<path d="M17.1353 31.3545C18.4275 29.9538 19.6984 28.5318 21.0192 27.1596C21.9688 26.1785 22.9898 25.2542 23.9893 24.3157C24.3463 23.9815 24.689 23.6332 25.0532 23.3061C25.4244 22.9719 25.66 23.0715 25.9385 23.363C26.8809 24.337 27.8233 25.3111 28.7658 26.2851C29.7939 27.3445 30.8077 28.4181 31.843 29.4703C32.0929 29.7192 31.9929 29.8543 31.793 30.0605C29.7154 32.1863 27.7948 34.4543 25.9528 36.7864C23.6324 39.7227 21.4976 42.8013 19.5199 45.9865C18.7774 47.181 18.092 48.4181 17.378 49.6268C17.0496 50.1813 16.9568 50.1813 16.4356 49.7547C15.743 49.1931 15.0362 48.6598 14.4436 47.9915C14.6649 47.7498 14.8434 47.8991 15.0291 48.0484C15.5217 48.4607 16.0357 48.8518 16.5212 49.2713C16.8283 49.5414 16.9782 49.4632 17.1781 49.1291C18.3847 47.0885 19.5913 45.048 20.9264 43.0857C21.3048 42.524 21.7975 42.0263 22.0188 41.3651C22.0973 41.3011 22.1973 41.2514 22.2473 41.166C23.6681 39.1042 25.2388 37.1561 26.7881 35.1938C27.3378 34.497 28.059 33.9282 28.4302 33.0964C28.8015 32.8333 29.1442 32.5418 29.3084 32.0939C29.7939 31.7668 30.1937 31.3758 30.4365 30.8425C30.5935 30.8354 30.6864 30.7643 30.6864 30.5937C31.5503 29.968 31.5645 29.8045 30.8506 29.0864C30.0295 28.2546 29.2227 27.4014 28.3874 26.5909C27.859 26.0789 27.4949 25.3964 26.781 25.0765C26.7524 24.8347 26.6239 24.6712 26.3954 24.5788C25.7481 23.8441 25.0746 23.7919 24.3749 24.4224C24.2821 24.5077 24.2107 24.6072 24.1321 24.6996C23.8822 24.9129 23.5681 25.0765 23.511 25.4462C23.3896 25.4106 23.3111 25.4604 23.2611 25.5742C23.1397 25.6168 23.0897 25.7021 23.1326 25.8301C23.0112 25.7874 22.9255 25.8301 22.8756 25.951C22.797 25.951 22.7542 25.9936 22.7542 26.0718C22.6756 26.0718 22.6328 26.1216 22.6328 26.1998C22.5543 26.1998 22.5114 26.2425 22.5114 26.3278C22.4329 26.3278 22.3901 26.3776 22.3901 26.4558C22.3115 26.4629 22.2687 26.5055 22.2687 26.5837C21.8617 26.7402 21.6261 27.053 21.519 27.4583C21.3905 27.4014 21.3191 27.4725 21.2691 27.5862C20.6408 28.091 20.0554 28.6385 19.6341 29.3424C19.4485 29.3992 19.3628 29.5272 19.3843 29.7192C19.1201 29.705 19.013 29.8472 19.0059 30.0889C18.656 30.1529 18.4775 30.3946 18.3776 30.7146C18.1991 30.7786 18.1063 30.8994 18.1277 31.0914C17.7778 31.2265 17.4851 31.4042 17.4994 31.8379C17.3209 31.7455 17.2209 31.9943 17.0496 31.9375C16.9496 31.7171 17.0353 31.5322 17.1424 31.3545H17.1353Z" fill="#B4BD6F"/>
<path d="M16.5998 33.8571C16.6213 33.0608 17.0782 32.4565 17.4994 31.8379C17.8136 31.6744 18.0135 31.4113 18.1277 31.0843C18.3205 31.0345 18.4062 30.9065 18.3776 30.7074C18.7417 30.6577 18.8917 30.3875 19.0059 30.0818C19.2201 30.0391 19.3343 29.904 19.3843 29.7049C19.5342 29.6267 19.6842 29.5414 19.6342 29.3281C20.3624 28.9157 20.8836 28.3114 21.2692 27.5791C21.3977 27.636 21.4762 27.5791 21.5191 27.4582C21.8332 27.2165 22.2045 27.0316 22.2687 26.5837C22.3544 26.5837 22.3972 26.5482 22.3901 26.4629C22.4758 26.47 22.5186 26.4273 22.5115 26.342C22.5972 26.3491 22.64 26.3064 22.6329 26.2211C22.7185 26.2282 22.7614 26.1856 22.7542 26.1002C22.847 26.1074 22.8827 26.0576 22.8756 25.9794C22.997 26.0149 23.0827 25.9652 23.1326 25.8514C23.2469 25.8016 23.3183 25.7376 23.2611 25.6026C23.3968 25.6594 23.4682 25.6026 23.511 25.4817C23.7966 25.3964 23.9394 25.1475 24.1393 24.9556C24.7605 25.3253 25.3602 25.24 25.9385 24.856C26.0456 24.7849 26.1384 24.7067 26.2812 24.7565C26.3812 24.9698 26.5168 25.1333 26.7881 25.1049C26.731 25.3608 26.9524 25.4746 27.0809 25.6168C28.159 26.7615 29.2299 27.9133 30.3437 29.0295C30.7864 29.4774 31.1505 29.8756 30.6721 30.5012C30.6578 30.5226 30.6864 30.5795 30.6935 30.6221C30.4865 30.5866 30.4437 30.7074 30.4437 30.871C29.8868 31.1269 29.5512 31.5819 29.3156 32.1223C28.8087 32.2716 28.3946 32.4991 28.4374 33.1248C28.2232 33.0608 28.1375 33.2385 28.0376 33.3594C26.2312 35.4852 24.4606 37.6324 22.8542 39.9076C22.5329 40.3697 22.0331 40.7536 22.026 41.4006C21.3906 41.6779 21.1478 42.3107 20.798 42.8155C19.4914 44.7209 18.2848 46.6833 17.1639 48.7025C16.9068 49.1646 16.6569 49.1504 16.3642 48.8304C15.9001 48.3185 15.3218 47.9559 14.7864 47.5435C14.5579 47.3729 14.4008 47.1454 14.4865 46.8468C14.715 46.0007 14.7007 45.1262 14.8149 44.2659C14.8292 44.2304 14.8363 44.1948 14.8506 44.1593C15.0077 44.145 15.0791 44.0526 15.1148 43.9104C15.3218 43.5763 15.4146 43.1283 15.9644 43.1426C16.4999 43.1568 16.8569 43.4341 17.1353 43.8535C17.2567 44.0384 17.3067 44.2375 17.2138 44.4437C17.1067 44.6854 16.8854 44.6712 16.6784 44.6569C16.5927 44.6569 16.5142 44.6427 16.4285 44.6285C16.15 44.5859 15.9358 44.6925 15.7859 44.9271C15.686 45.0906 15.7502 45.24 15.8716 45.375C16.0715 45.5954 16.2857 45.7163 16.5856 45.6097C17.7493 45.1902 18.5775 43.5549 17.8279 42.3463C17.3923 41.6424 16.5427 41.4433 15.4789 41.7846C15.1362 41.3224 15.5574 40.8461 15.4575 40.3839C15.6931 39.9147 15.6788 39.3957 15.7217 38.8909C15.8359 38.834 15.8502 38.7416 15.8073 38.6278C15.8145 38.4216 15.8287 38.2083 15.8359 38.0021C16.0644 37.8457 16.1215 37.6253 16.0644 37.3622C16.0644 37.2414 16.0644 37.1276 16.0715 37.0068C16.2072 36.9996 16.3428 36.9925 16.4713 36.9854C16.3428 37.412 16.5998 37.7533 16.7355 38.1088C17.0211 38.8909 17.6708 39.4668 18.3276 39.8223C19.5485 40.4835 21.4976 39.8791 22.4187 38.7558C22.5686 38.5709 22.4472 38.4429 22.3187 38.2723C22.0831 37.9595 21.7832 37.6751 21.7404 37.2485C22.0545 37.3054 22.1045 37.6609 22.3615 37.8102C22.4758 36.7224 22.1045 36.2816 21.2763 36.4948C21.3477 36.8006 21.7547 36.9072 21.7475 37.2556C21.4405 37.3409 21.3691 37.0565 21.2263 36.9001C20.9764 36.6228 20.7123 36.5304 20.3125 36.7437C20.6052 37.0565 20.8551 37.3267 21.105 37.604C21.1835 37.6893 21.2692 37.9168 21.1978 37.9097C20.6123 37.8102 20.9408 38.2936 20.8194 38.4714C20.6766 38.6776 20.6052 39.0188 20.4196 39.0899C20.1625 39.1895 19.827 39.2179 19.5414 38.9762C19.2629 38.7416 19.0416 38.4998 19.1273 38.1372C19.213 37.8031 19.3486 37.4689 19.7698 37.3836C19.9412 37.348 20.2696 37.5258 20.2268 37.1632C20.1911 36.8432 19.8769 36.8503 19.6199 36.8788C19.4343 36.9001 19.2558 36.957 19.0702 36.9854C18.2063 37.1205 17.7136 36.829 17.3138 36.0469C17.0354 35.4995 17.3566 35.0658 17.4709 34.5041C17.6779 34.8311 17.835 35.1013 18.0135 35.343C18.1206 35.4924 18.2919 35.5492 18.4561 35.4355C18.6489 35.3075 18.449 35.2009 18.4204 35.08C18.3205 34.625 17.835 34.497 17.6422 34.1557C17.3281 33.594 17.171 33.9211 16.964 34.1984C16.7283 34.5041 16.7569 34.9094 16.5784 35.2364C16.3928 35.1155 16.4927 34.8951 16.4071 34.7387C16.4785 34.4543 16.6141 34.1841 16.5713 33.8784L16.5998 33.8571ZM18.092 34.1202C18.4062 34.4756 18.7132 34.8383 19.0345 35.1866C19.1416 35.3075 19.2986 35.4355 19.4628 35.2933C19.5985 35.1724 19.5057 35.0231 19.4343 34.9022C19.1987 34.4828 18.8417 34.1699 18.5347 33.8144C18.399 33.6793 18.2491 33.5585 18.2562 33.3381C18.3776 33.3523 18.499 33.3736 18.6204 33.3878C18.6204 33.6011 18.7417 33.7576 18.9274 33.7647C19.0844 33.7718 19.063 33.5514 19.1344 33.4376C19.1987 33.3381 19.2344 33.2243 19.2843 33.1106C19.3486 33.1106 19.4129 33.1034 19.47 33.0963C19.8698 33.0679 20.3267 33.0181 20.491 33.4732C20.6552 33.9282 20.4338 34.2766 19.9483 34.4259C19.727 34.497 19.7056 34.6747 19.8198 34.8169C19.9698 35.016 20.1554 35.1866 20.4553 34.9947C21.1264 34.5681 21.8332 34.5823 22.4044 35.1084C22.9827 35.6417 23.0684 36.3598 22.8399 37.1134C22.7685 37.3409 22.5686 37.5755 22.7399 37.8315C22.9399 37.8315 23.0327 37.7248 23.0898 37.6253C23.7324 36.438 23.7752 35.144 23.3325 33.9566C22.6971 32.2503 20.4053 31.4469 18.7774 32.4991C18.4561 32.7053 18.2277 32.9328 18.2705 33.3381C18.0635 33.2385 17.8493 33.0679 17.6779 33.3665C17.5423 33.6082 17.7279 33.7433 17.8921 33.8855C17.9706 33.9495 18.0349 34.0348 18.1063 34.113L18.092 34.1202ZM24.532 27.4511C24.4035 27.0316 24.2179 26.9179 23.9394 27.3445C23.8395 27.5009 23.7466 27.6573 23.6538 27.8137C23.2826 28.1337 22.9113 28.4678 22.5329 28.7807C22.283 28.9868 22.2188 29.1859 22.4544 29.4561C22.8685 29.9396 23.2683 30.4373 23.6752 30.9278C23.8109 31.0914 23.9823 31.1269 24.175 31.07C24.2107 31.0416 24.2536 31.006 24.2893 30.9776C24.3178 30.9492 24.3321 30.9065 24.3392 30.871C24.3678 30.8283 24.4035 30.7785 24.4321 30.7359C25.1389 30.224 25.9814 30.551 26.2027 31.4113C26.3312 31.9303 26.1527 32.1152 25.6244 32.0085C25.503 31.9872 25.3745 31.973 25.2531 31.973C24.9033 31.9659 24.6462 32.1294 24.7034 32.4778C24.7533 32.7764 24.889 32.9897 25.3531 32.9115C25.9956 32.8048 26.374 32.4707 26.7739 32.0156C27.5449 31.134 27.5307 30.032 26.681 29.3068C25.9528 28.6882 24.632 28.8731 24.0394 29.7263C23.8395 30.0178 23.6253 30.0249 23.4254 29.8756C23.1683 29.6907 23.254 29.4277 23.4611 29.2357C23.7395 28.9868 24.0179 28.7309 24.325 28.5247C24.7748 28.219 24.8676 27.8848 24.5391 27.444L24.532 27.4511Z" fill="#B4BD6F"/>
<path d="M16.4927 36.9499C16.4713 36.3669 16.4927 35.7839 16.6069 35.208C16.7854 34.881 16.7568 34.4828 16.9924 34.17C17.1995 33.8927 17.3566 33.5656 17.6707 34.1273C17.8635 34.4686 18.349 34.5895 18.4489 35.0516C18.4775 35.1725 18.6703 35.2791 18.4846 35.4071C18.3204 35.5208 18.1491 35.4569 18.042 35.3147C17.8635 35.0658 17.7136 34.8027 17.4994 34.4757C17.3851 35.0374 17.0638 35.4711 17.3423 36.0185C17.7421 36.8077 18.2347 37.0992 19.0986 36.957C19.2843 36.9286 19.4628 36.8717 19.6484 36.8504C19.9054 36.8219 20.2124 36.8148 20.2553 37.1348C20.2981 37.4903 19.9625 37.3196 19.7983 37.3552C19.3842 37.4405 19.2414 37.7747 19.1558 38.1088C19.0701 38.4714 19.2914 38.7132 19.5699 38.9478C19.8555 39.1895 20.191 39.1611 20.448 39.0615C20.6337 38.9904 20.7051 38.6492 20.8479 38.443C20.9692 38.2652 20.6408 37.7818 21.2263 37.8813C21.2977 37.8955 21.212 37.668 21.1335 37.5756C20.8836 37.2983 20.6337 37.0281 20.341 36.7153C20.7408 36.502 21.0049 36.5944 21.2548 36.8717C21.3905 37.021 21.469 37.3054 21.776 37.2272H21.7689C21.8117 37.6396 22.1116 37.9311 22.3472 38.2439C22.4757 38.4074 22.5971 38.5425 22.4472 38.7274C21.5261 39.8507 19.577 40.4551 18.3561 39.7939C17.6993 39.4384 17.0496 38.8625 16.764 38.0804C16.6355 37.7249 16.3713 37.3836 16.4998 36.957L16.4927 36.9499Z" fill="#E9E9E9"/>
<path d="M24.175 31.0629C23.9751 31.1198 23.8037 31.0843 23.6752 30.9207C23.2682 30.4302 22.8755 29.9325 22.4543 29.449C22.2187 29.1788 22.283 28.9797 22.5328 28.7736C22.9112 28.4607 23.2825 28.1337 23.6538 27.8066C24.0108 27.8422 24.1535 27.3587 24.5319 27.444C24.8604 27.8848 24.7747 28.219 24.3178 28.5247C24.0108 28.7309 23.7323 28.9869 23.4539 29.2357C23.2468 29.4277 23.1611 29.6907 23.4182 29.8756C23.6181 30.0249 23.8323 30.0178 24.0322 29.7263C24.6248 28.866 25.9456 28.6811 26.6738 29.3068C27.5235 30.032 27.5306 31.134 26.7667 32.0156C26.3668 32.4707 25.9884 32.8048 25.3459 32.9115C24.8818 32.9897 24.7461 32.7764 24.6962 32.4778C24.639 32.1294 24.8961 31.9588 25.2459 31.973C25.3673 31.973 25.4958 31.9872 25.6172 32.0085C26.1455 32.1081 26.324 31.9232 26.1955 31.4113C25.9742 30.551 25.1317 30.224 24.4249 30.7359C24.3963 30.7785 24.3606 30.8283 24.332 30.871C24.3249 30.9136 24.3035 30.9492 24.2821 30.9776C24.2464 31.006 24.2035 31.0416 24.1678 31.07L24.175 31.0629Z" fill="#E9E9E9"/>
<path d="M14.9006 43.8038C14.7006 43.8606 14.5293 43.8251 14.4008 43.6616C13.9938 43.171 13.6011 42.6733 13.1799 42.1898C12.9443 41.9197 13.0085 41.7206 13.2584 41.5144C13.6368 41.2016 14.0081 40.8745 14.3794 40.5475C14.7363 40.583 14.8791 40.0995 15.2575 40.1849C15.586 40.6257 15.5003 40.9598 15.0433 41.2656C14.7363 41.4717 14.4579 41.7277 14.1794 41.9765C13.9724 42.1685 13.8867 42.4316 14.1437 42.6164C14.3437 42.7657 14.5578 42.7586 14.7578 42.4671C15.3503 41.6068 16.6712 41.422 17.3994 42.0476C18.2491 42.7728 18.2562 43.8749 17.4923 44.7565C17.0924 45.2115 16.714 45.5457 16.0715 45.6523C15.6074 45.7305 15.4717 45.5172 15.4217 45.2186C15.3646 44.8702 15.6217 44.6996 15.9715 44.7138C16.0929 44.7138 16.2214 44.728 16.3428 44.7494C16.8711 44.8489 17.0496 44.6641 16.9211 44.1522C16.6997 43.2919 15.8573 42.9648 15.1504 43.4767C15.1219 43.5194 15.0862 43.5691 15.0576 43.6118C15.0505 43.6545 15.0291 43.69 15.0076 43.7185C14.9719 43.7469 14.9291 43.7824 14.8934 43.8109L14.9006 43.8038Z" fill="#E9E9E9"/>
<path d="M18.2562 33.3452C18.2133 32.9328 18.4418 32.7124 18.7631 32.5063C20.3981 31.454 22.6828 32.2574 23.3182 33.9638C23.7608 35.1511 23.718 36.4522 23.0754 37.6325C23.0183 37.732 22.9326 37.8386 22.7256 37.8386C22.5542 37.5827 22.7542 37.3481 22.8256 37.1205C23.054 36.3669 22.9683 35.6417 22.39 35.1156C21.8189 34.5894 21.112 34.5752 20.4409 35.0018C20.141 35.1938 19.9625 35.0231 19.8055 34.8241C19.6912 34.6748 19.7198 34.497 19.934 34.433C20.4195 34.2837 20.6408 33.9353 20.4766 33.4803C20.3124 33.0253 19.8554 33.0679 19.4556 33.1035C19.3914 33.1035 19.3271 33.1106 19.27 33.1177C18.9987 33.0893 18.7417 33.0964 18.6131 33.395C18.4918 33.3808 18.3704 33.3594 18.249 33.3452V33.3523L18.2562 33.3452Z" fill="#E9E9E9"/>
<path d="M18.5275 33.8074C18.8416 34.1558 19.1986 34.4757 19.4271 34.8952C19.4985 35.0232 19.5913 35.1654 19.4557 35.2862C19.2914 35.4284 19.1344 35.3004 19.0273 35.1796C18.706 34.8312 18.399 34.4686 18.0848 34.1131C18.1277 33.8643 18.3133 33.8216 18.5204 33.8074H18.5275Z" fill="#E9E9E9"/>
<path d="M21.776 37.2272C21.776 36.8788 21.3762 36.7722 21.3048 36.4665C22.133 36.246 22.4971 36.6869 22.39 37.7818C22.133 37.6325 22.083 37.277 21.7689 37.2201L21.776 37.2272Z" fill="#E9E9E9"/>
<path d="M18.6203 33.3879C18.7488 33.0893 19.013 33.0893 19.2771 33.1106C19.2272 33.2172 19.1915 33.3381 19.1272 33.4376C19.0558 33.5514 19.0844 33.7789 18.9202 33.7647C18.7345 33.7505 18.6132 33.6012 18.6132 33.3879H18.6203Z" fill="#E9E9E9"/>
<path d="M16.8496 36.6726L16.8853 36.5375C16.8139 36.0113 16.8639 35.4852 16.9639 34.9733C16.7711 34.8595 16.871 34.6534 16.7997 34.4969C16.6926 34.9378 16.6212 35.3786 16.5141 35.8194C16.4498 36.0682 16.2499 36.3811 16.4784 36.6655C16.5997 36.6655 16.7211 36.6726 16.8425 36.6726H16.8496Z" fill="#E9E9E9"/>
<path d="M30.7577 28.9087C30.1866 28.3328 29.644 27.7213 29.0585 27.1596C28.2374 26.3776 26.8166 24.7992 25.8671 23.9744C25.6957 23.6474 25.4887 23.5265 25.2031 23.9104C24.7247 24.3228 23.8037 25.1689 23.6609 25.3893C23.5895 25.4391 23.5181 25.4959 23.4467 25.5457C23.4824 25.5813 23.5181 25.6168 23.5538 25.6524C23.6109 25.5884 23.6752 25.5315 23.7323 25.4675C23.9108 25.304 25.0389 24.3015 25.3744 24.0029C25.4672 24.0171 25.5529 24.0313 25.6457 24.0455C25.9742 24.5006 27.1165 25.3751 27.3021 25.7803C27.9019 26.3918 28.5016 27.0103 29.1013 27.6218C29.594 28.0626 30.1009 28.5034 30.4507 29.0793C31.1504 29.4348 30.8863 29.8898 30.6007 30.352C30.6292 30.3804 30.6649 30.4088 30.6935 30.4444C30.6649 30.4159 30.6292 30.3875 30.6007 30.352L29.1013 31.909C28.8586 32.1223 28.5516 32.2787 28.4516 32.62C28.009 33.1461 27.5734 33.6794 27.1308 34.2055C26.3311 35.1938 25.5244 36.182 24.7247 37.1703C24.0036 38.1657 23.2754 39.1611 22.5543 40.1635C22.4043 40.3768 22.2901 40.6186 22.1544 40.8461C22.1759 40.8674 22.2044 40.8888 22.2258 40.9172C22.2044 40.8959 22.1759 40.8745 22.1544 40.8461C21.9474 41.0878 21.7403 41.3296 21.5261 41.5642C21.0621 42.2396 20.598 42.9151 20.1339 43.5976C20.0625 43.8962 19.8483 44.1024 19.6627 44.3299C19.627 44.3726 19.5913 44.4223 19.5556 44.465C19.5128 44.5503 19.4699 44.6428 19.4271 44.7281C19.4271 44.7636 19.4057 44.7921 19.3914 44.8134C19.2843 44.984 19.1701 45.1476 19.063 45.3182C18.8345 45.695 18.606 46.0647 18.3776 46.4415C18.2062 46.8397 18.0063 47.2094 17.7136 47.5294C17.6707 47.7071 17.5922 47.8635 17.4423 47.9844C17.3494 48.2048 17.3851 48.6456 16.9568 48.2617C16.8282 48.2261 16.7283 48.1621 16.7069 48.0199C16.5569 47.9702 16.4284 47.892 16.3427 47.7498C16.2642 47.6644 16.1857 47.5862 16.1071 47.5009C15.6288 47.1952 15.0647 46.9961 14.8291 46.406C14.4579 46.7046 15.0005 46.9463 14.8791 47.2307C15.4931 47.3374 15.9072 47.7213 16.2428 48.2119C16.4784 48.2546 16.6569 48.4039 16.8068 48.5532C17.1638 48.9087 17.3352 48.802 17.5565 48.3896C17.9635 47.6218 18.4275 46.8824 18.8916 46.1429C19.9983 44.401 21.1263 42.6733 22.2473 40.9385C23.3539 39.4668 24.4534 37.995 25.5743 36.5375C27.1879 34.433 28.9443 32.4494 30.7006 30.4657C31.5288 29.6765 31.5217 29.6765 30.7363 28.8873L30.7577 28.9087Z" fill="#EAEBBC"/>
<path d="M18.4204 31.1553C18.4347 31.0913 18.449 31.0274 18.4632 30.9634C18.5204 30.9491 18.5846 30.9349 18.6417 30.9207C18.6774 30.8283 18.7131 30.7358 18.7488 30.6434C18.9773 30.4586 19.2058 30.2737 19.3129 29.9822C19.3771 29.9609 19.4414 29.9395 19.5056 29.9182C19.5556 29.8116 19.6127 29.7049 19.6627 29.5983C19.4057 29.5485 19.3343 29.7476 19.2486 29.9253C18.9702 30.0533 18.7845 30.2808 18.6489 30.5439C18.5204 30.6292 18.4275 30.743 18.3918 30.8994C18.1205 31.0985 17.7778 31.2406 17.8207 31.6672C18.1063 31.589 18.1705 31.2691 18.4133 31.1411L18.4204 31.1553Z" fill="#EAEBBC"/>
<path d="M19.9768 29.2997C20.1482 29.1859 20.3124 29.0722 20.4837 28.9655C20.7479 28.4252 21.2477 28.0839 21.5761 27.6147C21.5404 27.5791 21.5119 27.5436 21.4762 27.5151C20.8978 28.0413 20.3338 28.5816 19.8769 29.2215C19.8911 29.2357 19.9126 29.2499 19.9268 29.2713C19.9126 29.257 19.8911 29.2428 19.8769 29.2215C19.7412 29.321 19.6198 29.4206 19.6627 29.6125C19.6984 29.6125 19.7412 29.6054 19.7769 29.5983C19.8412 29.4988 19.9054 29.3992 19.9625 29.3068L19.9768 29.2997Z" fill="#EAEBBC"/>
<path d="M21.7831 27.444C22.0473 27.1738 22.3543 26.9463 22.5542 26.6121C22.5185 26.5837 22.4828 26.5553 22.4542 26.5197C22.0972 26.6975 21.9259 27.053 21.6903 27.3373C21.626 27.3942 21.5546 27.444 21.4904 27.5009C21.5261 27.5364 21.5546 27.572 21.5903 27.6075C21.6546 27.5506 21.7188 27.4938 21.7902 27.4369L21.7831 27.444Z" fill="#EAEBBC"/>
<path d="M23.0683 25.9154C23.0683 25.9154 23.0754 25.9296 23.0826 25.9296C23.0826 25.9296 23.0754 25.9154 23.0683 25.9154C23.0254 25.9509 22.9755 25.9936 22.9326 26.0292C22.9683 26.0647 23.004 26.0931 23.0326 26.1287C23.0683 26.086 23.104 26.0434 23.1397 26.0007C23.2111 25.9438 23.2753 25.887 23.3467 25.8301C23.3896 25.8301 23.4253 25.8301 23.4681 25.8301C23.4967 25.7732 23.5181 25.7163 23.5466 25.6594C23.5109 25.6239 23.4752 25.5883 23.4395 25.5528C23.3896 25.631 23.3396 25.7021 23.2896 25.7803C23.2182 25.823 23.1468 25.8727 23.0683 25.9154Z" fill="#EAEBBC"/>
<path d="M23.0397 26.1287C23.0397 26.1287 22.9683 26.0647 22.9397 26.0292C22.8969 26.0718 22.8612 26.1145 22.8184 26.1572L22.9183 26.2567C22.9612 26.214 22.9969 26.1714 23.0397 26.1358V26.1287Z" fill="#EAEBBC"/>
<path d="M22.6684 26.4984C22.7112 26.4557 22.7469 26.4202 22.7898 26.3775C22.8326 26.3348 22.8683 26.2922 22.9112 26.2566C22.8755 26.2282 22.8469 26.1927 22.8112 26.1571C22.7684 26.1927 22.7255 26.2353 22.6827 26.2709C22.6399 26.3135 22.6042 26.3562 22.5613 26.3988C22.5185 26.4415 22.4828 26.4842 22.4399 26.5197C22.4756 26.5481 22.5113 26.5766 22.547 26.6121C22.5827 26.5766 22.6256 26.5339 22.6613 26.4984H22.6684Z" fill="#EAEBBC"/>
<path d="M24.5748 27.5506C24.4606 27.1383 24.2892 27.0032 23.9965 27.4369C23.9322 27.5364 23.6538 27.7924 23.5752 27.8848C23.5752 27.9132 23.561 27.9417 23.5396 27.963C23.5396 27.9986 23.7252 27.8635 23.718 27.899C24.0679 27.9488 24.1964 27.4582 24.5677 27.5506H24.5748Z" fill="#E9E9E9"/>
<path d="M19.0343 33.3452C19.0129 33.5585 19.1486 33.7078 19.3199 33.7291C19.4841 33.7504 19.4484 33.5229 19.5198 33.4092C19.5841 33.3096 19.6126 33.1959 19.6555 33.0892C19.3985 33.0679 19.1557 33.0537 19.0343 33.3452Z" fill="#B4BD6F"/>
<path d="M14.9148 50.4372C14.7149 51.7383 13.8867 52.684 13.1513 53.6936C12.3517 54.7814 12.1946 55.8123 12.8443 56.5802C13.3941 57.2272 14.0723 57.7248 14.8363 58.1017C15.7859 58.5709 16.8068 58.77 17.8492 58.898C18.0277 58.9193 18.2062 58.9762 18.3776 59.0117C18.3776 59.2961 18.3704 59.5947 17.9777 59.6232C16.6426 59.7227 15.3075 59.8933 13.9581 59.8649C13.2727 59.8507 12.5801 59.8791 11.8947 59.8933C11.5877 59.8933 11.2807 59.8649 10.9809 59.8933C10.3026 59.9431 9.61718 59.7583 8.94605 59.9929C8.36059 60.0498 7.78942 59.872 7.21111 59.8933C5.94025 59.936 4.68366 59.7511 3.4128 59.7583C3.01298 59.7583 2.656 59.6729 2.68456 59.1539C2.74167 59.0402 2.81307 58.9548 2.94872 58.9264C2.99156 59.0259 3.0344 59.1255 3.08438 59.225C3.33427 59.4952 3.59129 59.4383 3.85546 59.2463C3.99112 59.1184 4.13391 59.1255 4.26956 59.2463C4.66938 59.4881 5.13346 59.4881 5.56184 59.4952C9.41013 59.5236 13.2513 59.5094 17.0996 59.5094C17.3494 59.5094 17.6065 59.5094 17.6422 59.1681C17.6779 59.1326 17.7136 59.097 17.7493 59.0615C17.7136 59.0473 17.685 59.0259 17.6493 59.0259C16.1 59.0259 14.5435 59.0188 12.9942 59.0117C12.316 58.0235 11.7805 56.9783 11.7805 55.7412C11.7805 55.3999 11.6163 55.3288 11.3093 55.407C10.8523 55.5279 10.3811 55.5208 9.92418 55.407C9.71713 55.3573 9.51008 55.3217 9.38871 55.5492C9.29589 55.7341 9.29589 55.9474 9.38871 56.1393C9.51722 56.3882 9.76711 56.3242 9.98844 56.3313C10.4882 56.3526 11.0094 56.246 11.4735 56.6015C11.245 56.7579 11.0808 56.6015 10.9023 56.6015C10.2597 56.6015 9.55292 56.3882 9.0817 57.0636C8.88893 57.0636 8.68902 57.0707 8.49625 57.0778C8.58192 56.9641 8.6676 56.8503 8.75328 56.7366C9.08884 56.4877 8.98174 56.1678 8.86751 55.8478C8.80325 56.1109 8.739 56.3811 8.67474 56.6441C8.46055 56.7152 8.31062 56.8574 8.23208 57.0707C8.08929 57.0707 8.02503 57.1845 7.95363 57.284C7.93221 57.3125 7.89651 57.348 7.90365 57.3622C7.94649 57.4333 7.98219 57.3836 8.01789 57.348L8.2178 57.2911C8.26064 57.4191 8.31062 57.5471 8.35345 57.6751C8.29634 57.8173 8.03931 57.7888 8.07501 58.0874C9.26019 57.476 10.4668 57.0139 11.7876 57.5755C11.8805 58.0946 12.3374 58.4643 12.4016 58.9975C9.48866 59.0046 6.57568 59.0117 3.66269 59.0188C3.54132 59.0188 3.41994 59.0117 3.33427 58.898C4.66938 58.5993 5.99022 58.3007 7.15399 57.4831C8.24636 56.7224 8.88893 55.8692 8.45341 54.497C8.73186 54.3619 8.90321 54.5894 9.11026 54.696C9.28875 54.7885 9.40299 54.952 9.63145 54.9875C11.4021 55.2506 12.2232 54.8169 13.0157 53.1177C12.2874 53.4803 11.9019 54.2197 11.1236 54.3548C11.195 54.5396 11.4092 54.433 11.4092 54.7316C10.8452 54.4899 10.117 55.2719 9.69571 54.3121C9.67429 54.2623 9.55292 54.2623 9.47438 54.241C9.05314 54.113 8.74614 53.8286 8.41771 53.5514C8.06073 53.2527 7.95363 52.7337 7.48955 52.5418C7.46813 52.492 7.44672 52.4493 7.4253 52.3996C7.40388 52.4493 7.38246 52.492 7.36104 52.5418C7.3182 52.6271 7.27536 52.7124 7.23967 52.7977C6.33293 51.8166 6.12588 50.5723 5.89027 49.321C5.59754 47.7639 5.34051 46.1998 5.06921 44.6427C4.7979 43.0786 4.58371 41.5002 4.29812 39.936C4.04823 38.5567 3.8626 37.1632 3.61985 35.7767C3.38424 34.4117 3.27715 33.0181 2.95586 31.6673C2.49893 29.7476 1.99915 27.8279 1.25662 25.9936C1.07099 25.5315 0.821103 25.1049 0.364164 24.92C-0.0427973 24.7565 -0.0285179 24.4721 0.0214598 24.1948C0.214231 23.1994 0.249929 22.1827 0.535516 21.2087C0.813963 21.0096 0.978176 21.0878 0.978176 21.422C0.978176 21.5997 0.913918 21.7703 0.87822 21.9481C0.863941 22.3747 0.828242 22.7942 0.792544 23.2208C0.756846 23.6331 0.421281 24.1379 0.835382 24.4934C1.55649 25.1049 1.89205 25.9012 2.12766 26.7686C2.56318 28.347 3.0701 29.9111 3.42708 31.5108C3.89116 33.6225 4.14105 35.7696 4.46947 37.9097C4.88357 40.6257 5.43333 43.3203 5.89027 46.0291C6.20441 47.9204 6.60424 49.7903 7.3896 51.5535C7.60379 52.0299 7.91079 52.5062 8.40343 52.7266C9.70285 53.3096 11.0737 53.0323 12.4159 52.9328C12.6444 52.9186 12.8657 52.6768 13.0656 52.5062C13.8439 51.8521 14.1152 50.9136 14.3294 49.9964C14.9362 47.4156 15.4074 44.8134 15.7859 42.1898C15.9715 40.8887 16.2856 39.6089 16.4356 38.3007C16.6355 36.6015 16.8425 34.5538 17.2923 32.9044C17.635 33.0466 17.7992 32.7337 17.7564 32.9826C17.6779 33.4163 17.328 34.8027 17.2281 35.2293L14.9148 50.4444V50.4372ZM13.2513 52.9115C13.3227 52.8973 13.4083 52.8901 13.4226 52.7906C13.4226 52.7693 13.3798 52.7479 13.3584 52.7266C13.3227 52.7835 13.2798 52.8404 13.2441 52.8973C13.2441 52.9115 13.2298 52.9328 13.2227 52.947C13.2298 52.9328 13.2441 52.9186 13.2513 52.9044V52.9115ZM7.60379 58.1301C6.96122 58.2652 6.38291 58.5496 5.79745 58.834C6.44002 58.6918 7.11115 58.6207 7.64663 58.1799C7.6966 58.1514 7.82512 58.1656 7.77514 58.0732C7.73944 58.0021 7.65377 58.0732 7.60379 58.1301ZM14.4936 58.5922C14.1723 58.4003 13.8581 58.2012 13.3084 58.1799C13.7653 58.4714 14.1009 58.6065 14.4936 58.5922ZM13.0585 58.1443C13.1085 58.123 13.1442 58.1088 13.1727 58.0946C13.1442 58.0519 13.1228 57.995 13.0799 57.9808C13.0514 57.9666 13.0014 58.0163 12.9585 58.0306C12.9942 58.0661 13.0228 58.1088 13.0514 58.1372L13.0585 58.1443ZM15.3503 58.8126C15.3503 58.8126 15.2861 58.7629 15.2575 58.77C15.229 58.77 15.2004 58.7984 15.1647 58.8198C15.1933 58.834 15.229 58.8624 15.2575 58.8624C15.2861 58.8624 15.3146 58.834 15.3503 58.8126ZM14.872 58.6562C14.872 58.6562 14.8077 58.6847 14.7792 58.6989C14.7934 58.7131 14.8077 58.7344 14.8149 58.7344C14.8434 58.7344 14.8791 58.7131 14.9077 58.6989C14.8934 58.6847 14.8863 58.6705 14.872 58.6633V58.6562Z" fill="#CED8DE"/>
<path d="M1.72074 20.3555C1.67076 20.0782 1.83497 19.8933 2.02774 19.7511C2.73457 19.2321 3.25576 18.4927 4.05541 18.0874C4.2339 17.995 4.39097 17.9381 4.5766 18.0305C4.97642 17.8741 5.37625 17.7248 5.78321 17.5684C6.58999 17.284 7.36821 17.028 8.25353 17.4049C8.63908 17.5684 9.26023 17.5684 9.53153 17.1916C9.78856 16.8361 10.0099 16.3171 9.68861 15.8265C9.65291 15.2293 9.53867 14.6534 9.08174 14.2197C8.79615 13.9424 8.48914 13.6864 8.19642 13.4162C9.61721 12.3213 10.7239 12.4777 11.8662 13.9139C12.0376 14.1272 12.2946 14.2694 12.5016 14.4543C12.6302 14.5752 12.7658 14.7387 12.4374 14.7458C11.909 14.7671 12.1232 15.0871 12.2589 15.2648C12.6016 15.7056 13.0014 16.1109 13.3727 16.5304C13.6725 16.8716 13.8153 16.5801 13.8225 16.3739C13.8368 16.0327 14.0295 15.7909 14.1295 15.4994C14.6221 15.6416 14.5436 16.0611 14.5793 16.4237C14.5436 16.4379 14.5079 16.4522 14.465 16.4593C14.4222 16.4877 14.3865 16.5233 14.3437 16.5517C13.901 16.8432 13.9153 17.0423 14.4436 17.2058C14.6507 17.2698 14.8434 17.3409 15.0576 17.3196C15.6431 17.8599 16.4427 18.1159 16.9568 18.7486C16.9782 18.77 17.0353 18.7771 17.071 18.77C18.349 18.5851 18.8559 19.5592 19.4842 20.3555C19.4842 20.5972 19.3986 20.7394 19.1201 20.7038C17.6708 20.5048 16.2071 20.6612 14.7506 20.6114C14.4436 20.5972 14.1295 20.6896 13.8867 20.3412C13.7511 20.1493 13.3084 20.1564 13.237 20.327C13.08 20.7252 12.7944 20.6043 12.5445 20.6114C11.9947 20.6327 11.4521 20.6256 10.9024 20.6327C9.96705 20.8318 9.02462 20.6541 8.08932 20.6256C8.20356 20.1635 7.93225 19.9289 7.56099 19.7369C7.2397 19.5734 6.98267 19.68 6.7185 19.8649C6.39722 20.0924 6.58285 20.3626 6.63997 20.6256C5.94028 20.6256 5.24059 20.6327 4.54804 20.6399C4.38383 20.4408 4.21962 20.4479 4.05541 20.6399C3.93403 20.6399 3.81266 20.6399 3.68414 20.6256C3.66273 20.4408 3.76268 20.1848 3.46995 20.1493C3.12725 20.1066 3.07013 20.4123 2.9559 20.6327C2.71315 20.6683 2.4704 20.6967 2.22765 20.7323C2.18481 20.6754 2.14198 20.6754 2.09914 20.7323C2.0206 20.7323 1.94207 20.7323 1.86353 20.7323C1.86353 20.5972 1.86353 20.455 1.72788 20.3626L1.72074 20.3555ZM12.0019 19.9929C12.216 19.8933 12.6944 20.1706 12.7729 19.7725C12.8372 19.4383 12.4302 19.2179 12.109 19.0828C11.7163 18.9122 11.5092 19.2108 11.2879 19.4454C11.1808 19.552 10.988 19.6658 11.1165 19.8507C11.2879 20.0924 11.5663 19.9715 11.7948 20C11.8376 20 11.8733 20 11.9947 20L12.0019 19.9929ZM4.26246 19.8649C4.51949 19.8151 4.84791 19.744 4.86933 19.3743C4.88361 19.1681 4.66942 19.0117 4.44095 19.0259C4.09111 19.0472 3.87692 19.2605 3.83408 19.5947C3.79838 19.8578 4.02685 19.8578 4.26246 19.8578V19.8649ZM14.5864 19.8649C14.7435 19.8507 15.0362 19.8791 15.0077 19.616C14.972 19.289 14.6935 19.1326 14.358 19.1255C14.1009 19.1255 13.8867 19.2179 13.9082 19.4809C13.9438 19.8435 14.258 19.8578 14.5864 19.8578V19.8649ZM17.3352 20.3626C17.4708 20.2701 17.8064 20.4763 17.8064 20.1919C17.8064 19.9289 17.5422 19.7582 17.2424 19.7369C16.9925 19.7227 16.7355 19.8293 16.7355 20.064C16.7355 20.4266 17.0782 20.3057 17.3352 20.3555V20.3626ZM9.98847 19.6942C9.91708 19.5094 9.76 19.4952 9.59579 19.5023C9.46728 19.5094 9.33876 19.5449 9.37446 19.7085C9.4173 19.8933 9.58865 19.8507 9.71716 19.8507C9.8314 19.8507 9.96705 19.8578 9.98847 19.6871V19.6942ZM16.1357 20.2062C16.15 20.0284 16.0286 20 15.9001 19.9929C15.7645 19.9929 15.586 19.9289 15.5289 20.0924C15.4646 20.2773 15.6431 20.3199 15.7787 20.3341C15.9144 20.3483 16.0643 20.3697 16.1286 20.199L16.1357 20.2062ZM5.83319 19.6871C5.76893 19.5307 5.64041 19.5023 5.49048 19.5094C5.36911 19.5165 5.22631 19.5734 5.24059 19.7085C5.26201 19.9075 5.44764 19.8507 5.57616 19.8507C5.69039 19.8507 5.82605 19.8507 5.83319 19.68V19.6871Z" fill="#F8F7F6"/>
<path d="M1.72069 20.3555C1.85635 20.4408 1.85635 20.583 1.85635 20.7252C1.85635 20.8034 1.85635 20.8887 1.85635 20.9669C1.5065 20.9527 1.40655 21.1802 1.37085 21.4717C1.34229 21.6921 1.28517 21.9125 1.29231 22.1329C1.32801 23.1425 0.842514 24.2446 1.83493 25.0906C1.92774 25.1688 1.94916 25.3466 1.99914 25.4746C1.98486 25.631 2.07054 25.7092 2.22047 25.7305C2.34898 26.2922 2.48464 26.861 2.61315 27.4227C2.59173 27.6075 2.61315 27.7639 2.83448 27.7995C2.88446 28.1194 2.9273 28.4394 2.97727 28.7593C2.97014 28.9157 3.05581 28.9939 3.1986 29.0153C3.27 30.1102 3.81262 31.0984 3.94113 32.1791C3.7912 32.5275 3.86259 32.819 4.18388 33.0394L4.19816 33.6367C4.22672 33.8642 4.07678 34.1486 4.42663 34.2623C4.42663 34.3832 4.42663 34.497 4.42663 34.6178C4.26242 34.8667 4.24814 35.1084 4.44091 35.3501C4.44091 35.471 4.44805 35.5919 4.45519 35.7056C4.43377 35.8478 4.43377 35.9829 4.56942 36.0825C4.76933 37.6253 5.11918 39.1468 5.19057 40.7039C5.18343 40.8105 5.20485 40.8958 5.30481 40.9527C5.46188 41.7277 5.54756 42.5169 5.71891 43.2776C6.15443 45.2115 6.3829 47.1809 6.86125 49.1077C7.104 50.0746 7.51097 50.942 8.04644 51.7526C8.38201 52.2645 8.91748 52.5346 9.56005 52.5346C10.2312 52.5346 10.9094 52.5702 11.5806 52.5275C12.3374 52.4778 12.9942 52.2076 13.4155 51.5179C13.751 50.9563 13.9652 50.3306 14.1009 49.7049C14.415 48.2687 14.6578 46.8112 14.9077 45.3608C15.0219 44.7067 14.9933 44.0313 15.2289 43.3914C15.4003 43.1283 15.3575 42.8155 15.4503 42.5311C15.4503 42.2893 15.4646 42.0476 15.4646 41.8059C15.5502 41.7419 15.5788 41.6566 15.5645 41.557C15.6074 41.1944 15.6573 40.8318 15.7002 40.4692C15.7858 40.4052 15.8144 40.3199 15.8073 40.2204C15.8144 39.9786 15.8215 39.7369 15.8287 39.4952C15.9572 39.4028 15.9429 39.2606 15.9429 39.1255C16.0215 38.5993 16.1071 38.0732 16.1857 37.54C16.2785 37.4831 16.307 37.3907 16.2928 37.2911C16.2928 37.0921 16.2999 36.893 16.307 36.6868C16.4356 36.5872 16.4356 36.4522 16.4141 36.31C16.457 35.9474 16.4998 35.5848 16.5426 35.2222C16.6569 35.144 16.664 35.0657 16.5498 34.9804C16.9853 32.6839 17.3637 30.3732 18.042 28.1265C18.3061 27.252 18.5917 26.3917 19.0273 25.5883C19.2343 25.2115 19.4128 24.7636 19.9625 24.728L19.9911 24.7565C19.0915 25.8087 18.7845 27.1312 18.3561 28.3967C17.8635 29.8756 17.7207 31.4326 17.2995 32.9257V33.2456C16.8497 34.9022 16.6355 36.5944 16.4356 38.2936C16.2856 39.6018 15.9715 40.8816 15.7858 42.1827C15.4074 44.7991 14.9362 47.4084 14.3293 49.9893C14.1152 50.9065 13.851 51.845 13.0656 52.4991C12.8657 52.6697 12.6444 52.9115 12.4159 52.9257C11.0737 53.0252 9.70284 53.3025 8.40342 52.7195C7.91079 52.4991 7.60378 52.0227 7.38959 51.5464C6.60423 49.7831 6.20441 47.9132 5.89026 46.022C5.43332 43.3132 4.88357 40.6185 4.46947 37.9026C4.14818 35.7625 3.89115 33.6153 3.42707 31.5037C3.07723 29.904 2.56317 28.3469 2.12765 26.7614C1.89205 25.894 1.55648 25.0977 0.835374 24.4863C0.421273 24.1308 0.749698 23.6331 0.792536 23.2136C0.835374 22.7941 0.863933 22.3676 0.878212 21.941C1.11382 21.8983 1.1281 21.7206 1.11382 21.5428C1.0924 21.2655 1.1638 21.0025 1.24234 20.7394C1.57076 20.8176 1.5779 20.5119 1.72069 20.3555Z" fill="#EBDAE4"/>
<path d="M9.68862 15.8194C10.0028 16.3171 9.78857 16.829 9.53155 17.1845C9.26024 17.5613 8.63909 17.5613 8.25354 17.3978C7.36823 17.021 6.59 17.284 5.78322 17.5613C5.34056 17.6253 5.20491 17.2272 4.94788 17.0068C4.36242 16.502 4.29103 15.663 4.77653 15.0587C4.8979 14.9022 5.09781 14.8098 5.15493 14.5965C5.19777 14.5752 5.23346 14.561 5.2763 14.5396C5.33342 14.625 5.44051 14.7103 5.43338 14.7885C5.32628 15.5208 5.77608 15.2009 6.07595 15.1226C6.20446 15.0871 6.31869 14.9804 6.43293 14.9022C6.54002 14.8311 6.61856 14.7387 6.61142 14.6036C6.59714 14.369 6.43293 14.4543 6.29727 14.4543C6.08308 14.4543 6.04739 14.2837 6.01169 14.1202C6.16162 13.9922 6.31155 13.8571 6.46149 13.7291C6.80419 13.7576 6.99696 13.4732 7.27541 13.3523C7.3825 13.3523 7.4896 13.3523 7.5967 13.3523C7.61811 13.4092 7.64667 13.4661 7.66809 13.5229C7.38964 13.8642 7.68237 13.9851 7.91084 14.0704C8.41776 14.2481 8.7676 14.5539 8.99607 15.0444C9.11031 15.2862 9.1817 15.5706 9.41731 15.7554C9.50299 15.7696 9.5958 15.791 9.68148 15.8052L9.68862 15.8194Z" fill="#BF2D30"/>
<path d="M17.2994 32.9328C17.7207 31.4397 17.8635 29.8827 18.3561 28.4038C18.7773 27.1312 19.0844 25.8159 19.9911 24.7565C20.4266 24.5005 20.5408 24.1593 20.3552 23.6758C20.2481 23.3985 20.2624 23.0786 20.2053 22.78C20.0839 22.1045 20.1839 21.4006 19.9697 20.7394C20.4338 20.6541 20.6479 20.9669 20.6337 21.3082C20.598 22.0547 20.9121 22.7444 20.8907 23.4838C20.8836 23.8393 20.9478 24.1948 20.955 24.5574C20.955 24.6427 20.8907 24.7707 20.8193 24.8063C19.4985 25.5599 19.3057 26.9605 18.8987 28.219C18.3847 29.7974 18.0777 31.4326 17.7564 33.0608C17.6207 32.9684 17.4708 32.9044 17.2994 32.9328Z" fill="#CED8DE"/>
<path d="M19.9697 20.7394C20.1839 21.4006 20.0839 22.1045 20.2053 22.78C20.2553 23.0786 20.241 23.3914 20.3552 23.6758C20.5408 24.1593 20.4266 24.5005 19.9911 24.7565L19.9625 24.7281C20.0625 23.6118 19.7483 22.5311 19.7126 21.4291C19.7055 21.1376 19.4842 21.0807 19.2414 21.0807C19.0129 20.9456 18.7631 20.9598 18.5132 20.9669C17.8206 20.9669 17.1209 20.9669 16.4284 20.9669C15.9001 20.9669 15.3717 20.9669 14.8434 20.9669C14.2722 20.9669 13.701 20.9669 13.1299 20.9741C12.9656 20.9741 12.8014 20.9741 12.6301 20.9741C12.0661 20.9741 11.4949 20.9598 10.9308 20.9527C10.9237 20.839 10.9166 20.7323 10.9094 20.6186C11.4592 20.6186 12.0018 20.6186 12.5515 20.5972C12.8086 20.5901 13.087 20.711 13.2441 20.3128C13.3155 20.1422 13.7582 20.1351 13.8938 20.3271C14.1366 20.6754 14.4507 20.5901 14.7577 20.5972C16.2142 20.647 17.6778 20.4906 19.1272 20.6897C19.4056 20.7252 19.4913 20.583 19.4913 20.3413C19.6555 20.4621 19.6841 20.7608 19.9768 20.7323L19.9697 20.7394Z" fill="#EBC5DA"/>
<path d="M16.6712 4.7849C16.4927 4.01704 17.1781 2.65905 17.8563 2.44576C18.0063 2.39599 18.1205 2.50264 18.249 2.5453C18.6417 2.98611 19.2914 2.94345 19.7198 3.31316C19.2486 3.64732 18.5989 3.71842 18.2847 4.2801C17.6422 4.10235 17.1995 4.58582 16.6712 4.7849Z" fill="#F8F7F6"/>
<path d="M7.23968 52.7977C7.28252 52.7124 7.32536 52.6271 7.36106 52.5417C7.4039 52.6057 7.43959 52.6057 7.48243 52.5417C7.94651 52.7337 8.05361 53.2456 8.41059 53.5442C8.73901 53.8215 9.04602 54.1059 9.46726 54.2339C9.5458 54.2552 9.66717 54.2623 9.68859 54.305C10.1098 55.2648 10.8381 54.4827 11.4021 54.7245C11.4021 54.433 11.1951 54.5325 11.1165 54.3477C11.8947 54.2055 12.2803 53.466 13.0085 53.1105C12.216 54.8098 11.395 55.2435 9.62433 54.9804C9.39586 54.9449 9.28163 54.7813 9.10314 54.6889C8.89609 54.5823 8.72473 54.3619 8.44629 54.4898C8.03933 53.9282 7.63951 53.3594 7.23254 52.7977H7.23968Z" fill="#E8E9E8"/>
<path d="M15.8287 7.93454C15.9501 7.41552 16.0572 6.8894 16.1857 6.37038C16.2357 6.16419 16.3357 5.98645 16.5427 5.89402C16.9854 5.71627 17.4352 5.53852 17.8778 5.36078C17.8778 6.09309 17.4994 6.73298 17.3923 7.44396C16.7498 7.21645 16.3642 7.82079 15.8287 7.93454Z" fill="#E8E9E8"/>
<path d="M21.9473 0.945603C22.6542 0.547452 23.4324 0.305717 24.1892 0.035543C24.5819 -0.106654 24.6461 0.263058 24.7532 0.497683C25.0816 1.19445 25.0245 1.3793 24.3106 1.57838C24.1178 1.63526 23.9607 1.86277 23.718 1.74902C23.2396 1.22289 22.6256 1.00248 21.9402 0.945603H21.9473Z" fill="#F8F7F6"/>
<path d="M15.0861 11.326C15.0433 10.5866 15.3431 9.92534 15.593 9.25702C16.1142 9.16459 16.407 8.51048 17.0352 8.67401C17.021 9.30678 16.8353 9.90401 16.6426 10.4941C15.9357 10.423 15.4574 10.7785 15.079 11.326H15.0861Z" fill="#F8F7F6"/>
<path d="M14.3579 14.1628C14.5293 13.594 14.4936 12.9612 14.8363 12.4351C15.0219 12.4564 15.2289 12.3924 15.3003 12.6697C15.3289 12.7906 15.486 12.819 15.6002 12.7337C15.693 12.6626 15.6787 12.5559 15.6288 12.4706C15.5717 12.3711 15.5074 12.2716 15.4431 12.172C15.6145 11.8094 15.9144 11.6957 16.2928 11.7028C16.2928 12.3355 16.0786 12.9257 15.9215 13.53C15.2575 13.402 14.8648 13.921 14.3579 14.1628Z" fill="#E8E9E8"/>
<path d="M5.15483 14.6036C5.09771 14.8169 4.90494 14.9094 4.77643 15.0658C4.29093 15.6772 4.36233 16.5091 4.94778 17.0139C5.19767 17.2343 5.33332 17.6324 5.78312 17.5684C5.3833 17.7249 4.98348 17.8742 4.57652 18.0306C4.47656 17.4547 4.04818 17.0139 3.96251 16.4095C3.84113 15.5137 4.24095 14.824 5.14769 14.6036H5.15483Z" fill="#9F372F"/>
<path d="M3.32707 58.8909C3.40561 59.0046 3.52698 59.0117 3.6555 59.0117C6.56848 59.0046 9.48147 58.9975 12.3945 58.9904C12.5944 58.9904 12.7943 58.9904 12.987 58.9904C14.5364 58.9904 16.0928 58.9975 17.6421 59.0046C17.6778 59.0046 17.7064 59.026 17.7421 59.0402C17.7064 59.0757 17.6707 59.1113 17.635 59.1468C13.1798 59.161 8.71752 59.0046 4.26237 59.225C4.12671 59.1042 3.98392 59.0971 3.84827 59.225C3.59124 59.2179 3.33421 59.2108 3.07718 59.2037C3.03434 59.1042 2.99151 59.0046 2.94153 58.9051C3.07004 58.9051 3.19142 58.898 3.31993 58.8909H3.32707Z" fill="#E8E9E8"/>
<path d="M21.9474 0.945618C22.6328 1.0025 23.254 1.2229 23.7252 1.74903C23.3682 1.90545 23.0112 2.06897 22.6542 2.22539C22.3401 2.16851 22.1545 1.82013 21.8046 1.83435C21.5833 1.66371 21.3191 1.66371 21.0621 1.61394C20.9835 1.55706 20.8979 1.5073 20.8193 1.45042C21.1692 1.23001 21.4833 0.938508 21.9403 0.952728L21.9474 0.945618Z" fill="#BF2D30"/>
<path d="M17.0352 8.67402C16.4069 8.51049 16.1142 9.1646 15.593 9.25703C15.6144 8.802 15.5787 8.33986 15.8286 7.93459C16.3641 7.82084 16.7496 7.2165 17.3922 7.44402C17.4636 7.91327 17.2494 8.29009 17.0352 8.67402Z" fill="#BF2D30"/>
<path d="M21.8117 1.82722C22.1616 1.813 22.3401 2.16138 22.6614 2.21826C22.0188 2.43155 21.4262 2.80127 20.7408 2.90791C20.7765 2.67329 20.6123 2.56664 20.4624 2.45288C20.5123 1.79878 19.8412 2.09028 19.6056 1.82011C19.9911 1.62103 20.3767 1.42196 20.8336 1.44329C20.9122 1.50016 20.9978 1.54993 21.0764 1.60681C20.9478 1.71346 20.8336 1.84144 20.9407 2.00496C21.0264 2.13294 21.1549 2.0334 21.262 1.99074C21.4476 1.91965 21.669 2.00496 21.8189 1.82722H21.8117Z" fill="#F8F7F6"/>
<path d="M20.4552 2.45287C20.6123 2.56663 20.7694 2.68038 20.7337 2.9079C20.391 3.04299 20.0554 3.17807 19.7127 3.31316C19.2843 2.94345 18.6346 2.979 18.2419 2.5453C18.4133 2.17558 18.7631 2.10449 19.1201 2.04761C19.6056 2.05472 20.0054 2.332 20.4552 2.45998V2.45287Z" fill="#BF2D30"/>
<path d="M16.2927 11.7028C15.9215 11.6957 15.6145 11.8165 15.4431 12.172C15.2432 12.2076 15.0861 12.3782 14.8648 12.3213C14.8505 11.973 14.9576 11.6459 15.0861 11.326C15.4645 10.7785 15.9358 10.4159 16.6497 10.4941C16.7068 10.9491 16.5069 11.326 16.2927 11.7028Z" fill="#BF2D30"/>
<path d="M14.3579 14.1628C14.8648 13.9211 15.2575 13.3949 15.9215 13.53C16.0357 13.9424 15.8643 14.2908 15.693 14.6463C15.129 14.6747 14.8005 15.2861 14.2008 15.2364C14.2508 14.8809 14.3008 14.5254 14.3579 14.1699V14.1628Z" fill="#BF2D30"/>
<path d="M17.885 5.36082C17.4423 5.53857 16.9925 5.71631 16.5498 5.89406C16.3285 5.49591 16.4499 5.1333 16.6784 4.78492C17.2067 4.58585 17.6422 4.10238 18.2919 4.28012C18.1563 4.64273 18.0206 4.99822 17.8921 5.36082H17.885Z" fill="#BF2D30"/>
<path d="M6.01163 14.1343C6.04733 14.2979 6.08303 14.4685 6.29722 14.4685C6.43287 14.4685 6.59708 14.3832 6.61136 14.6178C6.6185 14.7529 6.54711 14.8453 6.43287 14.9164C6.3115 14.9946 6.2044 15.1013 6.07589 15.1368C5.78316 15.215 5.32622 15.535 5.43332 14.8027C5.4476 14.7316 5.33336 14.6391 5.27625 14.5538C5.36906 14.5041 5.46188 14.4543 5.56183 14.3974C5.7546 14.4614 5.71177 14.2979 5.74746 14.2054C5.84028 14.1841 5.9331 14.1557 6.01877 14.1343H6.01163Z" fill="#9F372F"/>
<path d="M14.2008 15.2293C14.7934 15.279 15.129 14.6676 15.693 14.6392C15.6645 14.76 15.7573 14.9164 15.5859 14.9947C15.2861 15.1155 14.8791 15.1297 14.722 15.3999C14.4936 15.8052 15.0719 15.8549 15.179 16.1322C15.2004 16.1891 15.2004 16.2531 15.2147 16.31L15.2075 16.3455C14.9934 16.3029 14.7863 16.3455 14.5793 16.4095C14.5364 16.0469 14.6221 15.6274 14.1295 15.4852C14.1152 15.3857 14.0866 15.279 14.208 15.2151L14.2008 15.2293Z" fill="#EBDAE4"/>
<path d="M14.5793 16.4237C14.7863 16.3527 14.9934 16.31 15.2076 16.3598C15.279 16.701 15.1148 17.0068 15.0648 17.3267C14.8506 17.348 14.6578 17.2698 14.4508 17.2129C13.9224 17.0494 13.9081 16.8503 14.3508 16.5588C14.4365 16.5802 14.4579 16.5304 14.4722 16.4664C14.515 16.4664 14.5507 16.4522 14.5864 16.4309L14.5793 16.4237Z" fill="#BF2D30"/>
<path d="M15.2147 16.3171C15.2075 16.2602 15.2004 16.1962 15.179 16.1393C15.0719 15.8621 14.4935 15.8123 14.722 15.407C14.8791 15.1297 15.2861 15.1226 15.5859 15.0018C15.5074 15.4568 15.6073 15.9616 15.2147 16.3242V16.3171Z" fill="#F8F7F6"/>
<path d="M9.68854 15.8194C9.60287 15.8051 9.51005 15.7838 9.42438 15.7696C9.36012 14.6818 8.65329 13.7859 7.67516 13.5442C7.65374 13.4873 7.62518 13.4305 7.60376 13.3736C7.81081 13.2456 7.99644 13.4802 8.19635 13.4162C8.49622 13.6793 8.79609 13.9424 9.08167 14.2196C9.53861 14.6605 9.65284 15.2292 9.68854 15.8265V15.8194Z" fill="#9F372F"/>
<path d="M1.24234 20.7394C1.17094 21.0025 1.0924 21.2584 1.11382 21.5428C1.1281 21.7206 1.11382 21.8983 0.878213 21.941C0.913911 21.7632 0.985308 21.5926 0.978168 21.4148C0.978168 21.0807 0.813956 21.0025 0.535508 21.2015C0.428413 20.5261 0.913911 20.7607 1.24234 20.7394Z" fill="#E8E9E8"/>
<path d="M5.74032 14.2054C5.71176 14.2979 5.7546 14.4614 5.55469 14.3974C5.36192 14.0206 5.16201 13.6366 4.96924 13.2598C4.99066 13.2456 5.01208 13.2314 5.0335 13.2172C5.2691 13.5442 5.49757 13.8784 5.73318 14.2054H5.74032Z" fill="#B3BF5C"/>
<path d="M20.4552 2.45287C20.0054 2.3249 19.6056 2.05472 19.1201 2.0405C19.2558 1.91253 19.4057 1.8201 19.5985 1.81299C19.8341 2.09027 20.5052 1.79166 20.4552 2.44576V2.45287Z" fill="#EBDAE4"/>
<path d="M14.8577 12.3214C15.079 12.3782 15.2432 12.2005 15.436 12.1721C15.5002 12.2716 15.5645 12.3711 15.6216 12.4707C15.6716 12.5631 15.6859 12.6697 15.593 12.7337C15.4788 12.8191 15.3289 12.7835 15.2932 12.6697C15.2218 12.3854 15.0076 12.4493 14.8291 12.4351C14.8291 12.3925 14.8291 12.3569 14.8505 12.3285L14.8577 12.3214Z" fill="#EBDAE4"/>
<path d="M7.27535 13.3665C6.9969 13.4802 6.80413 13.7717 6.46143 13.7433C6.64706 13.4305 6.88267 13.2314 7.27535 13.3665Z" fill="#9F372F"/>
<path d="M4.26953 59.225C8.72469 59.0117 13.1798 59.161 17.6421 59.1468C17.6064 59.4881 17.3494 59.488 17.0995 59.488C13.2512 59.488 9.41009 59.4952 5.56181 59.4738C5.14057 59.4738 4.66935 59.4738 4.26953 59.225Z" fill="#E8E9E8"/>
<path d="M12.9871 58.9975C12.7872 58.9975 12.5872 58.9975 12.3945 58.9975C12.3302 58.4642 11.8804 58.0945 11.7805 57.5755C11.8233 57.4191 11.7162 57.3053 11.6519 57.1845C11.6305 57.0138 11.5092 56.9783 11.3592 56.9285C10.581 56.6726 9.83133 56.9072 9.08167 57.0565C9.55288 56.3811 10.2597 56.5944 10.9023 56.5944C11.0736 56.5944 11.2378 56.7508 11.4735 56.5944C11.0022 56.246 10.481 56.3455 9.9884 56.3242C9.77421 56.3171 9.51718 56.3811 9.38867 56.1322C9.29585 55.9474 9.29585 55.7341 9.38867 55.5421C9.50291 55.3146 9.70996 55.3501 9.92415 55.3999C10.3882 55.5065 10.8523 55.5137 11.3092 55.3999C11.6162 55.3217 11.7805 55.3999 11.7805 55.7341C11.7805 56.9712 12.3159 58.0163 12.9942 59.0046L12.9871 58.9975Z" fill="#E8E9E8"/>
<path d="M11.652 57.1774C11.7234 57.2982 11.8233 57.4049 11.7805 57.5684C10.4596 56.9996 9.26016 57.4618 8.06784 58.0803C8.03214 57.7817 8.28917 57.8101 8.34629 57.6679C8.5462 57.5826 8.74611 57.4973 8.93888 57.412C9.81706 57.0849 10.7309 57.156 11.6448 57.1845L11.652 57.1774Z" fill="#E8E9E8"/>
<path d="M7.63946 58.1799C7.10398 58.6136 6.43285 58.6918 5.79028 58.8269C6.37574 58.5496 6.95405 58.2581 7.59662 58.123C7.6109 58.1372 7.62518 58.1585 7.63946 58.1728V58.1799Z" fill="#E8E9E8"/>
<path d="M8.94602 57.4049C8.74611 57.4902 8.5462 57.5755 8.35343 57.6609C8.31059 57.5329 8.26061 57.4049 8.21777 57.2769C8.21777 57.2058 8.22491 57.1276 8.23205 57.0565C8.31773 57.0565 8.41054 57.0565 8.49622 57.0565C8.68899 57.0565 8.8889 57.0494 9.08167 57.0423C9.03884 57.1561 8.996 57.2769 8.94602 57.3907V57.4049Z" fill="#CED8DE"/>
<path d="M11.8947 59.8791C10.9166 60.0995 9.93132 59.9289 8.94604 59.9716C9.61003 59.7369 10.3026 59.9218 10.9809 59.872C11.2807 59.8507 11.5877 59.872 11.8947 59.872V59.8791Z" fill="#CED8DE"/>
<path d="M14.4793 58.5922C14.0866 58.6065 13.751 58.4714 13.2941 58.1799C13.8438 58.2012 14.158 58.4003 14.4793 58.5922Z" fill="#E8E9E8"/>
<path d="M8.6676 56.6299C8.73186 56.3669 8.79612 56.0967 8.86037 55.8336C8.97461 56.1607 9.0817 56.4735 8.74614 56.7223C8.71758 56.6939 8.69616 56.6584 8.6676 56.6299Z" fill="#E8E9E8"/>
<path d="M3.08435 59.2037C3.34138 59.2108 3.59841 59.2179 3.85543 59.225C3.59127 59.417 3.33424 59.4738 3.08435 59.2037Z" fill="#E8E9E8"/>
<path d="M8.48914 57.0636C8.40347 57.0636 8.31065 57.0636 8.22498 57.0636C8.30351 56.8503 8.45344 56.7152 8.66764 56.637C8.69619 56.6655 8.71761 56.701 8.74617 56.7294C8.6605 56.8432 8.57482 56.957 8.48914 57.0707V57.0636Z" fill="#E8E9E8"/>
<path d="M13.0442 58.1443C13.0442 58.1443 12.98 58.0732 12.9514 58.0377C12.9943 58.0163 13.0442 57.9737 13.0728 57.9879C13.1156 58.0021 13.137 58.0661 13.1656 58.1016C13.1299 58.1159 13.1014 58.1301 13.0514 58.1514L13.0442 58.1443Z" fill="#E8E9E8"/>
<path d="M13.237 52.9043C13.2727 52.8475 13.3155 52.7906 13.3512 52.7337C13.3727 52.755 13.4155 52.7835 13.4155 52.7977C13.4012 52.8901 13.3227 52.9043 13.2441 52.9186L13.2299 52.9043H13.237Z" fill="#E8E9E8"/>
<path d="M15.3432 58.8126C15.3432 58.8126 15.279 58.8624 15.2504 58.8624C15.2219 58.8624 15.1862 58.8339 15.1576 58.8197C15.1862 58.8055 15.2147 58.77 15.2504 58.77C15.279 58.77 15.3147 58.7984 15.3432 58.8126Z" fill="#E8E9E8"/>
<path d="M8.22498 57.0565C8.22498 57.1276 8.21784 57.2058 8.2107 57.2769C8.14644 57.2983 8.07505 57.3125 8.01079 57.3338C7.98937 57.3125 7.96795 57.2911 7.94653 57.2698C8.01793 57.1703 8.08219 57.0636 8.22498 57.0565Z" fill="#E8E9E8"/>
<path d="M7.36108 52.5417C7.3825 52.492 7.40392 52.4493 7.42534 52.3995C7.44676 52.4493 7.46818 52.492 7.4896 52.5417C7.44676 52.5417 7.41106 52.5417 7.36822 52.5417H7.36108Z" fill="#E8E9E8"/>
<path d="M7.59668 58.1301C7.64666 58.0732 7.72519 58.0021 7.76803 58.0732C7.81801 58.1656 7.6895 58.1514 7.63952 58.1799C7.62524 58.1656 7.61096 58.1443 7.59668 58.1301Z" fill="#E8E9E8"/>
<path d="M14.8648 58.6634C14.8648 58.6634 14.8862 58.6918 14.9005 58.6989C14.8719 58.7131 14.8434 58.7273 14.8077 58.7345C14.8005 58.7345 14.7791 58.7131 14.772 58.6989C14.8005 58.6847 14.8291 58.6705 14.8648 58.6562V58.6634Z" fill="#E8E9E8"/>
<path d="M13.245 52.9116L13.2156 52.955C13.2156 52.955 13.2303 52.9188 13.2377 52.9044L13.245 52.9116Z" fill="#E8E9E8"/>
<path d="M8.01072 57.3338C7.97502 57.3693 7.93932 57.4191 7.89648 57.348C7.89648 57.3338 7.93218 57.2982 7.94646 57.2698C7.96788 57.2911 7.9893 57.3124 8.01072 57.3338Z" fill="#E8E9E8"/>
<path d="M8.08924 20.6185C7.61089 20.7892 7.12539 20.7892 6.64703 20.6185C6.58991 20.3555 6.40428 20.0853 6.72557 19.8578C6.98259 19.6729 7.24676 19.5592 7.56805 19.7298C7.93217 19.9218 8.20348 20.1564 8.09638 20.6185H8.08924Z" fill="#EBDAE4"/>
<path d="M12.0018 19.9929C11.8804 19.9929 11.8447 19.9929 11.8019 19.9929C11.5662 19.9645 11.2878 20.0782 11.1236 19.8436C10.9951 19.6587 11.1878 19.5521 11.2949 19.4383C11.5163 19.2108 11.7233 18.9051 12.116 19.0757C12.4373 19.2179 12.8442 19.4312 12.78 19.7654C12.7015 20.1706 12.216 19.8934 12.0089 19.9858L12.0018 19.9929Z" fill="#EBC5DA"/>
<path d="M4.26238 19.872C4.01963 19.872 3.7983 19.872 3.834 19.6089C3.87684 19.2748 4.09817 19.0544 4.44087 19.0401C4.66934 19.0259 4.88353 19.1823 4.86925 19.3885C4.84783 19.7511 4.51941 19.8293 4.26238 19.8791V19.872Z" fill="#EBDAE4"/>
<path d="M14.5864 19.872C14.258 19.872 13.9438 19.8507 13.9081 19.4952C13.8796 19.2321 14.1009 19.1326 14.3579 19.1397C14.7006 19.1468 14.9719 19.3032 15.0076 19.6303C15.0362 19.8933 14.7435 19.8578 14.5864 19.8791V19.872Z" fill="#EBDAE4"/>
<path d="M17.3352 20.3697C17.0782 20.3199 16.7355 20.4479 16.7355 20.0782C16.7355 19.8365 16.9925 19.7369 17.2424 19.7511C17.5423 19.7654 17.8064 19.9431 17.8064 20.2062C17.8064 20.4906 17.4637 20.2773 17.3352 20.3768V20.3697Z" fill="#EBDAE4"/>
<path d="M1.85638 20.9669C1.85638 20.8887 1.85638 20.8034 1.85638 20.7252C1.93492 20.7252 2.01346 20.7252 2.09199 20.7252C2.13483 20.7252 2.17767 20.7252 2.22051 20.7252C2.46325 20.6897 2.706 20.6612 2.94875 20.6257C3.04871 20.7394 3.18436 20.7323 3.32002 20.7394C3.24862 21.0167 3.02015 20.9669 2.82738 20.9741C2.49895 20.9741 2.17767 20.9741 1.84924 20.9741L1.85638 20.9669Z" fill="#EBC5DA"/>
<path d="M3.32707 20.7323C3.19142 20.7252 3.05577 20.7323 2.95581 20.6185C3.07005 20.3981 3.12716 20.0924 3.46987 20.1351C3.76259 20.1706 3.66264 20.4337 3.68406 20.6114C3.64122 20.6541 3.59838 20.6967 3.55554 20.7323C3.47701 20.7323 3.39847 20.7323 3.31993 20.7323H3.32707Z" fill="#EBDAE4"/>
<path d="M9.98847 19.7014C9.96705 19.872 9.83854 19.8649 9.71716 19.8649C9.58865 19.8649 9.41016 19.9004 9.37446 19.7227C9.33876 19.5663 9.46727 19.5236 9.59579 19.5165C9.76 19.5023 9.91707 19.5165 9.98847 19.7085V19.7014Z" fill="#EBDAE4"/>
<path d="M16.1357 20.2133C16.0786 20.3839 15.9215 20.3626 15.7859 20.3484C15.6502 20.3342 15.4717 20.2915 15.536 20.1067C15.5859 19.9431 15.7716 20 15.9072 20.0071C16.0286 20.0071 16.15 20.0427 16.1428 20.2204L16.1357 20.2133Z" fill="#EBDAE4"/>
<path d="M5.82605 19.6943C5.82605 19.872 5.68326 19.872 5.56902 19.8649C5.44051 19.8649 5.25488 19.9147 5.23346 19.7227C5.21918 19.5876 5.35483 19.5307 5.48335 19.5236C5.62614 19.5094 5.76179 19.5449 5.82605 19.7014V19.6943Z" fill="#EBDAE4"/>
<path d="M4.54806 20.6257C4.38384 20.7608 4.21963 20.7608 4.05542 20.6257C4.21963 20.4337 4.38384 20.4337 4.54806 20.6257Z" fill="#EBDAE4"/>
<path d="M2.22764 20.7181C2.1848 20.7181 2.14196 20.7181 2.09912 20.7181C2.14196 20.6541 2.1848 20.6541 2.22764 20.7181Z" fill="#EBDAE4"/>
<path d="M14.465 16.4521C14.4507 16.5161 14.4293 16.5659 14.3436 16.5446C14.3865 16.5161 14.4222 16.4806 14.465 16.4521Z" fill="#EBDAE4"/>
<path d="M3.3271 20.7323C3.40563 20.7323 3.48417 20.7323 3.5627 20.7323C3.69122 21.0238 4.23383 21.1873 3.84115 21.6495C3.79117 21.7063 3.89113 21.8485 3.99822 21.877C4.21241 21.9268 4.34807 21.8201 4.4266 21.6353C4.61224 21.166 4.8764 20.8816 5.46186 20.9527C5.87596 21.0025 6.05445 21.1376 6.02589 21.5428C6.00447 21.8841 6.39715 22.4102 6.21152 22.7302C5.66177 22.7515 5.49041 23.1852 5.16913 23.4056C5.12629 23.4056 5.07631 23.4056 5.03348 23.4056C5.03348 23.2065 5.03348 23.0003 5.03348 22.8013C4.91924 22.5951 4.79787 22.4387 4.67649 22.8013C4.51228 22.8013 4.36235 22.7657 4.21955 22.6662C4.04106 22.5382 3.86971 22.6164 3.85543 22.8013C3.80545 23.4554 3.7055 24.1308 4.17672 24.8702C4.17672 24.3868 4.24097 24.1024 4.66935 24.1379C4.69077 24.2872 4.61224 24.5076 4.79787 24.5716C5.20483 24.7067 5.11915 24.1024 5.45472 24.0881C5.62607 24.3725 5.64749 24.7991 6.14013 24.7351C6.39715 24.9413 6.6756 24.8347 6.95405 24.8205C7.66801 24.7849 8.41054 24.1308 9.10309 24.92C9.2316 25.0693 9.45293 24.8845 9.62428 24.8845C9.91701 24.8845 10.2597 24.7351 10.4882 24.9982C10.8809 25.4532 10.6167 26.8539 10.174 27.2805C9.70282 27.7355 9.13879 27.8208 8.52477 27.899C9.01027 28.2474 9.51005 28.2545 9.99555 28.0199C10.888 27.5791 11.1308 26.989 11.0237 25.8656C10.9951 25.5314 10.6595 25.1973 10.8809 24.8916C11.1308 24.5503 11.5306 25.0195 11.8804 24.8062C11.8019 24.6996 11.4235 24.7351 11.6305 24.4863C11.8162 24.2588 11.9804 23.9459 12.3159 23.9388C12.5373 23.9388 12.4802 24.1735 12.4944 24.3299C12.5301 24.7423 12.7872 24.8702 13.1656 24.8702C15.0147 24.8702 16.8568 24.8702 18.7773 24.8702C18.3704 24.4081 18.3418 24.0028 18.6631 23.4909C18.9273 23.0643 18.2204 22.5595 18.6274 22.0618C18.7559 21.9054 18.7131 21.6424 18.9059 21.5357C19.0915 21.4362 19.27 21.3509 19.2271 21.0949C19.4699 21.0949 19.6912 21.1518 19.6984 21.4433C19.7269 22.5453 20.0482 23.6331 19.9482 24.7423C19.4056 24.7778 19.22 25.2257 19.0129 25.6025C18.5774 26.406 18.2918 27.2663 18.0277 28.1408C17.3423 30.3875 16.971 32.6982 16.5355 34.9947C16.4284 35.0729 16.4212 35.1511 16.5283 35.2364C16.4855 35.599 16.4427 35.9616 16.3998 36.3242C16.1714 36.3953 16.1214 36.5162 16.2927 36.701C16.2927 36.9001 16.2856 37.0992 16.2785 37.3054C16.1428 37.348 16.0071 37.3907 16.1714 37.5542C16.0928 38.0803 16.0071 38.6065 15.9286 39.1397C15.6859 39.1966 15.6216 39.3174 15.8144 39.5094C15.8072 39.7511 15.8001 39.9929 15.793 40.2346C15.6502 40.2773 15.5217 40.3199 15.6859 40.4835C15.643 40.8461 15.593 41.2087 15.5502 41.5713C15.4074 41.6139 15.2789 41.6566 15.4431 41.8201C15.4431 42.0618 15.4288 42.3036 15.4288 42.5453C14.8505 42.7942 14.7934 43.0146 15.2075 43.4056C14.9719 44.0384 15.0005 44.7209 14.8862 45.375C14.6363 46.8254 14.3864 48.283 14.0794 49.7191C13.9438 50.3448 13.7296 50.9634 13.394 51.5322C12.9799 52.2289 12.3159 52.4991 11.5591 52.5418C10.888 52.5844 10.2169 52.556 9.53861 52.5489C8.90318 52.5489 8.3677 52.2787 8.025 51.7668C7.48952 50.9563 7.08256 50.0889 6.83981 49.1219C6.36145 47.1951 6.13299 45.2257 5.69747 43.2918C5.52611 42.5311 5.4333 41.7419 5.28336 40.9669C5.44044 40.7963 5.31192 40.7536 5.16913 40.7181C5.09773 39.161 4.74789 37.6395 4.54798 36.0967C4.71933 35.9118 4.66221 35.791 4.43374 35.7199C4.43374 35.599 4.4266 35.4781 4.41946 35.3644C4.58368 35.1155 4.59796 34.8738 4.40519 34.6321C4.40519 34.5112 4.40519 34.3974 4.40519 34.2766C4.38377 34.049 4.5337 33.7575 4.17672 33.6509C4.17672 33.4518 4.16958 33.2527 4.16244 33.0537C4.14816 32.7479 4.0839 32.4564 3.91969 32.1934C3.79117 31.1127 3.2557 30.1244 3.17716 29.0295C3.17716 28.8802 3.09863 28.7949 2.95583 28.7735C2.90585 28.4536 2.86302 28.1336 2.81304 27.8137C2.81304 27.6431 2.81304 27.4795 2.59171 27.4369C2.4632 26.8752 2.32754 26.3064 2.19903 25.7447C2.19903 25.5954 2.12049 25.5101 1.9777 25.4888C1.92058 25.3608 1.9063 25.1831 1.81349 25.1049C0.828211 24.2588 1.30657 23.1568 1.27087 22.1472C1.26373 21.9268 1.32085 21.7063 1.34941 21.4859C1.38511 21.1944 1.48506 20.974 1.8349 20.9811C2.16333 20.9811 2.48461 20.9811 2.81304 20.9811C3.01295 20.9811 3.24142 21.0238 3.30568 20.7465L3.3271 20.7323ZM8.8532 50.878C8.87462 50.5226 9.08167 50.2239 8.98171 49.8613C8.69613 48.8731 8.84606 47.8493 8.73182 46.8397C8.53191 45.0338 8.48908 43.2136 8.33914 41.4006C8.13923 39.0046 8.08925 36.5944 7.87506 34.1983C7.70371 32.2858 7.66801 30.3661 7.49666 28.4536C7.46096 28.0839 7.31817 27.5791 8.13209 27.7071C7.32531 27.2307 7.33245 26.5197 7.36101 25.8016C7.36815 25.6097 7.29675 25.4461 7.18966 25.2897C7.03972 25.0693 6.83981 25.1404 6.6399 25.2115C6.49711 25.2613 6.28292 25.2186 6.29006 25.4603C6.29006 25.7163 6.31862 25.9794 6.32576 26.2353C6.36859 27.8564 6.72558 29.4419 6.76128 31.0629C6.7827 32.1294 7.01117 33.1888 7.02544 34.2623C7.054 35.9616 7.36101 37.6395 7.46096 39.3317C7.5395 40.6257 7.74655 41.8983 7.76083 43.2065C7.78225 45.0622 8.19635 46.8965 8.23919 48.7593C8.25347 49.4916 8.41768 50.2311 8.8532 50.8852V50.878Z" fill="#E6B4CE"/>
<path d="M15.2076 43.3985C14.7935 43.0075 14.8506 42.7942 15.4289 42.5382C15.3361 42.8226 15.3789 43.1354 15.2076 43.3985Z" fill="#EBC5DA"/>
<path d="M3.9411 32.1791C4.10531 32.4422 4.16243 32.7337 4.18385 33.0394C3.8697 32.819 3.79831 32.5275 3.9411 32.1791Z" fill="#EBC5DA"/>
<path d="M4.41945 34.6178C4.61222 34.8595 4.59795 35.1013 4.43373 35.3501C4.24096 35.1084 4.25524 34.8666 4.41945 34.6178Z" fill="#EBC5DA"/>
<path d="M4.19097 33.6438C4.54795 33.7504 4.39088 34.042 4.41944 34.2695C4.07673 34.1557 4.21953 33.8713 4.19097 33.6438Z" fill="#EBC5DA"/>
<path d="M15.8144 39.4952C15.6216 39.3032 15.6859 39.1895 15.9286 39.1255C15.9286 39.2606 15.9358 39.3957 15.8144 39.4952Z" fill="#EBC5DA"/>
<path d="M16.2999 36.6939C16.1285 36.509 16.1785 36.3882 16.407 36.3171C16.4213 36.4593 16.4284 36.5944 16.2999 36.6939Z" fill="#EBC5DA"/>
<path d="M4.44801 35.7056C4.67648 35.7767 4.72646 35.8976 4.56225 36.0824C4.42659 35.99 4.43373 35.8478 4.44801 35.7056Z" fill="#EBC5DA"/>
<path d="M2.60602 27.4227C2.82021 27.4653 2.83449 27.6289 2.82735 27.7995C2.59888 27.7639 2.5846 27.6004 2.60602 27.4227Z" fill="#EBC5DA"/>
<path d="M1.9991 25.4675C2.1419 25.4959 2.22043 25.5812 2.22043 25.7234C2.0705 25.7021 1.99196 25.6239 1.9991 25.4675Z" fill="#EBC5DA"/>
<path d="M15.6858 40.4692C15.5216 40.2986 15.6501 40.2559 15.7929 40.2204C15.8001 40.3199 15.7787 40.4124 15.6858 40.4692Z" fill="#EBC5DA"/>
<path d="M2.97725 28.7593C3.12004 28.7807 3.19858 28.866 3.19858 29.0153C3.04865 28.994 2.96297 28.9158 2.97725 28.7593Z" fill="#EBC5DA"/>
<path d="M16.5355 35.2293C16.4284 35.144 16.4355 35.0658 16.5426 34.9875C16.6568 35.0729 16.6497 35.1511 16.5355 35.2293Z" fill="#EBC5DA"/>
<path d="M5.18342 40.7039C5.31907 40.7465 5.44758 40.7892 5.29765 40.9527C5.20484 40.8958 5.17628 40.8034 5.18342 40.7039Z" fill="#EBC5DA"/>
<path d="M16.1713 37.5471C16.0143 37.3764 16.1428 37.3338 16.2784 37.2982C16.2856 37.4049 16.257 37.4902 16.1713 37.5471Z" fill="#EBC5DA"/>
<path d="M15.4502 41.813C15.2789 41.6424 15.4145 41.5997 15.5573 41.5641C15.5645 41.6637 15.5431 41.7561 15.4502 41.813Z" fill="#EBC5DA"/>
<path d="M7.67524 13.5442C8.66051 13.786 9.3602 14.6889 9.42446 15.7696C9.18885 15.5919 9.11745 15.3004 9.00322 15.0586C8.77475 14.5751 8.4249 14.2623 7.91799 14.0846C7.68238 14.0064 7.39679 13.8784 7.67524 13.5371V13.5442Z" fill="#A0A2A1"/>
<path d="M19.2344 21.0806C19.2772 21.3366 19.0987 21.4219 18.9131 21.5215C18.7203 21.6281 18.756 21.8912 18.6346 22.0476C18.2348 22.5453 18.9345 23.0501 18.6703 23.4767C18.3562 23.9886 18.3776 24.3938 18.7846 24.856C16.864 24.856 15.0219 24.856 13.1728 24.856C12.7944 24.856 12.5373 24.7351 12.5016 24.3156C12.4874 24.1663 12.5445 23.9246 12.3232 23.9246C11.9876 23.9317 11.8162 24.2445 11.6377 24.472C11.4307 24.728 11.8091 24.6853 11.8876 24.792C11.5378 25.0053 11.138 24.536 10.8881 24.8773C10.6596 25.183 10.9952 25.5172 11.0309 25.8514C11.138 26.9676 10.8952 27.5648 10.0028 28.0056C9.5244 28.2474 9.01749 28.2332 8.53199 27.8848C9.13886 27.7995 9.71003 27.7212 10.1813 27.2662C10.6168 26.8396 10.8809 25.439 10.4954 24.984C10.2669 24.7209 9.92422 24.8702 9.6315 24.8702C9.45301 24.8702 9.23882 25.0551 9.1103 24.9057C8.41775 24.1166 7.67523 24.7707 6.96126 24.8062C6.68281 24.8204 6.39723 24.9271 6.14734 24.7209C6.15448 24.5858 6.2116 24.3298 6.30441 24.4009C6.81847 24.7778 6.99696 24.145 7.36108 24.1023C7.44676 24.4223 7.66809 24.3867 7.88228 24.273C8.12503 24.145 8.51057 24.1521 8.47487 23.7113C8.44631 23.4198 8.54627 23.0785 8.10361 23.0074C8.10361 22.9292 8.10361 22.8439 8.10361 22.7657C8.63908 22.7301 9.13172 23.2847 9.51726 23.6971C9.72431 24.1663 10.1027 23.8464 10.167 23.306C10.1813 23.1709 10.2027 23.0003 10.0456 22.9363C9.9385 22.8937 9.78857 22.8581 9.69575 22.8937C9.5244 22.9576 9.2531 24.2445 9.51726 23.6971C9.73859 22.4955 10.1813 22.4244 10.3312 22.1116C10.3669 22.0334 10.5097 22.0334 10.6096 22.0831C10.731 22.1542 10.7524 22.2538 10.7381 22.3889C10.7096 22.6093 10.6953 22.8297 10.681 23.0501C10.681 23.1496 10.681 23.2705 10.8024 23.2918C10.9166 23.3131 10.988 23.2207 11.0166 23.1212C11.138 22.7159 11.4735 22.4457 11.8377 22.5382C12.7373 22.7657 12.6516 22.2182 12.6302 21.6708C12.623 21.429 12.6302 21.1873 12.6302 20.9385C12.7944 20.9385 12.9586 20.9385 13.1299 20.9385C13.0871 21.5215 13.0371 22.1045 12.9943 22.6875C12.98 22.851 12.8087 23.0643 13.0514 23.1709C13.2656 23.2705 13.4512 23.107 13.5797 22.9648C13.8725 22.6448 14.1795 22.4529 14.6435 22.5239C15.3432 22.6377 15.4646 22.5239 15.4503 21.8272C15.4503 21.6779 15.5289 21.4504 15.3504 21.3935C15.129 21.3153 15.0505 21.5357 14.9791 21.6992C14.9149 21.8485 14.8649 22.0476 14.6578 21.9623C14.5222 21.9054 14.3794 21.7703 14.3151 21.6352C14.2152 21.4148 14.4579 21.3864 14.5793 21.3153C14.7292 21.2228 14.8292 21.1162 14.8435 20.9385C15.3718 20.9385 15.9001 20.9385 16.4285 20.9385C16.3785 21.0878 16.2857 21.2371 16.2785 21.3935C16.25 21.749 16.2071 22.1329 16.5427 22.3818C16.864 22.6164 17.1353 22.8581 17.6279 22.5737C18.3062 22.1827 18.3562 21.5499 18.5132 20.9313C18.7631 20.9313 19.013 20.91 19.2415 21.0451L19.2344 21.0806ZM17.0353 24.0881C17.0568 24.2872 17.0139 24.5787 17.2638 24.5005C17.5565 24.4081 17.9564 24.2943 18.042 23.9744C18.1206 23.6829 18.0349 23.3345 17.9421 23.0287C17.8921 22.8581 17.6708 22.9292 17.5922 23.0501C17.3638 23.3771 17.1496 23.7255 17.0353 24.0881ZM14.4436 23.8677C14.3151 23.69 14.4936 23.2207 14.1009 23.2065C13.6583 23.1923 13.4441 23.5762 13.4369 23.9886C13.4369 24.4009 13.8082 24.3156 14.051 24.3583C14.3722 24.4152 14.4793 24.2161 14.4365 23.8606L14.4436 23.8677Z" fill="#E6B4CE"/>
<path d="M9.68854 22.915C9.12451 23.3132 8.63187 22.7586 8.0964 22.7941C7.83937 22.588 7.68943 22.8724 7.48952 22.9221C7.32531 22.8795 7.1611 22.8368 6.98975 22.7941C6.98975 22.7515 6.98975 22.7159 6.98975 22.6733C7.0183 20.8247 6.76128 20.9598 8.73183 20.9598C9.46007 20.9598 10.1883 20.9598 10.9166 20.9527C11.4806 20.9527 12.0518 20.9669 12.6158 20.974C12.6158 21.2158 12.6158 21.4575 12.6158 21.7063C12.6301 22.2467 12.7158 22.7941 11.8233 22.5737C11.4592 22.4813 11.1308 22.7444 11.0022 23.1568C10.9737 23.2563 10.9094 23.3487 10.7881 23.3274C10.6595 23.3061 10.6595 23.1852 10.6667 23.0857C10.6738 22.8652 10.6952 22.6448 10.7238 22.4244C10.7452 22.2894 10.7238 22.1827 10.5953 22.1187C10.4953 22.0618 10.3525 22.0618 10.3168 22.1472C10.1669 22.46 9.72424 22.5311 9.6814 22.9221L9.68854 22.915Z" fill="#E6B4CE"/>
<path d="M14.8363 20.9669C14.822 21.1447 14.7221 21.2585 14.5721 21.3438C14.4508 21.4149 14.2009 21.4433 14.308 21.6637C14.3722 21.7988 14.5079 21.9339 14.6507 21.9908C14.8649 22.0761 14.9077 21.877 14.972 21.7277C15.0433 21.5642 15.1219 21.3438 15.3432 21.422C15.5217 21.486 15.4432 21.7064 15.4432 21.8557C15.4574 22.5453 15.3361 22.6662 14.6364 22.5524C14.1723 22.4813 13.8653 22.6733 13.5726 22.9933C13.4441 23.1355 13.2584 23.299 13.0442 23.1994C12.8086 23.0857 12.98 22.8795 12.9871 22.716C13.03 22.133 13.0728 21.55 13.1228 20.9669C13.694 20.9669 14.2651 20.9669 14.8363 20.9598V20.9669Z" fill="#E6B4CE"/>
<path d="M18.5061 20.9669C18.349 21.5855 18.2991 22.2183 17.6208 22.6093C17.1282 22.8866 16.8569 22.652 16.5356 22.4173C16.1929 22.1685 16.2428 21.7846 16.2714 21.4291C16.2857 21.2726 16.3714 21.1233 16.4213 20.974C17.1139 20.974 17.8136 20.974 18.5061 20.974V20.9669Z" fill="#E6B4CE"/>
<path d="M7.36816 52.5417C7.411 52.5417 7.4467 52.5417 7.48954 52.5417C7.4467 52.6057 7.411 52.6057 7.36816 52.5417Z" fill="#CED8DE"/>
<path d="M21.8117 1.82722C21.6618 2.00496 21.4333 1.91964 21.2548 1.99074C21.1549 2.02629 21.0192 2.13294 20.9336 2.00496C20.8265 1.84144 20.9407 1.71346 21.0692 1.60681C21.3191 1.66369 21.5904 1.66369 21.8117 1.82722Z" fill="#E8E9E8"/>
<path d="M8.94604 57.4049C8.98888 57.2911 9.03172 57.1703 9.0817 57.0565C9.83136 56.9072 10.581 56.6726 11.3593 56.9285C11.5092 56.9783 11.6306 57.0138 11.652 57.1845C10.7381 57.1489 9.82422 57.0778 8.94604 57.412V57.4049Z" fill="#CED8DE"/>
<path d="M6.98979 22.6804C6.98979 22.723 6.98979 22.7586 6.98979 22.8012C7.02549 22.9861 6.87556 23.2705 7.12544 23.3274C7.34677 23.3771 7.44673 23.1354 7.48243 22.9221C7.68234 22.8795 7.83227 22.5951 8.0893 22.7941C8.0893 22.8723 8.0893 22.9577 8.0893 23.0359C7.55383 23.2065 7.31108 23.5691 7.34678 24.1237C6.98265 24.1592 6.80416 24.7991 6.2901 24.4223C6.19729 24.3512 6.14017 24.6071 6.13303 24.7422C5.64753 24.7991 5.61897 24.3725 5.44762 24.0952C5.10492 24.1095 5.19773 24.7138 4.79077 24.5787C4.598 24.5147 4.68368 24.3014 4.66226 24.145C4.66226 23.6971 4.66226 23.2492 4.66226 22.8012C4.78363 22.8012 4.90501 22.8012 5.01924 22.8012C5.01924 23.0003 5.01924 23.2065 5.01924 23.4056C4.91215 23.498 4.88359 23.6118 4.96927 23.7255C4.99068 23.754 5.06208 23.754 5.11206 23.7611C5.12634 23.6402 5.14062 23.5264 5.1549 23.4056C5.47618 23.1852 5.33339 22.5737 5.88314 22.5453C6.22585 22.787 6.61853 22.6093 6.98265 22.6733L6.98979 22.6804Z" fill="#E6B4CE"/>
<path d="M8.85318 50.878C8.41052 50.2239 8.25345 49.4845 8.23917 48.7522C8.20347 46.8894 7.78223 45.0551 7.76081 43.1994C7.74653 41.8983 7.53948 40.6185 7.46094 39.3245C7.36099 37.6324 7.05398 35.9545 7.02542 34.2552C7.00401 33.1816 6.78268 32.1223 6.76126 31.0558C6.72556 29.4347 6.36857 27.8421 6.32574 26.2282C6.3186 25.9722 6.29718 25.7092 6.29004 25.4532C6.29004 25.2115 6.49709 25.2542 6.63988 25.2044C6.83979 25.1333 7.03256 25.0622 7.18964 25.2826C7.29673 25.439 7.36813 25.6025 7.36099 25.7945C7.33243 26.5126 7.32529 27.2165 8.13207 27.6999C7.31815 27.572 7.46094 28.0768 7.49664 28.4465C7.67513 30.359 7.70369 32.2858 7.87505 34.1912C8.08924 36.5872 8.13921 38.9975 8.33912 41.3935C8.48906 43.2065 8.53189 45.0266 8.73181 46.8325C8.84604 47.8421 8.69611 48.866 8.98169 49.8542C9.08165 50.2097 8.8746 50.5154 8.85318 50.8709V50.878Z" fill="#EBC5DA"/>
<path d="M4.67654 22.7941C4.67654 23.242 4.67654 23.69 4.67654 24.1379C4.24816 24.1023 4.17677 24.3867 4.18391 24.8702C3.70555 24.1237 3.81264 23.4553 3.86262 22.8012C3.8769 22.6093 4.04825 22.5382 4.22675 22.6661C4.36954 22.7657 4.51947 22.8083 4.68368 22.8012L4.67654 22.7941Z" fill="#EBC5DA"/>
<path d="M5.16912 23.4127C5.15485 23.5336 5.14057 23.6473 5.12629 23.7682C5.07631 23.754 5.00491 23.7611 4.98349 23.7327C4.90496 23.6189 4.93352 23.5051 5.03347 23.4127C5.07631 23.4127 5.12629 23.4127 5.16912 23.4127Z" fill="#EBC5DA"/>
<path d="M5.0335 22.8012C4.91212 22.8012 4.79075 22.8012 4.67651 22.8012C4.80503 22.4457 4.91926 22.6022 5.0335 22.8012Z" fill="#EBC5DA"/>
<path d="M7.35389 24.1237C7.31819 23.5691 7.56094 23.1994 8.09642 23.0359C8.53908 23.0999 8.43912 23.4483 8.46768 23.7398C8.51052 24.1806 8.11784 24.1735 7.87509 24.3014C7.66804 24.4152 7.43957 24.4507 7.35389 24.1308V24.1237Z" fill="#E6B4CE"/>
<path d="M17.0425 24.0953C17.1567 23.7326 17.3709 23.3843 17.5994 23.0572C17.6779 22.9435 17.8992 22.8653 17.9492 23.0359C18.0349 23.3416 18.1206 23.69 18.0492 23.9815C17.9635 24.3014 17.5637 24.4152 17.2709 24.5076C17.0282 24.5858 17.0639 24.2943 17.0425 24.0953Z" fill="#E6B4CE"/>
<path d="M14.4507 23.8748C14.4935 24.2303 14.3864 24.4294 14.0652 24.3725C13.8224 24.3299 13.444 24.4152 13.4511 24.0028C13.4511 23.5833 13.6725 23.2065 14.1151 23.2207C14.5078 23.2278 14.3293 23.7042 14.4578 23.8819L14.4507 23.8748Z" fill="#E6B4CE"/>
<path d="M9.33878 24.5361C9.24597 24.273 7.62526 22.4671 7.79661 22.4031C7.89657 22.3676 10.2884 21.9694 10.3955 22.0192C10.5525 22.0903 10.1884 23.1994 10.167 23.3416C10.1027 23.882 9.71718 24.2019 9.33878 24.5432V24.5361Z" fill="#E6B4CE"/>
<path d="M7.48959 22.9221C7.45389 23.1354 7.3468 23.3772 7.13261 23.3274C6.88272 23.2705 7.03265 22.9861 6.99696 22.8013C7.16117 22.8439 7.32538 22.8866 7.49673 22.9292L7.48959 22.9221Z" fill="#EBC5DA"/>
<path d="M10.9023 20.6256C10.9095 20.7394 10.9166 20.846 10.9237 20.9598C10.1955 20.9598 9.46725 20.9669 8.73901 20.9669C6.76846 20.9669 7.38961 23.953 7.36819 25.8016C7.00407 25.7376 6.61138 25.9225 6.26868 25.6736C6.44717 25.3537 5.99737 21.877 6.02593 21.5428C6.05449 21.1304 5.86886 21.0025 5.4619 20.9527C4.87644 20.8816 4.61228 21.166 4.42664 21.6352C4.35525 21.8201 4.21245 21.9339 3.99826 21.877C3.89117 21.8485 3.79835 21.7063 3.84119 21.6495C4.23387 21.1873 3.69126 21.0238 3.56274 20.7323C3.60558 20.6896 3.64842 20.647 3.69126 20.6114C3.81263 20.6114 3.93401 20.6114 4.06252 20.6185C4.22673 20.7607 4.39095 20.7536 4.55516 20.6185C5.25485 20.6185 5.95453 20.6114 6.64708 20.6043C7.12544 20.7749 7.61094 20.7749 8.0893 20.6043C9.02459 20.6399 9.96703 20.8176 10.9023 20.6114V20.6256Z" fill="#EBC5DA"/>
<path d="M13.3654 42.3107C13.3654 42.588 13.3654 42.7728 13.3654 42.9506C13.3726 43.1425 12.6372 50.6576 12.9085 50.679C13.2155 50.7003 13.9652 43.1923 13.9723 42.9364C13.9795 42.5311 13.9223 42.1116 13.9937 41.7206C14.3793 39.5805 14.2722 37.3978 14.7862 35.2577C15.1004 33.9495 14.8862 32.5346 15.1932 31.1909C15.4645 30.0035 15.4002 28.7806 15.543 27.5791C15.6216 26.9392 16.0571 21.9979 16.0143 21.3437C15.9857 20.9598 15.7787 20.9314 15.4859 20.9385C15.1932 20.9385 14.8933 20.9029 14.9076 21.3437C14.9362 22.2396 14.3721 27.4156 14.365 28.2972C14.3507 30.5083 14.0651 32.6911 13.9866 34.8951C13.9152 36.893 13.7724 38.8909 13.6225 40.8816C13.5796 41.4006 13.1655 41.8557 13.3654 42.3107Z" fill="#EBC5DA"/>
</g>
<defs>
<clipPath id="clip0_109_41725">
<rect width="32" height="60" fill="white"/>
</clipPath>
</defs>
</svg>
