<svg width="121" height="32" viewBox="0 0 121 32" fill="none" xmlns="http://www.w3.org/2000/svg">
<g clip-path="url(#clip0_109_46100)">
<path d="M80.5068 0V23.2355C83.4278 23.3688 86.3411 23.53 89.2462 23.7201V28.6465C84.6386 28.345 80.0263 28.1163 75.4111 27.9603V0H80.5068ZM121 0.00278261L114.365 15.097L120.998 31.8943L120.991 31.8973C119.057 31.6273 117.121 31.3704 115.183 31.1267L111.458 21.6992L107.697 30.2516C105.913 30.0582 104.128 29.8758 102.341 29.7043L108.81 14.9959L102.886 0.00301449H108.398L111.715 8.39351L115.403 0.00278261H121ZM57.9224 27.7162V0.00255072H72.1469V4.97322H63.0181V11.415H69.9252V16.3413H63.0181V27.7152L57.9224 27.7162ZM38.8949 4.97345V0.00231884H54.6556V4.97322H49.3229V27.8509C47.622 27.895 45.923 27.9464 44.2276 28.0093V4.97345H38.8949ZM21.4747 29.4414V0.00324638H35.6283V4.97368H26.5697V11.7067C28.6508 11.6805 31.6098 11.651 33.4508 11.6552V16.582C31.1464 16.5542 28.5451 16.6131 26.5697 16.6323V24.0907C29.587 23.8574 32.6067 23.6548 35.6283 23.4831V28.41C30.905 28.6773 26.1864 29.0214 21.4747 29.4419V29.4414ZM11.4787 18.0531L11.4784 0.00231884H16.5742V29.9061C14.7114 30.0939 12.852 30.294 10.9961 30.5053L5.09523 13.8722V31.2176C3.39538 31.4347 1.69686 31.6616 -0.000244141 31.8984V0.00278261H4.84236L11.4787 18.0531ZM93.45 28.9435V0.00278261H98.546V29.3565C96.8494 29.2081 95.1514 29.0711 93.45 28.9435Z" fill="black"/>
</g>
<defs>
<clipPath id="clip0_109_46100">
<rect width="121" height="32" fill="white"/>
</clipPath>
</defs>
</svg>
