<svg width="36" height="36" viewBox="0 0 36 36" fill="none" xmlns="http://www.w3.org/2000/svg">
<g clip-path="url(#clip0_109_45915)">
<path d="M8.799 0L6.50249 1.893L9.62549 4.593C5.68199 3.1095 2.36249 6.693 2.10749 8.1C4.18349 7.6155 5.46749 7.467 7.12349 7.5975C-3.43951 14.5485 -0.343505 27.3195 4.9725 31.7385C13.6485 38.6565 25.6275 36.5415 31.8375 29.7645C40.89 20.0445 34.4895 0.975 16.29 4.149C16.4505 2.394 17.2395 1.8945 18.1545 1.746C16.8195 -0.4935 12.6495 0.645 11.3205 3.807C11.28 3.903 8.799 0 8.799 0ZM6.63299 10.8255H10.35C14.3595 10.8255 14.697 10.8435 15.675 11.1285C17.265 11.589 18.477 12.588 19.1445 13.9845C19.2195 14.1435 19.2825 14.2935 19.3395 14.442L30.774 14.454L30.8145 18.822L26.697 18.786V30.1095L22.224 30.0855V18.8025L19.0335 18.8265C18.6683 19.5258 18.121 20.1135 17.4495 20.5275C17.019 20.7915 16.9995 20.8125 17.0685 20.9235C17.259 21.2235 20.256 26.3865 20.256 26.412L15.171 26.4405L12.1515 21.3765C12.1005 21.306 11.9685 21.2745 11.6355 21.2505L11.19 21.2205L11.2455 26.4405L6.63299 26.3835V10.8255ZM11.157 14.2575L11.193 14.7645C11.214 15.0435 11.229 15.858 11.229 16.5735V17.874L12.102 17.8365C12.582 17.817 13.1445 17.763 13.3515 17.7195C14.3925 17.5005 14.9235 17.0025 14.982 16.1925C15.0225 15.6255 14.8875 15.2385 14.5275 14.8875C14.0505 14.424 13.386 14.2635 11.928 14.2605L11.157 14.2575Z" fill="black"/>
</g>
<defs>
<clipPath id="clip0_109_45915">
<rect width="36" height="36" fill="white"/>
</clipPath>
</defs>
</svg>
