<svg width="39" height="39" viewBox="0 0 39 39" fill="none" xmlns="http://www.w3.org/2000/svg">
<path d="M25.2883 31.6519L20.2995 19.8902C20.02 20.4427 19.1252 22.1662 17.615 25.0609C16.1049 27.9556 14.9847 30.1531 14.2545 31.6535C14.0969 31.6712 13.938 31.6734 13.78 31.66H13.7881L13.6874 31.6617C13.5655 31.6617 13.4436 31.6519 13.3266 31.6324L13.3396 31.634C12.4145 29.4565 10.9726 26.1448 9.0139 21.6988C7.05523 17.2528 5.59056 13.8896 4.6199 11.6092C4.32552 10.9498 3.94344 10.3332 3.48402 9.77615L3.4954 9.78915C2.99469 9.15625 2.41407 8.59091 1.76802 8.10728L1.74365 8.0894C1.26245 7.67357 0.662739 7.41948 0.0292729 7.36303L0.0178979 7.3614C0.0178979 7.30507 0.0151896 7.16965 0.00977295 6.95515C0.00435628 6.74065 0.00164795 6.5879 0.00164795 6.4969H9.87027V7.34353C9.4008 7.36999 8.93769 7.4647 8.49552 7.62465L8.52965 7.61328C8.09883 7.75519 7.71165 8.00529 7.40515 8.33965L7.40352 8.34128C7.26248 8.48045 7.17015 8.66145 7.14028 8.85734C7.11042 9.05323 7.14461 9.25352 7.23777 9.4284L7.23452 9.42353C7.52811 10.0887 8.74956 12.9054 10.8989 17.8735C13.0482 22.8417 14.3769 25.8891 14.885 27.0158C15.2317 26.3279 16.0214 24.8242 17.2543 22.5048C18.4871 20.1854 19.2259 18.7889 19.4708 18.3155C19.2563 17.8757 18.5451 16.2908 17.3371 13.5608C16.1292 10.8308 15.3622 9.16624 15.0361 8.56715C14.6071 7.78715 13.4729 7.38632 11.6334 7.36465V6.51478L20.3158 6.53103V7.32728H20.2508C19.6901 7.32728 19.1669 7.48328 18.72 7.75465L18.733 7.74653C18.3549 8.00653 18.2845 8.39653 18.5218 8.91653C18.8944 9.70736 19.3852 10.7766 19.994 12.1243C20.6029 13.4719 21.0876 14.5298 21.4484 15.2979C22.6899 12.8832 23.666 10.8351 24.3766 9.15378C24.6475 8.53303 24.5917 8.08561 24.2093 7.81153C23.5337 7.46162 22.7742 7.30634 22.0155 7.36303H22.0285C22.0399 7.2574 22.0464 7.13553 22.0464 7.01203V6.9389V6.94215V6.5359C22.7679 6.5359 23.7299 6.53319 24.9324 6.52778L29.5376 6.5034V7.33215C28.823 7.35589 28.1245 7.55154 27.5015 7.90253L27.5243 7.89115C26.9182 8.21019 26.399 8.67199 26.0114 9.23665L26.0016 9.25128L22.3958 16.7328C22.542 17.1054 23.2614 18.7418 24.5538 21.6419C25.8462 24.542 26.5319 26.0879 26.611 26.2797L34.0763 9.06603C33.9156 8.63728 33.6254 8.26923 33.2459 8.01303L33.2378 8.00815C32.9137 7.76856 32.5486 7.59013 32.1604 7.48165L32.136 7.47515C31.8313 7.4011 31.5199 7.35755 31.2065 7.34515H31.1968V6.49365L38.9838 6.5619L39 6.59603L38.9838 7.34028C38.2378 7.35089 37.5128 7.58927 36.9061 8.02348C36.2994 8.45768 35.8399 9.06695 35.5891 9.76965L35.581 9.79565C29.6422 23.5172 26.4875 30.8009 26.117 31.647L25.2883 31.6519Z" fill="black"/>
</svg>
